<svg width="460" height="421" viewBox="0 0 460 421" fill="none" xmlns="http://www.w3.org/2000/svg">
<path d="M436.2 210.837C436.2 325.543 343.263 418.528 228.621 418.528C113.98 418.528 21.0428 325.543 21.0428 210.837C21.0428 96.1321 113.98 3.14731 228.621 3.14731C343.263 3.14731 436.2 96.1321 436.2 210.837Z" fill="#FCECDD" stroke="#3F3D56" stroke-width="4.945"/>
<path d="M230.075 349.476C319.241 349.476 391.525 284.196 391.525 203.669C391.525 123.141 319.241 57.8613 230.075 57.8613C140.909 57.8613 68.625 123.141 68.625 203.669C68.625 284.196 140.909 349.476 230.075 349.476Z" fill="#FFAA72"/>
<path d="M230.075 349.476C319.241 349.476 391.525 284.196 391.525 203.669C391.525 123.141 319.241 57.8613 230.075 57.8613C140.909 57.8613 68.625 123.141 68.625 203.669C68.625 284.196 140.909 349.476 230.075 349.476Z" fill="#FFAA72"/>
<path d="M234.324 346.642C271.217 346.642 305.206 335.802 332.398 317.594L324.962 300.094C309.384 263.323 272.42 239.306 231.421 239.306C190.421 239.306 153.457 263.323 137.879 300.094L131.789 314.547C159.618 334.598 195.378 346.642 234.324 346.642Z" fill="#FFCCAA"/>
<path d="M229.991 191.482L199.117 236.826L222.414 267.858C226.238 272.959 233.956 272.959 237.78 267.858L260.865 236.826L229.991 191.482Z" fill="#F76300" fill-opacity="0.37"/>
<path d="M230.075 332.472C144.039 332.472 73.7942 271.755 68.9083 195.167C68.6958 198.001 68.625 200.835 68.625 203.669C68.625 284.153 140.923 349.476 230.075 349.476C319.226 349.476 391.525 284.224 391.525 203.669C391.525 200.835 391.454 198.001 391.242 195.167C386.356 271.755 316.04 332.472 230.075 332.472Z" fill="#F76300" fill-opacity="0.37"/>
<path d="M326.937 303.283C299.958 321.562 266.393 332.473 230.067 332.473C194.661 332.473 161.946 322.2 135.392 304.771L131.852 313.485C159.751 334.173 195.44 346.643 234.386 346.643C269.58 346.643 302.153 336.441 328.707 319.153C329.982 318.303 331.186 317.382 332.46 316.461L326.937 303.283Z" fill="#F76300" fill-opacity="0.37"/>
<path d="M64.6484 204.163C69.1804 213.445 75.2701 222.088 82.9178 229.811C119.952 266.865 180.071 266.865 217.105 229.811C248.121 198.779 253.148 151.664 232.33 115.39" fill="#F76300" fill-opacity="0.37"/>
<path d="M390.952 215.218C373.957 240.795 344.924 257.586 311.926 257.586C259.526 257.586 217.039 215.076 217.039 162.648C217.039 139.268 225.466 117.872 239.486 101.293" fill="#F76300" fill-opacity="0.37"/>
<path d="M230.075 349.476C319.241 349.476 391.525 284.196 391.525 203.669C391.525 123.141 319.241 57.8613 230.075 57.8613C140.909 57.8613 68.625 123.141 68.625 203.669C68.625 284.196 140.909 349.476 230.075 349.476Z" stroke="#3F3D56" stroke-width="11.3358" stroke-miterlimit="10" stroke-linecap="round" stroke-linejoin="round"/>
<path d="M229.991 171.646L199.117 216.989L230.133 258.294L260.936 216.989L229.991 171.646Z" fill="#3F3D56"/>
<path d="M229.991 171.646L199.117 216.989L230.133 258.294L260.936 216.989L229.991 171.646Z" stroke="#3F3D56" stroke-width="11.3358" stroke-miterlimit="10" stroke-linecap="round" stroke-linejoin="round"/>
<path d="M300.107 73.5901C278.864 63.6713 254.717 58.0742 229.296 58.0742C203.874 58.0742 179.728 63.6713 158.484 73.5901V172.85H300.107V73.5901Z" fill="#3F3D56"/>
<path d="M315.461 73.2405L397.261 70.7559C385.447 100.346 383.866 144.845 394.176 193.484C381.082 221.192 353.238 240.844 320.503 241.822C273.996 243.253 235.09 206.66 233.736 160.054C232.306 113.523 268.879 74.6711 315.461 73.2405Z" fill="#3F3D56"/>
<path d="M315.461 73.2405L397.261 70.7559C385.447 100.346 383.866 144.845 394.176 193.484C381.082 221.192 353.238 240.844 320.503 241.822C273.996 243.253 235.09 206.66 233.736 160.054C232.306 113.523 268.879 74.6711 315.461 73.2405Z" stroke="#3F3D56" stroke-width="12.0469" stroke-miterlimit="10" stroke-linecap="round" stroke-linejoin="round"/>
<path d="M318.393 241.749C364.942 241.749 402.677 203.994 402.677 157.42C402.677 110.847 364.942 73.0918 318.393 73.0918C271.845 73.0918 234.109 110.847 234.109 157.42C234.109 203.994 271.845 241.749 318.393 241.749Z" fill="#F7E8AD"/>
<path d="M318.393 241.749C364.942 241.749 402.677 203.994 402.677 157.42C402.677 110.847 364.942 73.0918 318.393 73.0918C271.845 73.0918 234.109 110.847 234.109 157.42C234.109 203.994 271.845 241.749 318.393 241.749Z" fill="#F7E8AD"/>
<path d="M378 97.788C361.82 81.5999 340.599 73.393 319.377 73.0918C335.331 76.1788 350.608 83.8587 362.949 96.2821C395.835 129.185 395.835 182.568 362.949 215.547C346.243 232.262 324.269 240.469 302.445 240.243C329.01 245.363 357.456 237.608 378 217.053C410.886 184.074 410.886 130.691 378 97.788Z" fill="#F7D6A1"/>
<path opacity="0.7" d="M343.318 202.462C368.004 177.763 367.861 137.575 342.999 112.699C318.137 87.8239 277.97 87.6809 253.284 112.38C228.598 137.079 228.741 177.267 253.603 202.143C278.465 227.018 318.632 227.161 343.318 202.462Z" fill="white"/>
<path d="M389.136 117.439C386.803 114.427 382.288 106.145 379.503 103.359C346.392 70.6814 293.037 70.9826 260.377 104.187C253.905 110.738 248.713 118.116 244.875 126.022C291.306 109.683 342.178 113.599 389.136 117.439Z" fill="#EFCA92"/>
<path d="M318.393 241.749C364.942 241.749 402.677 203.994 402.677 157.42C402.677 110.847 364.942 73.0918 318.393 73.0918C271.845 73.0918 234.109 110.847 234.109 157.42C234.109 203.994 271.845 241.749 318.393 241.749Z" stroke="#3F3D56" stroke-width="12.0469" stroke-miterlimit="10" stroke-linecap="round" stroke-linejoin="round"/>
<path d="M318.393 241.749C364.942 241.749 402.677 203.994 402.677 157.42C402.677 110.847 364.942 73.0918 318.393 73.0918C271.845 73.0918 234.109 110.847 234.109 157.42C234.109 203.994 271.845 241.749 318.393 241.749Z" stroke="#3F3D56" stroke-width="12.0469" stroke-miterlimit="10" stroke-linecap="round" stroke-linejoin="round"/>
<path d="M385.595 106.521C383.262 103.509 380.779 100.573 377.995 97.7868C345.109 64.8836 291.754 64.8836 258.793 97.7868C252.246 104.337 247.054 111.641 243.141 119.471C289.798 103.509 338.637 102.304 385.595 106.521Z" fill="#3F3D56"/>
<path d="M305.919 195.453C323.375 195.453 337.526 181.295 337.526 163.83C337.526 146.365 323.375 132.207 305.919 132.207C288.463 132.207 274.312 146.365 274.312 163.83C274.312 181.295 288.463 195.453 305.919 195.453Z" fill="#3F3D56"/>
<path d="M287.996 174.598C293.815 174.598 298.532 169.878 298.532 164.057C298.532 158.235 293.815 153.516 287.996 153.516C282.178 153.516 277.461 158.235 277.461 164.057C277.461 169.878 282.178 174.598 287.996 174.598Z" fill="white"/>
<path d="M144.791 74.9303L63.7109 72.4697C75.4109 101.773 76.9759 145.839 66.7664 194.005C79.7332 221.444 107.306 240.905 139.724 241.874C185.778 243.291 224.306 207.054 225.648 160.9C227.064 114.821 190.846 76.3469 144.791 74.9303Z" fill="#3F3D56"/>
<path d="M144.791 74.9303L63.7109 72.4697C75.4109 101.773 76.9759 145.839 66.7664 194.005C79.7332 221.444 107.306 240.905 139.724 241.874C185.778 243.291 224.306 207.054 225.648 160.9C227.064 114.821 190.846 76.3469 144.791 74.9303Z" stroke="#3F3D56" stroke-width="11.9299" stroke-miterlimit="10" stroke-linecap="round" stroke-linejoin="round"/>
<path d="M141.809 241.801C187.905 241.801 225.273 204.412 225.273 158.291C225.273 112.171 187.905 74.7822 141.809 74.7822C95.7122 74.7822 58.3438 112.171 58.3438 158.291C58.3438 204.412 95.7122 241.801 141.809 241.801Z" fill="#F7E8AD"/>
<path d="M141.809 241.801C187.905 241.801 225.273 204.412 225.273 158.291C225.273 112.171 187.905 74.7822 141.809 74.7822C95.7122 74.7822 58.3438 112.171 58.3438 158.291C58.3438 204.412 95.7122 241.801 141.809 241.801Z" fill="#F7E8AD"/>
<path d="M82.7841 99.2385C98.8064 83.2077 119.822 75.0805 140.837 74.7822C125.038 77.8393 109.91 85.4446 97.6886 97.7472C65.1223 130.331 65.1223 183.195 97.6886 215.853C114.233 232.406 135.993 240.533 157.605 240.309C131.298 245.38 103.129 237.7 82.7841 217.344C50.2178 184.686 50.2178 131.822 82.7841 99.2385Z" fill="#F7D6A1"/>
<path opacity="0.7" d="M205.974 202.594C230.595 177.96 230.736 138.162 206.29 113.703C181.844 89.2442 142.068 89.3859 117.447 114.02C92.8262 138.653 92.6847 178.451 117.131 202.91C141.577 227.369 181.353 227.228 205.974 202.594Z" fill="white"/>
<path opacity="0.89" d="M71.8359 118.699C74.1461 115.716 78.6175 107.514 81.3748 104.756C114.165 72.3957 167.001 72.694 199.343 105.576C205.752 112.063 210.894 119.37 214.695 127.199C168.64 111.019 118.263 114.896 71.8359 118.699Z" fill="#EFCA92"/>
<path d="M141.809 241.801C187.905 241.801 225.273 204.412 225.273 158.291C225.273 112.171 187.905 74.7822 141.809 74.7822C95.7122 74.7822 58.3438 112.171 58.3438 158.291C58.3438 204.412 95.7122 241.801 141.809 241.801Z" stroke="#3F3D56" stroke-width="11.9299" stroke-miterlimit="10" stroke-linecap="round" stroke-linejoin="round"/>
<path d="M141.809 241.801C187.905 241.801 225.273 204.412 225.273 158.291C225.273 112.171 187.905 74.7822 141.809 74.7822C95.7122 74.7822 58.3438 112.171 58.3438 158.291C58.3438 204.412 95.7122 241.801 141.809 241.801Z" stroke="#3F3D56" stroke-width="11.9299" stroke-miterlimit="10" stroke-linecap="round" stroke-linejoin="round"/>
<path d="M75.3359 107.887C77.6461 104.904 80.1054 101.996 82.8627 99.2374C115.429 66.6539 168.265 66.6539 200.906 99.2374C207.389 105.724 212.531 112.957 216.406 120.711C170.203 104.904 121.763 103.711 75.3359 107.887Z" fill="#3F3D56"/>
<path d="M153.643 195.955C170.929 195.955 184.943 181.935 184.943 164.639C184.943 147.344 170.929 133.323 153.643 133.323C136.357 133.323 122.344 147.344 122.344 164.639C122.344 181.935 136.357 195.955 153.643 195.955Z" fill="#3F3D56"/>
<path d="M171.378 175.302C177.141 175.302 181.812 170.629 181.812 164.863C181.812 159.098 177.141 154.425 171.378 154.425C165.616 154.425 160.945 159.098 160.945 164.863C160.945 170.629 165.616 175.302 171.378 175.302Z" fill="white"/>
<path d="M191.9 367.187C185.669 367.187 180.57 362.086 180.57 355.851V343.099C180.57 336.864 185.669 331.763 191.9 331.763C198.132 331.763 203.23 336.864 203.23 343.099V355.851C203.23 362.086 198.202 367.187 191.9 367.187Z" fill="#3F3D56"/>
<path d="M169.244 367.187C163.012 367.187 157.914 362.086 157.914 355.851V343.099C157.914 336.864 163.012 331.763 169.244 331.763C175.475 331.763 180.574 336.864 180.574 343.099V355.851C180.574 362.086 175.546 367.187 169.244 367.187Z" fill="#3F3D56"/>
<path d="M214.424 367.187C208.192 367.187 203.094 362.086 203.094 355.851V343.099C203.094 336.864 208.192 331.763 214.424 331.763C220.655 331.763 225.753 336.864 225.753 343.099V355.851C225.753 362.086 220.655 367.187 214.424 367.187Z" fill="#3F3D56"/>
<path d="M244.306 367.187C238.075 367.187 232.977 362.086 232.977 355.851V343.099C232.977 336.864 238.075 331.763 244.306 331.763C250.538 331.763 255.636 336.864 255.636 343.099V355.851C255.636 362.086 250.538 367.187 244.306 367.187Z" fill="#3F3D56"/>
<path d="M266.814 367.187C260.583 367.187 255.484 362.086 255.484 355.851V343.099C255.484 336.864 260.583 331.763 266.814 331.763C273.046 331.763 278.144 336.864 278.144 343.099V355.851C278.144 362.086 273.046 367.187 266.814 367.187Z" fill="#3F3D56"/>
<path d="M289.478 367.187C283.247 367.187 278.148 362.086 278.148 355.851V343.099C278.148 336.864 283.247 331.763 289.478 331.763C295.71 331.763 300.808 336.864 300.808 343.099V355.851C300.808 362.086 295.71 367.187 289.478 367.187Z" fill="#3F3D56"/>
<path d="M223.058 274.588C223.058 280.539 218.243 285.357 212.295 285.357C206.346 285.357 201.531 280.539 201.531 274.588" stroke="#3F3D56" stroke-width="5.66792" stroke-miterlimit="10" stroke-linecap="round" stroke-linejoin="round"/>
<path d="M255.988 274.588C255.988 280.539 251.172 285.357 245.224 285.357C239.276 285.357 234.461 280.539 234.461 274.588" stroke="#3F3D56" stroke-width="5.66792" stroke-miterlimit="10" stroke-linecap="round" stroke-linejoin="round"/>
<path opacity="0.31" d="M103.45 247.099C101.893 250.429 97.9981 251.917 94.5993 250.358C91.2004 248.799 89.7842 244.903 91.342 241.502" stroke="#FF6701" stroke-width="5.66792" stroke-miterlimit="10" stroke-linecap="round" stroke-linejoin="round"/>
<path opacity="0.31" d="M124.556 258.079C122.998 261.409 119.104 262.897 115.705 261.339C112.377 259.78 110.89 255.883 112.448 252.482" stroke="#FF6701" stroke-width="5.66792" stroke-miterlimit="10" stroke-linecap="round" stroke-linejoin="round"/>
<path opacity="0.31" d="M112.306 266.511C110.748 269.841 106.854 271.329 103.455 269.77C100.127 268.212 98.6399 264.315 100.198 260.914" stroke="#FF6701" stroke-width="5.66792" stroke-miterlimit="10" stroke-linecap="round" stroke-linejoin="round"/>
<path opacity="0.31" d="M130.853 280.611C129.295 283.941 125.401 285.428 122.002 283.87C118.674 282.311 117.187 278.414 118.745 275.014" stroke="#FF6701" stroke-width="5.66792" stroke-miterlimit="10" stroke-linecap="round" stroke-linejoin="round"/>
<path opacity="0.31" d="M145.017 267.858C143.459 271.188 139.565 272.676 136.166 271.117C132.838 269.558 131.351 265.661 132.909 262.261" stroke="#FF6701" stroke-width="5.66792" stroke-miterlimit="10" stroke-linecap="round" stroke-linejoin="round"/>
<path opacity="0.31" d="M358.875 248.516C360.433 251.846 364.327 253.334 367.726 251.775C371.125 250.216 372.541 246.32 370.983 242.919" stroke="#FF6701" stroke-width="5.66792" stroke-miterlimit="10" stroke-linecap="round" stroke-linejoin="round"/>
<path opacity="0.31" d="M337.844 259.496C339.402 262.826 343.296 264.314 346.695 262.756C350.023 261.197 351.51 257.3 349.952 253.899" stroke="#FF6701" stroke-width="5.66792" stroke-miterlimit="10" stroke-linecap="round" stroke-linejoin="round"/>
<path opacity="0.31" d="M350.031 267.928C351.589 271.258 355.484 272.746 358.882 271.187C362.21 269.629 363.697 265.732 362.14 262.331" stroke="#FF6701" stroke-width="5.66792" stroke-miterlimit="10" stroke-linecap="round" stroke-linejoin="round"/>
<path opacity="0.31" d="M331.539 282.028C333.097 285.358 336.991 286.845 340.39 285.287C343.718 283.728 345.205 279.831 343.648 276.431" stroke="#FF6701" stroke-width="5.66792" stroke-miterlimit="10" stroke-linecap="round" stroke-linejoin="round"/>
<path opacity="0.31" d="M317.375 269.275C318.933 272.605 322.827 274.093 326.226 272.534C329.554 270.975 331.041 267.078 329.483 263.678" stroke="#FF6701" stroke-width="5.66792" stroke-miterlimit="10" stroke-linecap="round" stroke-linejoin="round"/>
<path d="M206.636 300.448C206.636 306.4 201.821 311.217 195.873 311.217C189.925 311.217 185.109 306.4 185.109 300.448" stroke="#3F3D56" stroke-width="5.66792" stroke-miterlimit="10" stroke-linecap="round" stroke-linejoin="round"/>
<path d="M239.558 300.448C239.558 306.4 234.743 311.217 228.795 311.217C222.846 311.217 218.031 306.4 218.031 300.448" stroke="#3F3D56" stroke-width="5.66792" stroke-miterlimit="10" stroke-linecap="round" stroke-linejoin="round"/>
<path d="M272.488 300.448C272.488 306.4 267.672 311.217 261.724 311.217C255.776 311.217 250.961 306.4 250.961 300.448" stroke="#3F3D56" stroke-width="5.66792" stroke-miterlimit="10" stroke-linecap="round" stroke-linejoin="round"/>
<path d="M185.856 112.257L195.641 127.354C202.961 115.247 216.257 107.101 231.42 107.101C248.899 107.101 263.838 117.863 270.112 133.034L279.523 115.546C268.917 100.3 251.363 90.3604 231.42 90.3604C213.045 90.3604 196.612 98.9548 185.856 112.257Z" fill="#FF6701"/>
<path opacity="0.46" d="M231.498 95.5913C250.471 95.5913 267.277 104.634 277.958 118.609L279.602 115.62C268.995 100.374 251.442 90.4346 231.498 90.4346C213.048 90.4346 196.616 98.9543 185.86 112.332L187.802 115.321C198.558 103.214 214.169 95.5913 231.498 95.5913Z" fill="#FF6701"/>
<path d="M185.856 112.257L195.641 127.354C202.961 115.247 216.257 107.101 231.42 107.101C248.899 107.101 263.838 117.863 270.112 133.034L279.523 115.546C268.917 100.3 251.363 90.3604 231.42 90.3604C213.045 90.3604 196.612 98.9548 185.856 112.257Z" stroke="#3F3D56" stroke-width="4.48406" stroke-miterlimit="10" stroke-linecap="round" stroke-linejoin="round"/>
<path d="M439.945 164.256C439.945 108.115 394.425 62.5703 338.313 62.5703C282.202 62.5703 236.681 108.115 236.681 164.256C236.681 220.398 282.202 265.943 338.313 265.943C394.425 265.943 439.945 220.398 439.945 164.256ZM260.001 164.256C260.001 120.953 295.033 85.9031 338.313 85.9031C381.593 85.9031 416.727 120.953 416.727 164.256C416.727 207.56 381.593 242.61 338.415 242.61C295.237 242.61 260.001 207.458 260.001 164.256Z" fill="#FF6701"/>
<g opacity="0.6">
<path opacity="0.6" d="M338.313 73.8787C393.101 73.8787 437.705 117.182 439.843 171.489C439.945 170.165 439.945 168.738 439.945 167.414C439.945 111.272 394.425 65.7275 338.313 65.7275C282.202 65.7275 236.681 111.272 236.681 167.414C236.681 168.738 236.681 170.165 236.783 171.489C238.921 117.182 283.627 73.8787 338.313 73.8787Z" fill="#FF6701"/>
<path opacity="0.6" d="M260.111 171.49C260.009 172.815 260.009 174.241 260.009 175.566C260.009 218.869 295.041 253.919 338.321 253.919C381.601 253.919 416.734 218.767 416.734 175.566C416.734 174.241 416.734 172.815 416.633 171.49C414.494 212.858 380.277 245.768 338.423 245.768C296.568 245.768 262.249 212.858 260.111 171.49Z" fill="#FF6701"/>
</g>
<path d="M439.945 167.415C439.945 111.273 394.425 65.7285 338.313 65.7285C282.202 65.7285 236.681 111.273 236.681 167.415C236.681 223.556 282.202 269.101 338.313 269.101C394.425 269.101 439.945 223.556 439.945 167.415ZM260.001 167.415C260.001 124.111 295.033 89.0613 338.313 89.0613C381.593 89.0613 416.727 124.111 416.727 167.415C416.727 210.718 381.593 245.768 338.415 245.768C295.237 245.768 260.001 210.616 260.001 167.415Z" stroke="#3F3D56" stroke-width="6.1134" stroke-miterlimit="10" stroke-linecap="round" stroke-linejoin="round"/>
<path d="M236.681 167.415C236.681 223.574 282.183 269.101 338.313 269.101C394.443 269.101 439.945 223.574 439.945 167.415C439.945 111.255 394.443 65.7285 338.313 65.7285C282.183 65.7285 236.681 111.255 236.681 167.415Z" stroke="#3F3D56" stroke-width="6.1134" stroke-miterlimit="10" stroke-linecap="round" stroke-linejoin="round"/>
<path opacity="0.81" d="M259.986 167.414C259.986 210.687 295.047 245.767 338.298 245.767C381.548 245.767 416.609 210.687 416.609 167.414C416.609 124.141 381.548 89.0605 338.298 89.0605C295.047 89.0605 259.986 124.141 259.986 167.414Z" fill="#A4ECFF" fill-opacity="0.6"/>
<path d="M259.986 167.414C259.986 210.687 295.047 245.767 338.298 245.767C381.548 245.767 416.609 210.687 416.609 167.414C416.609 124.141 381.548 89.0605 338.298 89.0605C295.047 89.0605 259.986 124.141 259.986 167.414Z" stroke="#3F3D56" stroke-width="6.1134" stroke-miterlimit="10" stroke-linecap="round" stroke-linejoin="round"/>
<g opacity="0.71">
<path opacity="0.71" d="M362.364 132.093C344.886 132 331.988 135.179 332.082 129.101C331.988 123.303 344.886 110.398 362.364 110.585C379.842 110.492 392.74 123.303 392.646 129.101C392.833 135.179 379.935 131.906 362.364 132.093Z" fill="white"/>
</g>
<path d="M222.789 165.519C222.789 109.378 177.268 63.833 121.157 63.833C65.0453 63.833 19.5247 109.378 19.5247 165.519C19.5247 221.66 65.0453 267.205 121.157 267.205C177.268 267.205 222.789 221.66 222.789 165.519ZM42.8451 165.519C42.8451 122.216 77.8766 87.1658 121.157 87.1658C164.437 87.1658 199.57 122.216 199.57 165.519C199.57 208.822 164.437 243.873 121.259 243.873C78.0803 243.873 42.8451 208.72 42.8451 165.519Z" fill="#FF6701"/>
<g opacity="0.6">
<path opacity="0.6" d="M121.165 75.1424C175.952 75.1424 220.556 118.446 222.695 172.753C222.797 171.428 222.797 170.002 222.797 168.677C222.797 112.536 177.276 66.9912 121.165 66.9912C65.0531 66.9912 19.5325 112.536 19.5325 168.677C19.5325 170.002 19.5325 171.428 19.6343 172.753C21.7729 118.446 66.4788 75.1424 121.165 75.1424Z" fill="#FF6701"/>
<path opacity="0.6" d="M42.9624 172.754C42.8606 174.078 42.8606 175.505 42.8606 176.83C42.8606 220.133 77.8921 255.183 121.172 255.183C164.453 255.183 199.586 220.031 199.586 176.83C199.586 175.505 199.586 174.078 199.484 172.754C197.346 214.121 163.129 247.032 121.274 247.032C79.4196 247.032 45.101 214.121 42.9624 172.754Z" fill="#FF6701"/>
</g>
<path d="M222.789 168.677C222.789 112.536 177.268 66.9912 121.157 66.9912C65.0453 66.9912 19.5247 112.536 19.5247 168.677C19.5247 224.819 65.0453 270.363 121.157 270.363C177.268 270.363 222.789 224.819 222.789 168.677ZM42.8451 168.677C42.8451 125.374 77.8766 90.324 121.157 90.324C164.437 90.324 199.57 125.374 199.57 168.677C199.57 211.981 164.437 247.031 121.259 247.031C78.0803 247.031 42.8451 211.879 42.8451 168.677Z" stroke="#3F3D56" stroke-width="6.1134" stroke-miterlimit="10" stroke-linecap="round" stroke-linejoin="round"/>
<path d="M19.5247 168.677C19.5247 224.837 65.027 270.363 121.157 270.363C177.287 270.363 222.789 224.837 222.789 168.677C222.789 112.518 177.287 66.9912 121.157 66.9912C65.027 66.9912 19.5247 112.518 19.5247 168.677Z" stroke="#3F3D56" stroke-width="6.1134" stroke-miterlimit="10" stroke-linecap="round" stroke-linejoin="round"/>
<path opacity="0.81" d="M42.8296 168.678C42.8296 211.951 77.891 247.031 121.141 247.031C164.392 247.031 199.453 211.951 199.453 168.678C199.453 125.404 164.392 90.3242 121.141 90.3242C77.891 90.3242 42.8296 125.404 42.8296 168.678Z" fill="#A4ECFF" fill-opacity="0.6"/>
<path d="M42.8296 168.678C42.8296 211.951 77.891 247.031 121.141 247.031C164.392 247.031 199.453 211.951 199.453 168.678C199.453 125.404 164.392 90.3242 121.141 90.3242C77.891 90.3242 42.8296 125.404 42.8296 168.678Z" stroke="#3F3D56" stroke-width="6.1134" stroke-miterlimit="10" stroke-linecap="round" stroke-linejoin="round"/>
<g opacity="0.71">
<path opacity="0.71" d="M97.4735 132.08C79.9958 131.987 67.0977 135.166 67.1912 129.088C67.0977 123.29 79.9958 110.385 97.4735 110.572C114.951 110.479 127.849 123.29 127.756 129.088C127.943 135.166 115.045 131.893 97.4735 132.08Z" fill="white"/>
</g>
<path d="M17.5003 159.691V157.286H15.0953H10.772C6.25596 157.286 2.59501 160.947 2.59501 165.463V173.159C2.59501 177.675 6.25596 181.336 10.772 181.336H15.0953H17.5003V178.931V159.691Z" fill="#FF6701" stroke="#3F3D56" stroke-width="4.80998"/>
<path d="M442.57 178.932V181.337H444.975H449.298C453.814 181.337 457.475 177.676 457.475 173.16V165.464C457.475 160.948 453.814 157.287 449.298 157.287H444.975H442.57V159.692V178.932Z" fill="#FF6701" stroke="#3F3D56" stroke-width="4.80998"/>
<line x1="123.996" y1="353.736" x2="332.304" y2="353.736" stroke="#3F3D56" stroke-width="12.6319" stroke-linecap="round"/>
</svg>
