<svg width="520" height="520" viewBox="0 0 520 520" fill="none" xmlns="http://www.w3.org/2000/svg">
<path d="M466.2 260.163C466.2 374.868 373.263 467.853 258.621 467.853C143.98 467.853 51.0428 374.868 51.0428 260.163C51.0428 145.457 143.98 52.4725 258.621 52.4725C373.263 52.4725 466.2 145.457 466.2 260.163Z" fill="#FCECDD" stroke="#3F3D56" stroke-width="4.945"/>
<path d="M260.075 398.801C349.241 398.801 421.525 333.521 421.525 252.994C421.525 172.467 349.241 107.187 260.075 107.187C170.909 107.187 98.625 172.467 98.625 252.994C98.625 333.521 170.909 398.801 260.075 398.801Z" fill="#FFAA72"/>
<path d="M260.075 398.801C349.241 398.801 421.525 333.521 421.525 252.994C421.525 172.467 349.241 107.187 260.075 107.187C170.909 107.187 98.625 172.467 98.625 252.994C98.625 333.521 170.909 398.801 260.075 398.801Z" fill="#FFAA72"/>
<path d="M264.324 395.967C301.217 395.967 335.206 385.127 362.398 366.919L354.962 349.419C339.384 312.649 302.42 288.631 261.421 288.631C220.421 288.631 183.457 312.649 167.879 349.419L161.789 363.873C189.618 383.923 225.378 395.967 264.324 395.967Z" fill="#FFCCAA"/>
<path d="M259.991 240.808L229.117 286.151L252.414 317.183C256.238 322.284 263.956 322.284 267.78 317.183L290.865 286.151L259.991 240.808Z" fill="#F76300" fill-opacity="0.37"/>
<path d="M260.075 381.798C174.039 381.798 103.794 321.08 98.9083 244.492C98.6958 247.326 98.625 250.16 98.625 252.994C98.625 333.479 170.923 398.801 260.075 398.801C349.226 398.801 421.525 333.549 421.525 252.994C421.525 250.16 421.454 247.326 421.242 244.492C416.356 321.08 346.04 381.798 260.075 381.798Z" fill="#F76300" fill-opacity="0.37"/>
<path d="M356.937 352.608C329.958 370.887 296.393 381.798 260.067 381.798C224.661 381.798 191.946 371.525 165.392 354.096L161.852 362.811C189.751 383.499 225.44 395.968 264.386 395.968C299.58 395.968 332.153 385.766 358.707 368.479C359.982 367.628 361.186 366.707 362.46 365.786L356.937 352.608Z" fill="#F76300" fill-opacity="0.37"/>
<path d="M94.6484 253.489C99.1804 262.77 105.27 271.413 112.918 279.136C149.952 316.19 210.071 316.19 247.105 279.136C278.121 248.104 283.148 200.99 262.33 164.715" fill="#F76300" fill-opacity="0.37"/>
<path d="M420.952 264.543C403.957 290.12 374.924 306.911 341.926 306.911C289.526 306.911 247.039 264.402 247.039 211.973C247.039 188.593 255.466 167.197 269.486 150.618" fill="#F76300" fill-opacity="0.37"/>
<path d="M260.075 398.801C349.241 398.801 421.525 333.521 421.525 252.994C421.525 172.467 349.241 107.187 260.075 107.187C170.909 107.187 98.625 172.467 98.625 252.994C98.625 333.521 170.909 398.801 260.075 398.801Z" stroke="#3F3D56" stroke-width="11.3358" stroke-miterlimit="10" stroke-linecap="round" stroke-linejoin="round"/>
<path d="M259.991 220.971L229.117 266.314L260.133 307.619L290.936 266.314L259.991 220.971Z" fill="#3F3D56"/>
<path d="M259.991 220.971L229.117 266.314L260.133 307.619L290.936 266.314L259.991 220.971Z" stroke="#3F3D56" stroke-width="11.3358" stroke-miterlimit="10" stroke-linecap="round" stroke-linejoin="round"/>
<path d="M330.107 122.915C308.864 112.996 284.717 107.399 259.296 107.399C233.874 107.399 209.728 112.996 188.484 122.915V222.175H330.107V122.915Z" fill="#3F3D56"/>
<path d="M345.461 122.566L427.261 120.081C415.447 149.671 413.866 194.17 424.176 242.809C411.082 270.517 383.238 290.169 350.503 291.148C303.996 292.578 265.09 255.986 263.736 209.379C262.306 162.848 298.879 123.996 345.461 122.566Z" fill="#3F3D56"/>
<path d="M345.461 122.566L427.261 120.081C415.447 149.671 413.866 194.17 424.176 242.809C411.082 270.517 383.238 290.169 350.503 291.148C303.996 292.578 265.09 255.986 263.736 209.379C262.306 162.848 298.879 123.996 345.461 122.566Z" stroke="#3F3D56" stroke-width="12.0469" stroke-miterlimit="10" stroke-linecap="round" stroke-linejoin="round"/>
<path d="M348.393 291.074C394.942 291.074 432.677 253.319 432.677 206.746C432.677 160.172 394.942 122.417 348.393 122.417C301.845 122.417 264.109 160.172 264.109 206.746C264.109 253.319 301.845 291.074 348.393 291.074Z" fill="#F7E8AD"/>
<path d="M348.393 291.074C394.942 291.074 432.677 253.319 432.677 206.746C432.677 160.172 394.942 122.417 348.393 122.417C301.845 122.417 264.109 160.172 264.109 206.746C264.109 253.319 301.845 291.074 348.393 291.074Z" fill="#F7E8AD"/>
<path d="M408 147.113C391.82 130.925 370.599 122.718 349.377 122.417C365.331 125.504 380.608 133.184 392.949 145.607C425.835 178.511 425.835 231.894 392.949 264.872C376.243 281.587 354.269 289.794 332.445 289.568C359.01 294.688 387.456 286.933 408 266.378C440.886 233.399 440.886 180.016 408 147.113Z" fill="#F7D6A1"/>
<path opacity="0.7" d="M373.318 251.787C398.004 227.088 397.861 186.9 372.999 162.025C348.137 137.149 307.97 137.006 283.284 161.705C258.598 186.404 258.741 226.592 283.603 251.468C308.465 276.343 348.632 276.486 373.318 251.787Z" fill="white"/>
<path d="M419.136 166.764C416.803 163.752 412.288 155.47 409.503 152.684C376.392 120.007 323.037 120.308 290.377 153.512C283.905 160.063 278.713 167.441 274.875 175.347C321.306 159.009 372.178 162.924 419.136 166.764Z" fill="#EFCA92"/>
<path d="M348.393 291.074C394.942 291.074 432.677 253.319 432.677 206.746C432.677 160.172 394.942 122.417 348.393 122.417C301.845 122.417 264.109 160.172 264.109 206.746C264.109 253.319 301.845 291.074 348.393 291.074Z" stroke="#3F3D56" stroke-width="12.0469" stroke-miterlimit="10" stroke-linecap="round" stroke-linejoin="round"/>
<path d="M348.393 291.074C394.942 291.074 432.677 253.319 432.677 206.746C432.677 160.172 394.942 122.417 348.393 122.417C301.845 122.417 264.109 160.172 264.109 206.746C264.109 253.319 301.845 291.074 348.393 291.074Z" stroke="#3F3D56" stroke-width="12.0469" stroke-miterlimit="10" stroke-linecap="round" stroke-linejoin="round"/>
<path d="M415.595 155.846C413.262 152.834 410.779 149.898 407.995 147.112C375.109 114.209 321.754 114.209 288.793 147.112C282.246 153.662 277.054 160.966 273.141 168.796C319.798 152.834 368.637 151.63 415.595 155.846Z" fill="#3F3D56"/>
<path d="M335.919 244.779C353.375 244.779 367.526 230.62 367.526 213.155C367.526 195.69 353.375 181.532 335.919 181.532C318.463 181.532 304.312 195.69 304.312 213.155C304.312 230.62 318.463 244.779 335.919 244.779Z" fill="#3F3D56"/>
<path d="M317.996 223.922C323.815 223.922 328.532 219.203 328.532 213.381C328.532 207.559 323.815 202.84 317.996 202.84C312.178 202.84 307.461 207.559 307.461 213.381C307.461 219.203 312.178 223.922 317.996 223.922Z" fill="white"/>
<path d="M174.791 124.255L93.7109 121.795C105.411 151.098 106.976 195.164 96.7664 243.331C109.733 270.769 137.306 290.23 169.724 291.199C215.778 292.616 254.306 256.379 255.648 210.225C257.064 164.146 220.846 125.672 174.791 124.255Z" fill="#3F3D56"/>
<path d="M174.791 124.255L93.7109 121.795C105.411 151.098 106.976 195.164 96.7664 243.331C109.733 270.769 137.306 290.23 169.724 291.199C215.778 292.616 254.306 256.379 255.648 210.225C257.064 164.146 220.846 125.672 174.791 124.255Z" stroke="#3F3D56" stroke-width="11.9299" stroke-miterlimit="10" stroke-linecap="round" stroke-linejoin="round"/>
<path d="M171.809 291.126C217.905 291.126 255.273 253.737 255.273 207.617C255.273 161.496 217.905 124.107 171.809 124.107C125.712 124.107 88.3438 161.496 88.3438 207.617C88.3438 253.737 125.712 291.126 171.809 291.126Z" fill="#F7E8AD"/>
<path d="M171.809 291.126C217.905 291.126 255.273 253.737 255.273 207.617C255.273 161.496 217.905 124.107 171.809 124.107C125.712 124.107 88.3438 161.496 88.3438 207.617C88.3438 253.737 125.712 291.126 171.809 291.126Z" fill="#F7E8AD"/>
<path d="M112.784 148.564C128.806 132.533 149.822 124.406 170.837 124.107C155.038 127.164 139.91 134.77 127.689 147.072C95.1223 179.656 95.1223 232.52 127.689 265.178C144.233 281.731 165.993 289.858 187.605 289.635C161.298 294.705 133.129 287.025 112.784 266.67C80.2178 234.011 80.2178 181.147 112.784 148.564Z" fill="#F7D6A1"/>
<path opacity="0.7" d="M235.974 251.919C260.595 227.285 260.736 187.488 236.29 163.029C211.844 138.569 172.068 138.711 147.447 163.345C122.826 187.979 122.685 227.776 147.131 252.235C171.577 276.694 211.353 276.553 235.974 251.919Z" fill="white"/>
<path opacity="0.89" d="M101.836 168.024C104.146 165.041 108.617 156.84 111.375 154.081C144.165 121.721 197.001 122.019 229.343 154.901C235.752 161.388 240.894 168.695 244.695 176.524C198.64 160.344 148.263 164.221 101.836 168.024Z" fill="#EFCA92"/>
<path d="M171.809 291.126C217.905 291.126 255.273 253.737 255.273 207.617C255.273 161.496 217.905 124.107 171.809 124.107C125.712 124.107 88.3438 161.496 88.3438 207.617C88.3438 253.737 125.712 291.126 171.809 291.126Z" stroke="#3F3D56" stroke-width="11.9299" stroke-miterlimit="10" stroke-linecap="round" stroke-linejoin="round"/>
<path d="M171.809 291.126C217.905 291.126 255.273 253.737 255.273 207.617C255.273 161.496 217.905 124.107 171.809 124.107C125.712 124.107 88.3438 161.496 88.3438 207.617C88.3438 253.737 125.712 291.126 171.809 291.126Z" stroke="#3F3D56" stroke-width="11.9299" stroke-miterlimit="10" stroke-linecap="round" stroke-linejoin="round"/>
<path d="M105.336 157.212C107.646 154.229 110.105 151.321 112.863 148.563C145.429 115.979 198.265 115.979 230.906 148.563C237.389 155.05 242.531 162.282 246.406 170.036C200.203 154.229 151.763 153.036 105.336 157.212Z" fill="#3F3D56"/>
<path d="M183.643 245.28C200.929 245.28 214.943 231.26 214.943 213.964C214.943 196.669 200.929 182.648 183.643 182.648C166.357 182.648 152.344 196.669 152.344 213.964C152.344 231.26 166.357 245.28 183.643 245.28Z" fill="#3F3D56"/>
<path d="M201.378 224.627C207.141 224.627 211.812 219.954 211.812 214.189C211.812 208.424 207.141 203.75 201.378 203.75C195.616 203.75 190.945 208.424 190.945 214.189C190.945 219.954 195.616 224.627 201.378 224.627Z" fill="white"/>
<path d="M221.9 416.512C215.669 416.512 210.57 411.411 210.57 405.177V392.424C210.57 386.189 215.669 381.088 221.9 381.088C228.132 381.088 233.23 386.189 233.23 392.424V405.177C233.23 411.411 228.202 416.512 221.9 416.512Z" fill="#3F3D56"/>
<path d="M199.244 416.512C193.012 416.512 187.914 411.411 187.914 405.177V392.424C187.914 386.189 193.012 381.088 199.244 381.088C205.475 381.088 210.574 386.189 210.574 392.424V405.177C210.574 411.411 205.546 416.512 199.244 416.512Z" fill="#3F3D56"/>
<path d="M244.424 416.512C238.192 416.512 233.094 411.411 233.094 405.177V392.424C233.094 386.189 238.192 381.088 244.424 381.088C250.655 381.088 255.753 386.189 255.753 392.424V405.177C255.753 411.411 250.655 416.512 244.424 416.512Z" fill="#3F3D56"/>
<path d="M274.306 416.512C268.075 416.512 262.977 411.411 262.977 405.177V392.424C262.977 386.189 268.075 381.088 274.306 381.088C280.538 381.088 285.636 386.189 285.636 392.424V405.177C285.636 411.411 280.538 416.512 274.306 416.512Z" fill="#3F3D56"/>
<path d="M296.814 416.512C290.583 416.512 285.484 411.411 285.484 405.177V392.424C285.484 386.189 290.583 381.088 296.814 381.088C303.046 381.088 308.144 386.189 308.144 392.424V405.177C308.144 411.411 303.046 416.512 296.814 416.512Z" fill="#3F3D56"/>
<path d="M319.478 416.512C313.247 416.512 308.148 411.411 308.148 405.177V392.424C308.148 386.189 313.247 381.088 319.478 381.088C325.71 381.088 330.808 386.189 330.808 392.424V405.177C330.808 411.411 325.71 416.512 319.478 416.512Z" fill="#3F3D56"/>
<path d="M253.058 323.914C253.058 329.865 248.243 334.683 242.295 334.683C236.346 334.683 231.531 329.865 231.531 323.914" stroke="#3F3D56" stroke-width="5.66792" stroke-miterlimit="10" stroke-linecap="round" stroke-linejoin="round"/>
<path d="M285.988 323.914C285.988 329.865 281.172 334.683 275.224 334.683C269.276 334.683 264.461 329.865 264.461 323.914" stroke="#3F3D56" stroke-width="5.66792" stroke-miterlimit="10" stroke-linecap="round" stroke-linejoin="round"/>
<path opacity="0.31" d="M133.45 296.424C131.893 299.754 127.998 301.242 124.599 299.683C121.2 298.125 119.784 294.228 121.342 290.827" stroke="#FF6701" stroke-width="5.66792" stroke-miterlimit="10" stroke-linecap="round" stroke-linejoin="round"/>
<path opacity="0.31" d="M154.556 307.405C152.998 310.735 149.104 312.222 145.705 310.664C142.377 309.105 140.89 305.208 142.448 301.808" stroke="#FF6701" stroke-width="5.66792" stroke-miterlimit="10" stroke-linecap="round" stroke-linejoin="round"/>
<path opacity="0.31" d="M142.306 315.836C140.748 319.166 136.854 320.654 133.455 319.095C130.127 317.537 128.64 313.64 130.198 310.239" stroke="#FF6701" stroke-width="5.66792" stroke-miterlimit="10" stroke-linecap="round" stroke-linejoin="round"/>
<path opacity="0.31" d="M160.853 329.936C159.295 333.266 155.401 334.754 152.002 333.195C148.674 331.636 147.187 327.74 148.745 324.339" stroke="#FF6701" stroke-width="5.66792" stroke-miterlimit="10" stroke-linecap="round" stroke-linejoin="round"/>
<path opacity="0.31" d="M175.017 317.183C173.459 320.513 169.565 322.001 166.166 320.442C162.838 318.883 161.351 314.987 162.909 311.586" stroke="#FF6701" stroke-width="5.66792" stroke-miterlimit="10" stroke-linecap="round" stroke-linejoin="round"/>
<path opacity="0.31" d="M388.875 297.841C390.433 301.171 394.327 302.659 397.726 301.1C401.125 299.542 402.541 295.645 400.983 292.244" stroke="#FF6701" stroke-width="5.66792" stroke-miterlimit="10" stroke-linecap="round" stroke-linejoin="round"/>
<path opacity="0.31" d="M367.844 308.822C369.402 312.152 373.296 313.639 376.695 312.081C380.023 310.522 381.51 306.625 379.952 303.225" stroke="#FF6701" stroke-width="5.66792" stroke-miterlimit="10" stroke-linecap="round" stroke-linejoin="round"/>
<path opacity="0.31" d="M380.031 317.253C381.589 320.583 385.484 322.071 388.882 320.512C392.21 318.954 393.697 315.057 392.14 311.656" stroke="#FF6701" stroke-width="5.66792" stroke-miterlimit="10" stroke-linecap="round" stroke-linejoin="round"/>
<path opacity="0.31" d="M361.539 331.353C363.097 334.683 366.991 336.171 370.39 334.612C373.718 333.053 375.205 329.157 373.648 325.756" stroke="#FF6701" stroke-width="5.66792" stroke-miterlimit="10" stroke-linecap="round" stroke-linejoin="round"/>
<path opacity="0.31" d="M347.375 318.6C348.933 321.93 352.827 323.418 356.226 321.859C359.554 320.3 361.041 316.404 359.483 313.003" stroke="#FF6701" stroke-width="5.66792" stroke-miterlimit="10" stroke-linecap="round" stroke-linejoin="round"/>
<path d="M236.636 349.773C236.636 355.725 231.821 360.542 225.873 360.542C219.925 360.542 215.109 355.725 215.109 349.773" stroke="#3F3D56" stroke-width="5.66792" stroke-miterlimit="10" stroke-linecap="round" stroke-linejoin="round"/>
<path d="M269.558 349.773C269.558 355.725 264.743 360.542 258.795 360.542C252.846 360.542 248.031 355.725 248.031 349.773" stroke="#3F3D56" stroke-width="5.66792" stroke-miterlimit="10" stroke-linecap="round" stroke-linejoin="round"/>
<path d="M302.488 349.773C302.488 355.725 297.672 360.542 291.724 360.542C285.776 360.542 280.961 355.725 280.961 349.773" stroke="#3F3D56" stroke-width="5.66792" stroke-miterlimit="10" stroke-linecap="round" stroke-linejoin="round"/>
<path d="M215.856 161.583L225.641 176.679C232.961 164.572 246.257 156.426 261.42 156.426C278.899 156.426 293.838 167.188 300.112 182.359L309.523 164.871C298.917 149.625 281.363 139.686 261.42 139.686C243.045 139.686 226.612 148.28 215.856 161.583Z" fill="#FF6701"/>
<path opacity="0.46" d="M261.498 144.916C280.471 144.916 297.277 153.959 307.958 167.935L309.602 164.945C298.995 149.699 281.442 139.76 261.498 139.76C243.048 139.76 226.616 148.279 215.86 161.657L217.802 164.646C228.558 152.539 244.169 144.916 261.498 144.916Z" fill="#FF6701"/>
<path d="M215.856 161.583L225.641 176.679C232.961 164.572 246.257 156.426 261.42 156.426C278.899 156.426 293.838 167.188 300.112 182.359L309.523 164.871C298.917 149.625 281.363 139.686 261.42 139.686C243.045 139.686 226.612 148.28 215.856 161.583Z" stroke="#3F3D56" stroke-width="4.48406" stroke-miterlimit="10" stroke-linecap="round" stroke-linejoin="round"/>
<path d="M469.945 213.582C469.945 157.44 424.425 111.896 368.313 111.896C312.202 111.896 266.681 157.44 266.681 213.582C266.681 269.723 312.202 315.268 368.313 315.268C424.425 315.268 469.945 269.723 469.945 213.582ZM290.001 213.582C290.001 170.278 325.033 135.228 368.313 135.228C411.593 135.228 446.727 170.278 446.727 213.582C446.727 256.885 411.593 291.935 368.415 291.935C325.237 291.935 290.001 256.783 290.001 213.582Z" fill="#FF6701"/>
<g opacity="0.6">
<path opacity="0.6" d="M368.313 123.204C423.101 123.204 467.705 166.507 469.843 220.814C469.945 219.49 469.945 218.063 469.945 216.739C469.945 160.598 424.425 115.053 368.313 115.053C312.202 115.053 266.681 160.598 266.681 216.739C266.681 218.063 266.681 219.49 266.783 220.814C268.921 166.507 313.627 123.204 368.313 123.204Z" fill="#FF6701"/>
<path opacity="0.6" d="M290.111 220.815C290.009 222.14 290.009 223.566 290.009 224.891C290.009 268.194 325.041 303.244 368.321 303.244C411.601 303.244 446.734 268.092 446.734 224.891C446.734 223.566 446.734 222.14 446.633 220.815C444.494 262.183 410.277 295.093 368.423 295.093C326.568 295.093 292.249 262.183 290.111 220.815Z" fill="#FF6701"/>
</g>
<path d="M469.945 216.74C469.945 160.598 424.425 115.054 368.313 115.054C312.202 115.054 266.681 160.598 266.681 216.74C266.681 272.881 312.202 318.426 368.313 318.426C424.425 318.426 469.945 272.881 469.945 216.74ZM290.001 216.74C290.001 173.437 325.033 138.386 368.313 138.386C411.593 138.386 446.727 173.437 446.727 216.74C446.727 260.043 411.593 295.093 368.415 295.093C325.237 295.093 290.001 259.941 290.001 216.74Z" stroke="#3F3D56" stroke-width="6.1134" stroke-miterlimit="10" stroke-linecap="round" stroke-linejoin="round"/>
<path d="M266.681 216.74C266.681 272.9 312.183 318.426 368.313 318.426C424.443 318.426 469.945 272.9 469.945 216.74C469.945 160.58 424.443 115.054 368.313 115.054C312.183 115.054 266.681 160.58 266.681 216.74Z" stroke="#3F3D56" stroke-width="6.1134" stroke-miterlimit="10" stroke-linecap="round" stroke-linejoin="round"/>
<path opacity="0.81" d="M289.986 216.739C289.986 260.012 325.047 295.092 368.298 295.092C411.548 295.092 446.609 260.012 446.609 216.739C446.609 173.466 411.548 138.386 368.298 138.386C325.047 138.386 289.986 173.466 289.986 216.739Z" fill="#A4ECFF" fill-opacity="0.6"/>
<path d="M289.986 216.739C289.986 260.012 325.047 295.092 368.298 295.092C411.548 295.092 446.609 260.012 446.609 216.739C446.609 173.466 411.548 138.386 368.298 138.386C325.047 138.386 289.986 173.466 289.986 216.739Z" stroke="#3F3D56" stroke-width="6.1134" stroke-miterlimit="10" stroke-linecap="round" stroke-linejoin="round"/>
<g opacity="0.71">
<path opacity="0.71" d="M392.364 181.418C374.886 181.325 361.988 184.504 362.082 178.426C361.988 172.628 374.886 159.723 392.364 159.91C409.842 159.817 422.74 172.628 422.646 178.426C422.833 184.504 409.935 181.231 392.364 181.418Z" fill="white"/>
</g>
<path d="M252.789 214.844C252.789 158.703 207.268 113.158 151.157 113.158C95.0453 113.158 49.5247 158.703 49.5247 214.844C49.5247 270.986 95.0453 316.53 151.157 316.53C207.268 316.53 252.789 270.986 252.789 214.844ZM72.8451 214.844C72.8451 171.541 107.877 136.491 151.157 136.491C194.437 136.491 229.57 171.541 229.57 214.844C229.57 258.148 194.437 293.198 151.259 293.198C108.08 293.198 72.8451 258.046 72.8451 214.844Z" fill="#FF6701"/>
<g opacity="0.6">
<path opacity="0.6" d="M151.165 124.468C205.952 124.468 250.556 167.771 252.695 222.078C252.797 220.754 252.797 219.327 252.797 218.003C252.797 161.861 207.276 116.316 151.165 116.316C95.0531 116.316 49.5325 161.861 49.5325 218.003C49.5325 219.327 49.5325 220.754 49.6343 222.078C51.7729 167.771 96.4788 124.468 151.165 124.468Z" fill="#FF6701"/>
<path opacity="0.6" d="M72.9624 222.079C72.8606 223.404 72.8606 224.83 72.8606 226.155C72.8606 269.458 107.892 304.508 151.172 304.508C194.453 304.508 229.586 269.356 229.586 226.155C229.586 224.83 229.586 223.404 229.484 222.079C227.346 263.446 193.129 296.357 151.274 296.357C109.42 296.357 75.101 263.446 72.9624 222.079Z" fill="#FF6701"/>
</g>
<path d="M252.789 218.003C252.789 161.861 207.268 116.316 151.157 116.316C95.0453 116.316 49.5247 161.861 49.5247 218.003C49.5247 274.144 95.0453 319.689 151.157 319.689C207.268 319.689 252.789 274.144 252.789 218.003ZM72.8451 218.003C72.8451 174.699 107.877 139.649 151.157 139.649C194.437 139.649 229.57 174.699 229.57 218.003C229.57 261.306 194.437 296.356 151.259 296.356C108.08 296.356 72.8451 261.204 72.8451 218.003Z" stroke="#3F3D56" stroke-width="6.1134" stroke-miterlimit="10" stroke-linecap="round" stroke-linejoin="round"/>
<path d="M49.5247 218.003C49.5247 274.162 95.027 319.689 151.157 319.689C207.287 319.689 252.789 274.162 252.789 218.003C252.789 161.843 207.287 116.316 151.157 116.316C95.027 116.316 49.5247 161.843 49.5247 218.003Z" stroke="#3F3D56" stroke-width="6.1134" stroke-miterlimit="10" stroke-linecap="round" stroke-linejoin="round"/>
<path opacity="0.81" d="M72.8296 218.003C72.8296 261.276 107.891 296.356 151.141 296.356C194.392 296.356 229.453 261.276 229.453 218.003C229.453 174.729 194.392 139.649 151.141 139.649C107.891 139.649 72.8296 174.729 72.8296 218.003Z" fill="#A4ECFF" fill-opacity="0.6"/>
<path d="M72.8296 218.003C72.8296 261.276 107.891 296.356 151.141 296.356C194.392 296.356 229.453 261.276 229.453 218.003C229.453 174.729 194.392 139.649 151.141 139.649C107.891 139.649 72.8296 174.729 72.8296 218.003Z" stroke="#3F3D56" stroke-width="6.1134" stroke-miterlimit="10" stroke-linecap="round" stroke-linejoin="round"/>
<g opacity="0.71">
<path opacity="0.71" d="M127.474 181.406C109.996 181.312 97.0977 184.491 97.1912 178.413C97.0977 172.615 109.996 159.71 127.474 159.898C144.951 159.804 157.849 172.615 157.756 178.413C157.943 184.491 145.045 181.219 127.474 181.406Z" fill="white"/>
</g>
<path d="M47.5003 209.017V206.612H45.0953H40.772C36.256 206.612 32.595 210.273 32.595 214.789V222.485C32.595 227.001 36.256 230.661 40.772 230.661H45.0953H47.5003V228.257V209.017Z" fill="#FF6701" stroke="#3F3D56" stroke-width="4.80998"/>
<path d="M472.57 228.257V230.662H474.975H479.298C483.814 230.662 487.475 227.001 487.475 222.485V214.789C487.475 210.273 483.814 206.612 479.298 206.612H474.975H472.57V209.017V228.257Z" fill="#FF6701" stroke="#3F3D56" stroke-width="4.80998"/>
<line x1="153.996" y1="403.061" x2="362.304" y2="403.061" stroke="#3F3D56" stroke-width="12.6319" stroke-linecap="round"/>
</svg>
