<svg width="782" height="548" viewBox="0 0 782 548" fill="none" xmlns="http://www.w3.org/2000/svg">
<rect width="782" height="548" fill="white"/>
<g clip-path="url(#clip0)">
<path d="M444.861 288.104C457.562 288.104 467.859 277.775 467.859 265.033C467.859 252.292 457.562 241.962 444.861 241.962C432.16 241.962 421.864 252.292 421.864 265.033C421.864 277.775 432.16 288.104 444.861 288.104Z" fill="#FFEE75"/>
<path d="M375.616 376.068C375.616 420.627 349.21 436.186 316.637 436.186C284.064 436.186 257.659 420.627 257.659 376.068C257.659 331.508 316.637 274.821 316.637 274.821C316.637 274.821 375.616 331.508 375.616 376.068Z" fill="#F2F2F2"/>
<path d="M314.489 429.369L315.092 392.077L340.23 345.941L315.187 386.227L315.459 369.459L332.784 336.08L315.53 365.021L316.019 334.863L334.571 308.289L316.096 330.121L316.401 274.821L314.483 348.028L314.641 345.008L295.779 316.044L314.338 350.805L312.581 384.487L312.529 383.593L290.784 353.113L312.463 386.751L312.243 390.963L312.204 391.027L312.222 391.372L307.763 476.825H313.72L314.435 432.687L336.06 399.131L314.489 429.369Z" fill="#3F3D56"/>
<path d="M550.391 352.69C550.391 407.127 518.132 426.135 478.339 426.135C438.545 426.135 406.286 407.127 406.286 352.69C406.286 298.253 478.339 229 478.339 229C478.339 229 550.391 298.253 550.391 352.69Z" fill="#F2F2F2"/>
<path d="M475.714 417.808L476.451 372.249L507.162 315.885L476.567 365.102L476.899 344.616L498.065 303.838L476.987 339.195L477.583 302.352L500.248 269.887L477.677 296.558L478.05 229L475.707 318.435L475.9 314.745L452.857 279.361L475.531 321.828L473.383 362.976L473.319 361.884L446.754 324.647L473.239 365.742L472.97 370.888L472.922 370.965L472.944 371.388L467.497 475.784H474.775L475.648 421.861L502.068 380.867L475.714 417.808Z" fill="#3F3D56"/>
<path d="M401.381 479.882C462.506 479.882 512.057 478.107 512.057 475.917C512.057 473.727 462.506 471.952 401.381 471.952C340.257 471.952 290.706 473.727 290.706 475.917C290.706 478.107 340.257 479.882 401.381 479.882Z" fill="#3F3D56"/>
<path d="M556.974 508C585.155 508 608 505.821 608 503.133C608 500.446 585.155 498.267 556.974 498.267C528.793 498.267 505.948 500.446 505.948 503.133C505.948 505.821 528.793 508 556.974 508Z" fill="#3F3D56"/>
<path d="M407.849 354.073H394.913V475.917H407.849V354.073Z" fill="#2F2E41"/>
<path d="M460.672 381.83H381.259V359.48H460.672L483.67 370.655L460.672 381.83Z" fill="#3F3D56"/>
<path opacity="0.1" d="M460.672 380.028H381.259V381.83H460.672L483.67 370.655L481.815 369.754L460.672 380.028Z" fill="black"/>
<path d="M342.45 411.39H421.864V389.04H342.45L319.453 400.215L342.45 411.39Z" fill="#3F3D56"/>
<path opacity="0.1" d="M321.307 399.314L319.453 400.215L342.45 411.39H421.864V409.588H342.45L321.307 399.314Z" fill="black"/>
<path d="M439.471 363.806H425.816V377.505H439.471V363.806Z" fill="#4D998C"/>
<path d="M370.838 407.064C374.608 407.064 377.665 403.998 377.665 400.215C377.665 396.432 374.608 393.366 370.838 393.366C367.067 393.366 364.01 396.432 364.01 400.215C364.01 403.998 367.067 407.064 370.838 407.064Z" fill="#4287FF"/>
<path d="M401.381 373.9C403.564 373.9 405.334 372.124 405.334 369.934C405.334 367.744 403.564 365.969 401.381 365.969C399.198 365.969 397.429 367.744 397.429 369.934C397.429 372.124 399.198 373.9 401.381 373.9Z" fill="#2F2E41"/>
<path d="M401.381 403.459C403.564 403.459 405.334 401.684 405.334 399.494C405.334 397.304 403.564 395.529 401.381 395.529C399.198 395.529 397.429 397.304 397.429 399.494C397.429 401.684 399.198 403.459 401.381 403.459Z" fill="#2F2E41"/>
<path d="M374.791 462.34C374.791 470.439 369.991 473.267 364.07 473.267C363.933 473.267 363.796 473.266 363.659 473.263C363.385 473.257 363.113 473.244 362.845 473.225C357.501 472.846 353.35 469.872 353.35 462.34C353.35 454.544 363.28 444.707 364.026 443.979L364.027 443.978C364.056 443.95 364.07 443.936 364.07 443.936C364.07 443.936 374.791 454.24 374.791 462.34Z" fill="#4287FF"/>
<path d="M363.679 472.028L367.6 466.532L363.67 472.632L363.659 473.263C363.385 473.257 363.113 473.244 362.845 473.225L363.267 465.122L363.264 465.059L363.271 465.047L363.311 464.282L359.371 458.167L363.324 463.708L363.333 463.87L363.652 457.748L360.278 451.429L363.693 456.673L364.026 443.979L364.027 443.936V443.978L363.971 453.988L367.33 450.02L363.958 454.85L363.869 460.332L367.005 455.071L363.856 461.139L363.806 464.186L368.359 456.864L363.789 465.25L363.679 472.028Z" fill="#3F3D56"/>
<path d="M540.459 494.271C540.459 494.271 535.371 498.569 532.693 498.3C530.016 498.031 524.928 498.031 527.07 500.986C529.212 503.941 538.049 505.553 541.798 505.822C545.547 506.091 553.848 506.359 553.313 504.747C552.777 503.136 552.242 495.614 550.099 495.076C547.957 494.539 540.459 494.271 540.459 494.271Z" fill="#575A89"/>
<path d="M569.661 490.051C569.661 490.051 565.912 495.562 563.26 496.026C560.609 496.489 555.708 497.861 558.563 500.129C561.419 502.398 570.362 501.568 574.045 500.816C577.728 500.064 585.796 498.085 584.848 496.676C583.901 495.268 581.37 488.168 579.162 488.228C576.955 488.288 569.661 490.051 569.661 490.051Z" fill="#575A89"/>
<path d="M537.479 411.223C537.479 411.223 534.032 434.902 534.836 439.2C535.639 443.498 536.175 450.214 536.175 450.214C536.175 450.214 535.639 455.855 536.175 458.542C536.71 461.228 539.923 486.749 539.923 487.286C539.923 487.823 539.388 489.435 539.923 490.778C540.459 492.121 541.53 491.047 539.923 493.196C538.317 495.345 539.388 495.882 539.656 495.882C539.924 495.882 550.367 496.957 550.903 495.882C551.438 494.808 550.635 494.539 550.903 493.196C551.17 491.853 551.438 491.584 551.974 491.316C552.509 491.047 553.58 491.584 552.777 490.241C551.974 488.898 550.099 487.286 550.635 486.48C551.17 485.674 550.367 479.764 550.367 479.764C550.367 479.764 549.831 466.601 549.564 458.542C549.296 450.483 551.974 442.155 551.974 442.155C552.307 448.749 554.749 455.06 558.936 460.154C565.898 468.481 569.38 484.062 569.38 484.062C569.38 484.062 570.986 486.48 570.183 488.629C569.38 490.778 566.97 489.435 569.38 490.778C571.79 492.121 580.091 490.241 580.894 489.435C581.698 488.629 579.823 487.555 580.359 485.405C580.894 483.256 583.037 483.794 581.162 482.719C579.288 481.645 578.752 481.913 578.752 480.839C578.752 479.764 573.932 456.393 566.434 449.677L565.898 425.231C565.898 425.231 572.593 408.038 565.631 406.426C558.668 404.814 537.479 411.223 537.479 411.223Z" fill="#2F2E41"/>
<path d="M542.334 347.594C542.334 347.594 546.886 358.877 545.815 360.489C544.744 362.101 558.936 355.116 558.936 355.116C558.936 355.116 554.384 343.833 554.384 342.49C554.384 341.147 542.334 347.594 542.334 347.594Z" fill="#A0616A"/>
<path d="M545.681 350.415C551.153 350.415 555.589 345.965 555.589 340.475C555.589 334.986 551.153 330.536 545.681 330.536C540.209 330.536 535.773 334.986 535.773 340.475C535.773 345.965 540.209 350.415 545.681 350.415Z" fill="#A0616A"/>
<path d="M558.936 350.549C558.936 350.549 551.974 349.743 548.493 354.041C545.011 358.34 544.476 359.414 544.476 359.414C544.476 359.414 536.175 372.846 537.781 379.562C538.173 380.168 538.53 380.796 538.852 381.443C539.388 382.517 539.388 397.561 538.852 399.979C538.317 402.396 537.781 403.202 538.317 406.695C538.852 410.187 534.032 415.828 539.656 416.903C545.279 417.977 549.564 417.171 551.438 414.754C553.313 412.336 551.706 410.724 557.597 410.724C563.488 410.724 567.237 406.695 567.237 406.695C567.237 406.695 564.292 403.471 565.363 402.934C566.434 402.396 565.363 401.053 564.827 399.71C564.292 398.367 564.292 397.292 565.095 397.292C565.898 397.292 565.363 396.755 564.827 395.412C564.292 394.069 574.2 370.966 568.309 364.25C562.417 357.534 559.472 353.773 559.472 353.773C559.472 353.773 560.543 349.743 558.936 350.549Z" fill="#4287FF"/>
<path d="M543.673 376.07V387.89L535.103 416.365C535.103 416.365 529.48 431.141 535.103 431.141C540.727 431.141 540.426 417.038 540.426 417.038L552.509 395.68C552.509 395.68 557.329 378.756 556.794 377.413C556.258 376.07 543.673 376.07 543.673 376.07Z" fill="#A0616A"/>
<path d="M548.225 358.608C548.225 358.608 540.191 361.832 542.334 370.428C544.476 379.025 542.334 378.756 542.334 378.756C542.334 378.756 553.313 377.682 556.794 380.099L557.597 376.876C557.597 376.876 560.811 358.34 548.225 358.608Z" fill="#4287FF"/>
<path d="M542.298 333.013C541.679 333.233 541.016 333.296 540.368 333.195C539.72 333.093 539.107 332.832 538.584 332.434C537.575 331.599 537.147 330.06 537.74 328.891C538.253 327.881 539.35 327.328 540.402 326.915C542.721 326.004 545.165 325.451 547.65 325.273C548.834 325.188 550.078 325.202 551.135 325.745C551.659 326.013 552.113 326.401 552.631 326.679C553.583 327.191 554.692 327.304 555.721 327.634C556.774 327.978 557.741 328.546 558.557 329.298C559.373 330.05 560.018 330.969 560.448 331.993C560.728 332.688 560.924 333.415 561.031 334.157C561.339 336.189 561.123 338.266 560.406 340.19C559.264 343.239 556.87 345.905 556.735 349.159C555.27 348.092 554.726 346.167 553.552 344.785C552.679 343.763 551.485 343.069 550.168 342.816C549.803 342.793 549.452 342.665 549.159 342.447C548.954 342.202 548.826 341.902 548.79 341.584L547.788 336.835C547.583 335.869 547.326 334.815 546.534 334.228C546.041 333.911 545.481 333.714 544.9 333.65C543.517 333.408 542.117 333.28 540.713 333.267" fill="#2F2E41"/>
<path d="M271.889 473.594C271.889 473.594 277.53 489.707 275.112 495.602L282.365 501.891L286.797 496.388C286.797 496.388 281.962 491.672 282.365 488.135C282.768 484.598 283.171 472.022 283.171 472.022L271.889 473.594Z" fill="#FFB9B9"/>
<path d="M298.732 505.417C298.399 505.611 298.082 505.795 297.791 505.964H272.559C272.325 505.83 272.138 505.628 272.021 505.386C271.904 505.143 271.863 504.87 271.905 504.604C272.022 504.001 272.324 502.775 272.697 501.365C273.582 498.028 274.88 493.66 275.162 494.125C275.162 494.125 275.163 494.125 275.164 494.125C275.164 494.125 275.165 494.126 275.165 494.126C275.166 494.127 275.166 494.127 275.166 494.128C275.167 494.128 275.167 494.129 275.167 494.13C275.56 494.855 276.373 498.105 278.408 497.701C280.443 497.293 283.695 496.48 283.695 496.48C283.695 496.48 282.534 493.874 283.644 492.822C283.882 492.6 284.185 492.459 284.508 492.418C286.947 492.014 286.947 495.668 286.947 495.668L295.889 500.542C296.66 500.755 297.412 501.031 298.139 501.365C299.954 502.213 301.748 503.664 298.732 505.417Z" fill="#2F2E41"/>
<path d="M255.761 467.27L245.51 479.74L242.75 486.177L246.299 488.993L249.453 487.786C249.453 487.786 252.213 480.545 254.973 479.338C257.733 478.131 264.435 470.086 264.435 470.086L255.761 467.27Z" fill="#FFB9B9"/>
<path d="M277.31 457.854L272.127 467.748L268.413 474.832C267.225 475.561 265.642 475.549 263.937 475.118C263.143 474.909 262.364 474.641 261.607 474.317C256.956 472.357 252.237 468.464 252.237 468.464L261.166 456.977L264.082 453.229L264.774 452.336L268.108 453.805L273.991 456.393L277.31 457.854Z" fill="#2F2E41"/>
<path d="M253.814 373.594L249.527 390.749L253.94 412.758C253.94 412.758 254.049 421.755 258.093 421.073C262.137 420.39 257.899 411.316 257.899 411.316L255.921 393.269L262.245 375.44C262.482 374.711 262.45 373.924 262.154 373.216C261.859 372.507 261.318 371.922 260.627 371.562V371.562C258.122 370.07 254.564 371.131 253.814 373.594Z" fill="#FFB9B9"/>
<path d="M269.179 358.49L265.425 369.518L258.336 365.974C258.336 365.974 261.255 358.096 261.255 356.915C261.255 355.733 269.179 358.49 269.179 358.49Z" fill="#FFB9B9"/>
<path d="M266.129 362.73C270.807 362.73 274.6 358.931 274.6 354.245C274.6 349.558 270.807 345.759 266.129 345.759C261.451 345.759 257.659 349.558 257.659 354.245C257.659 358.931 261.451 362.73 266.129 362.73Z" fill="#FFB9B9"/>
<path d="M268.443 371.99L266.831 370.377L266.428 368.361C266.428 368.361 261.188 361.507 256.754 363.926C255.369 364.682 254.337 366.422 253.574 368.458C251.631 373.778 251.812 379.644 254.081 384.834L261.188 401.423L277.31 399.811L274.489 389.327C274.489 389.327 277.31 382.876 272.07 378.441L268.443 371.99Z" fill="#FF715B"/>
<path opacity="0.3" d="M277.31 457.854L272.07 467.748L268.317 474.832C267.115 475.561 265.515 475.549 263.792 475.118C263.492 473.081 265.286 462.318 263.875 453.543L263.938 453.229L264.638 452.336L268.008 453.805L273.955 456.393L277.31 457.854Z" fill="black"/>
<path d="M277.442 398.409C277.442 398.409 267.187 392.029 260.087 400.003L260.482 402.396C260.482 402.396 254.565 409.174 258.115 423.527C261.665 437.881 267.187 475.359 267.187 475.359C267.187 475.359 280.203 476.157 286.12 471.771C286.12 471.771 284.147 422.331 277.442 417.547V398.409Z" fill="#2F2E41"/>
<path d="M256.284 376.449L267.451 390.367L287.636 400.395C287.636 400.395 294.885 405.834 296.73 402.221C298.574 398.609 288.823 396.384 288.823 396.384L273.242 386.866L262.74 370.926C262.298 370.291 261.651 369.834 260.91 369.632C260.17 369.431 259.383 369.498 258.686 369.823C256.015 370.884 254.76 374.346 256.284 376.449Z" fill="#FFB9B9"/>
<path d="M248.63 486.763C248.63 486.763 251.073 483.684 252.532 485.624C253.991 487.564 250.811 489.226 250.811 489.226L250.626 499.232C250.626 499.232 252.361 506.883 247.676 503.927C242.991 500.971 242.807 500.617 241.885 498.846C240.964 497.076 239.059 489.964 237.416 487.67C235.772 485.377 234.267 480.758 236.218 480.189C238.169 479.619 247.263 477.592 246.81 478.267C246.357 478.943 243.899 481.128 245.174 482.714C246.449 484.3 248.63 486.763 248.63 486.763Z" fill="#2F2E41"/>
<path d="M270.533 347.169C270.533 347.159 270.534 347.149 270.534 347.138C270.534 344.852 269.858 342.616 268.592 340.715C267.327 338.814 265.527 337.332 263.422 336.457C261.317 335.582 259.001 335.353 256.766 335.799C254.532 336.245 252.479 337.346 250.868 338.963C249.257 340.58 248.16 342.64 247.715 344.883C247.271 347.125 247.499 349.45 248.371 351.563C249.243 353.675 250.719 355.481 252.614 356.751C254.508 358.022 256.735 358.7 259.014 358.7C259.282 358.7 260.34 360.711 260.603 360.693C260.619 354.59 264.552 347.579 270.533 347.169Z" fill="#2F2E41"/>
<path d="M246.477 345.759C250.781 345.759 254.27 342.416 254.27 338.292C254.27 334.168 250.781 330.825 246.477 330.825C242.174 330.825 238.685 334.168 238.685 338.292C238.685 342.416 242.174 345.759 246.477 345.759Z" fill="#2F2E41"/>
<path d="M246.139 327.059C247.921 327.048 249.646 327.688 250.998 328.861C252.349 330.035 253.235 331.663 253.492 333.445C253.749 335.227 253.36 337.042 252.396 338.557C251.433 340.072 249.959 341.183 248.248 341.686C249.308 341.684 250.354 341.452 251.317 341.006C252.28 340.56 253.137 339.909 253.829 339.099C254.522 338.289 255.034 337.337 255.33 336.309C255.627 335.282 255.701 334.201 255.548 333.142C255.396 332.083 255.019 331.069 254.445 330.169C253.87 329.27 253.111 328.506 252.218 327.929C251.326 327.352 250.321 326.976 249.272 326.826C248.223 326.675 247.155 326.755 246.139 327.059V327.059Z" fill="#2F2E41"/>
<path d="M263.757 345.08H267.872C269.836 345.08 271.719 345.796 273.108 347.069C274.497 348.342 275.277 350.068 275.277 351.869V351.869H263.757V345.08Z" fill="#2F2E41"/>
</g>
<g filter="url(#filter0_d)">
<rect x="47" y="184" width="343" height="117" rx="6" fill="white"/>
</g>
<path d="M81.112 224.08C82.184 224.08 83.128 224.312 83.944 224.776C84.76 225.224 85.392 225.864 85.84 226.696C86.288 227.512 86.512 228.456 86.512 229.528C86.512 230.648 86.256 231.64 85.744 232.504C85.232 233.352 84.496 234.016 83.536 234.496C82.576 234.96 81.464 235.192 80.2 235.192C79.128 235.192 78.072 235.016 77.032 234.664C75.992 234.296 75.136 233.808 74.464 233.2L75.496 230.944C77.048 232.128 78.632 232.72 80.248 232.72C81.32 232.72 82.136 232.456 82.696 231.928C83.272 231.384 83.56 230.616 83.56 229.624C83.56 228.68 83.264 227.928 82.672 227.368C82.096 226.792 81.32 226.504 80.344 226.504C79.672 226.504 79.04 226.632 78.448 226.888C77.856 227.128 77.336 227.488 76.888 227.968H75.016V217.912H85.72V220.312H78.04V224.968C78.904 224.376 79.928 224.08 81.112 224.08ZM101.345 219.712C100.049 219.712 99.4006 220.424 99.4006 221.848V222.88H102.113V225.136H99.4006V235H96.4006V225.136H94.0966V222.88H96.4006V221.704C96.4006 220.264 96.7606 219.16 97.4806 218.392C98.2166 217.608 99.2646 217.216 100.625 217.216C101.377 217.216 102.009 217.312 102.521 217.504V219.88C102.073 219.768 101.681 219.712 101.345 219.712ZM109.8 235.192C108.568 235.192 107.48 234.936 106.536 234.424C105.608 233.912 104.888 233.184 104.376 232.24C103.88 231.28 103.632 230.16 103.632 228.88C103.632 227.6 103.88 226.488 104.376 225.544C104.888 224.584 105.608 223.848 106.536 223.336C107.48 222.824 108.568 222.568 109.8 222.568C111.016 222.568 112.088 222.824 113.016 223.336C113.944 223.848 114.656 224.584 115.152 225.544C115.664 226.488 115.92 227.6 115.92 228.88C115.92 230.16 115.664 231.28 115.152 232.24C114.656 233.184 113.944 233.912 113.016 234.424C112.088 234.936 111.016 235.192 109.8 235.192ZM109.776 232.84C110.8 232.84 111.576 232.512 112.104 231.856C112.648 231.184 112.92 230.192 112.92 228.88C112.92 227.584 112.648 226.6 112.104 225.928C111.56 225.24 110.792 224.896 109.8 224.896C108.792 224.896 108.016 225.24 107.472 225.928C106.928 226.6 106.656 227.584 106.656 228.88C106.656 230.192 106.92 231.184 107.448 231.856C107.992 232.512 108.768 232.84 109.776 232.84ZM125.035 222.592C125.499 222.592 125.899 222.656 126.235 222.784L126.211 225.52C125.699 225.312 125.171 225.208 124.627 225.208C123.603 225.208 122.819 225.504 122.275 226.096C121.747 226.688 121.483 227.472 121.483 228.448V235H118.507V226.312C118.507 225.032 118.443 223.888 118.315 222.88H121.123L121.363 225.016C121.667 224.232 122.147 223.632 122.803 223.216C123.459 222.8 124.203 222.592 125.035 222.592ZM142.209 222.568C143.585 222.568 144.609 222.984 145.281 223.816C145.953 224.632 146.289 225.88 146.289 227.56V235H143.289V227.656C143.289 226.696 143.129 226.008 142.809 225.592C142.505 225.16 141.993 224.944 141.273 224.944C140.441 224.944 139.785 225.24 139.305 225.832C138.841 226.408 138.609 227.208 138.609 228.232V235H135.609V227.656C135.609 226.712 135.441 226.024 135.105 225.592C134.785 225.16 134.273 224.944 133.569 224.944C132.737 224.944 132.081 225.24 131.601 225.832C131.121 226.408 130.881 227.208 130.881 228.232V235H127.905V226.312C127.905 225.032 127.841 223.888 127.713 222.88H130.521L130.737 224.8C131.089 224.08 131.593 223.528 132.249 223.144C132.921 222.76 133.689 222.568 134.553 222.568C136.409 222.568 137.617 223.336 138.177 224.872C138.561 224.152 139.105 223.592 139.809 223.192C140.529 222.776 141.329 222.568 142.209 222.568ZM161.083 222.88V235H158.131V233.056C157.763 233.728 157.235 234.256 156.547 234.64C155.859 235.008 155.075 235.192 154.195 235.192C153.139 235.192 152.203 234.936 151.387 234.424C150.571 233.912 149.939 233.184 149.491 232.24C149.043 231.296 148.819 230.2 148.819 228.952C148.819 227.704 149.043 226.6 149.491 225.64C149.955 224.664 150.595 223.912 151.411 223.384C152.227 222.84 153.155 222.568 154.195 222.568C155.075 222.568 155.859 222.76 156.547 223.144C157.235 223.512 157.763 224.032 158.131 224.704V222.88H161.083ZM155.011 232.84C156.003 232.84 156.771 232.496 157.315 231.808C157.859 231.12 158.131 230.152 158.131 228.904C158.131 227.624 157.859 226.64 157.315 225.952C156.771 225.264 155.995 224.92 154.987 224.92C153.995 224.92 153.219 225.28 152.659 226C152.115 226.704 151.843 227.688 151.843 228.952C151.843 230.2 152.115 231.16 152.659 231.832C153.219 232.504 154.003 232.84 155.011 232.84ZM168.791 235.192C166.599 235.192 164.855 234.68 163.559 233.656L164.399 231.544C165.695 232.504 167.175 232.984 168.839 232.984C169.559 232.984 170.111 232.864 170.495 232.624C170.895 232.384 171.095 232.048 171.095 231.616C171.095 231.248 170.959 230.96 170.687 230.752C170.415 230.528 169.951 230.336 169.295 230.176L167.279 229.72C165.071 229.24 163.967 228.112 163.967 226.336C163.967 225.6 164.175 224.952 164.591 224.392C165.007 223.816 165.591 223.368 166.343 223.048C167.095 222.728 167.967 222.568 168.959 222.568C169.823 222.568 170.655 222.704 171.455 222.976C172.255 223.232 172.959 223.608 173.567 224.104L172.679 226.144C171.463 225.248 170.215 224.8 168.935 224.8C168.247 224.8 167.711 224.928 167.327 225.184C166.943 225.44 166.751 225.792 166.751 226.24C166.751 226.592 166.863 226.872 167.087 227.08C167.327 227.288 167.727 227.464 168.287 227.608L170.351 228.064C171.551 228.336 172.423 228.76 172.967 229.336C173.527 229.896 173.807 230.632 173.807 231.544C173.807 232.664 173.359 233.552 172.463 234.208C171.567 234.864 170.343 235.192 168.791 235.192ZM194.552 217.336V235H191.6V233.056C191.232 233.728 190.704 234.256 190.016 234.64C189.328 235.008 188.544 235.192 187.664 235.192C186.624 235.192 185.696 234.928 184.88 234.4C184.064 233.872 183.424 233.128 182.96 232.168C182.512 231.192 182.288 230.08 182.288 228.832C182.288 227.584 182.512 226.488 182.96 225.544C183.408 224.6 184.04 223.872 184.856 223.36C185.672 222.832 186.608 222.568 187.664 222.568C188.528 222.568 189.296 222.752 189.968 223.12C190.656 223.472 191.184 223.976 191.552 224.632V217.336H194.552ZM188.456 232.84C189.448 232.84 190.216 232.496 190.76 231.808C191.32 231.12 191.6 230.144 191.6 228.88C191.6 227.616 191.328 226.64 190.784 225.952C190.24 225.264 189.472 224.92 188.48 224.92C187.472 224.92 186.688 225.264 186.128 225.952C185.584 226.624 185.312 227.584 185.312 228.832C185.312 230.096 185.584 231.08 186.128 231.784C186.688 232.488 187.464 232.84 188.456 232.84ZM208.428 229.096H200.076C200.14 230.392 200.46 231.352 201.036 231.976C201.628 232.584 202.5 232.888 203.652 232.888C204.98 232.888 206.212 232.456 207.348 231.592L208.212 233.656C207.636 234.12 206.924 234.496 206.076 234.784C205.244 235.056 204.396 235.192 203.532 235.192C201.548 235.192 199.988 234.632 198.852 233.512C197.716 232.392 197.148 230.856 197.148 228.904C197.148 227.672 197.396 226.576 197.892 225.616C198.388 224.656 199.084 223.912 199.98 223.384C200.876 222.84 201.892 222.568 203.028 222.568C204.692 222.568 206.004 223.112 206.964 224.2C207.94 225.272 208.428 226.752 208.428 228.64V229.096ZM203.1 224.728C202.3 224.728 201.644 224.968 201.132 225.448C200.636 225.912 200.316 226.592 200.172 227.488H205.812C205.716 226.576 205.436 225.888 204.972 225.424C204.524 224.96 203.9 224.728 203.1 224.728ZM229.146 222.88V235H226.194V233.056C225.826 233.728 225.298 234.256 224.61 234.64C223.922 235.008 223.138 235.192 222.258 235.192C221.202 235.192 220.266 234.936 219.45 234.424C218.634 233.912 218.002 233.184 217.554 232.24C217.106 231.296 216.882 230.2 216.882 228.952C216.882 227.704 217.106 226.6 217.554 225.64C218.018 224.664 218.658 223.912 219.474 223.384C220.29 222.84 221.218 222.568 222.258 222.568C223.138 222.568 223.922 222.76 224.61 223.144C225.298 223.512 225.826 224.032 226.194 224.704V222.88H229.146ZM223.074 232.84C224.066 232.84 224.834 232.496 225.378 231.808C225.922 231.12 226.194 230.152 226.194 228.904C226.194 227.624 225.922 226.64 225.378 225.952C224.834 225.264 224.058 224.92 223.05 224.92C222.058 224.92 221.282 225.28 220.722 226C220.178 226.704 219.906 227.688 219.906 228.952C219.906 230.2 220.178 231.16 220.722 231.832C221.282 232.504 222.066 232.84 223.074 232.84ZM239.349 222.568C242.245 222.568 243.693 224.232 243.693 227.56V235H240.693V227.704C240.693 226.744 240.509 226.048 240.141 225.616C239.773 225.168 239.205 224.944 238.437 224.944C237.525 224.944 236.789 225.24 236.229 225.832C235.669 226.408 235.389 227.176 235.389 228.136V235H232.413V217.336H235.389V224.632C235.805 223.976 236.357 223.472 237.045 223.12C237.733 222.752 238.501 222.568 239.349 222.568ZM252.37 235.192C251.138 235.192 250.05 234.936 249.106 234.424C248.178 233.912 247.458 233.184 246.946 232.24C246.45 231.28 246.202 230.16 246.202 228.88C246.202 227.6 246.45 226.488 246.946 225.544C247.458 224.584 248.178 223.848 249.106 223.336C250.05 222.824 251.138 222.568 252.37 222.568C253.586 222.568 254.658 222.824 255.586 223.336C256.514 223.848 257.226 224.584 257.722 225.544C258.234 226.488 258.49 227.6 258.49 228.88C258.49 230.16 258.234 231.28 257.722 232.24C257.226 233.184 256.514 233.912 255.586 234.424C254.658 234.936 253.586 235.192 252.37 235.192ZM252.346 232.84C253.37 232.84 254.146 232.512 254.674 231.856C255.218 231.184 255.49 230.192 255.49 228.88C255.49 227.584 255.218 226.6 254.674 225.928C254.13 225.24 253.362 224.896 252.37 224.896C251.362 224.896 250.586 225.24 250.042 225.928C249.498 226.6 249.226 227.584 249.226 228.88C249.226 230.192 249.49 231.184 250.018 231.856C250.562 232.512 251.338 232.84 252.346 232.84ZM267.605 222.592C268.069 222.592 268.469 222.656 268.805 222.784L268.781 225.52C268.269 225.312 267.741 225.208 267.197 225.208C266.173 225.208 265.389 225.504 264.845 226.096C264.317 226.688 264.053 227.472 264.053 228.448V235H261.077V226.312C261.077 225.032 261.013 223.888 260.885 222.88H263.693L263.933 225.016C264.237 224.232 264.717 223.632 265.373 223.216C266.029 222.8 266.773 222.592 267.605 222.592ZM277.004 222.592C277.468 222.592 277.868 222.656 278.204 222.784L278.18 225.52C277.668 225.312 277.14 225.208 276.596 225.208C275.572 225.208 274.788 225.504 274.244 226.096C273.716 226.688 273.452 227.472 273.452 228.448V235H270.476V226.312C270.476 225.032 270.412 223.888 270.284 222.88H273.092L273.332 225.016C273.636 224.232 274.116 223.632 274.772 223.216C275.428 222.8 276.172 222.592 277.004 222.592ZM291.232 222.88V235H288.28V233.056C287.912 233.728 287.384 234.256 286.696 234.64C286.008 235.008 285.224 235.192 284.344 235.192C283.288 235.192 282.352 234.936 281.536 234.424C280.72 233.912 280.088 233.184 279.64 232.24C279.192 231.296 278.968 230.2 278.968 228.952C278.968 227.704 279.192 226.6 279.64 225.64C280.104 224.664 280.744 223.912 281.56 223.384C282.376 222.84 283.304 222.568 284.344 222.568C285.224 222.568 286.008 222.76 286.696 223.144C287.384 223.512 287.912 224.032 288.28 224.704V222.88H291.232ZM285.16 232.84C286.152 232.84 286.92 232.496 287.464 231.808C288.008 231.12 288.28 230.152 288.28 228.904C288.28 227.624 288.008 226.64 287.464 225.952C286.92 225.264 286.144 224.92 285.136 224.92C284.144 224.92 283.368 225.28 282.808 226C282.264 226.704 281.992 227.688 281.992 228.952C281.992 230.2 282.264 231.16 282.808 231.832C283.368 232.504 284.152 232.84 285.16 232.84ZM301.027 222.592C301.491 222.592 301.891 222.656 302.227 222.784L302.203 225.52C301.691 225.312 301.163 225.208 300.619 225.208C299.595 225.208 298.811 225.504 298.267 226.096C297.739 226.688 297.475 227.472 297.475 228.448V235H294.499V226.312C294.499 225.032 294.435 223.888 294.307 222.88H297.115L297.355 225.016C297.659 224.232 298.139 223.632 298.795 223.216C299.451 222.8 300.195 222.592 301.027 222.592ZM88.936 252.568C90.312 252.568 91.336 252.984 92.008 253.816C92.68 254.632 93.016 255.88 93.016 257.56V265H90.016V257.656C90.016 256.696 89.856 256.008 89.536 255.592C89.232 255.16 88.72 254.944 88 254.944C87.168 254.944 86.512 255.24 86.032 255.832C85.568 256.408 85.336 257.208 85.336 258.232V265H82.336V257.656C82.336 256.712 82.168 256.024 81.832 255.592C81.512 255.16 81 254.944 80.296 254.944C79.464 254.944 78.808 255.24 78.328 255.832C77.848 256.408 77.608 257.208 77.608 258.232V265H74.632V256.312C74.632 255.032 74.568 253.888 74.44 252.88H77.248L77.464 254.8C77.816 254.08 78.32 253.528 78.976 253.144C79.648 252.76 80.416 252.568 81.28 252.568C83.136 252.568 84.344 253.336 84.904 254.872C85.288 254.152 85.832 253.592 86.536 253.192C87.256 252.776 88.056 252.568 88.936 252.568ZM106.826 259.096H98.4739C98.5379 260.392 98.8579 261.352 99.4339 261.976C100.026 262.584 100.898 262.888 102.05 262.888C103.378 262.888 104.61 262.456 105.746 261.592L106.61 263.656C106.034 264.12 105.322 264.496 104.474 264.784C103.642 265.056 102.794 265.192 101.93 265.192C99.9459 265.192 98.3859 264.632 97.2499 263.512C96.1139 262.392 95.5459 260.856 95.5459 258.904C95.5459 257.672 95.7939 256.576 96.2899 255.616C96.7859 254.656 97.4819 253.912 98.3779 253.384C99.2739 252.84 100.29 252.568 101.426 252.568C103.09 252.568 104.402 253.112 105.362 254.2C106.338 255.272 106.826 256.752 106.826 258.64V259.096ZM101.498 254.728C100.698 254.728 100.042 254.968 99.5299 255.448C99.0339 255.912 98.7139 256.592 98.5699 257.488H104.21C104.114 256.576 103.834 255.888 103.37 255.424C102.922 254.96 102.298 254.728 101.498 254.728ZM106.27 267.664C106.702 267.792 107.094 267.856 107.446 267.856C108.022 267.856 108.486 267.688 108.838 267.352C109.19 267.016 109.366 266.472 109.366 265.72V252.88H112.342V265.864C112.342 267.304 111.974 268.408 111.238 269.176C110.518 269.944 109.486 270.328 108.142 270.328C107.422 270.328 106.798 270.24 106.27 270.064V267.664ZM109.174 247.384H112.51V250.336H109.174V247.384ZM121.12 265.192C119.888 265.192 118.8 264.936 117.856 264.424C116.928 263.912 116.208 263.184 115.696 262.24C115.2 261.28 114.952 260.16 114.952 258.88C114.952 257.6 115.2 256.488 115.696 255.544C116.208 254.584 116.928 253.848 117.856 253.336C118.8 252.824 119.888 252.568 121.12 252.568C122.336 252.568 123.408 252.824 124.336 253.336C125.264 253.848 125.976 254.584 126.472 255.544C126.984 256.488 127.24 257.6 127.24 258.88C127.24 260.16 126.984 261.28 126.472 262.24C125.976 263.184 125.264 263.912 124.336 264.424C123.408 264.936 122.336 265.192 121.12 265.192ZM121.096 262.84C122.12 262.84 122.896 262.512 123.424 261.856C123.968 261.184 124.24 260.192 124.24 258.88C124.24 257.584 123.968 256.6 123.424 255.928C122.88 255.24 122.112 254.896 121.12 254.896C120.112 254.896 119.336 255.24 118.792 255.928C118.248 256.6 117.976 257.584 117.976 258.88C117.976 260.192 118.24 261.184 118.768 261.856C119.312 262.512 120.088 262.84 121.096 262.84ZM136.355 252.592C136.819 252.592 137.219 252.656 137.555 252.784L137.531 255.52C137.019 255.312 136.491 255.208 135.947 255.208C134.923 255.208 134.139 255.504 133.595 256.096C133.067 256.688 132.803 257.472 132.803 258.448V265H129.827V256.312C129.827 255.032 129.763 253.888 129.635 252.88H132.443L132.683 255.016C132.987 254.232 133.467 253.632 134.123 253.216C134.779 252.8 135.523 252.592 136.355 252.592Z" fill="#36384C"/>
<path d="M328.586 245.414C327.805 244.633 327.805 243.367 328.586 242.586L341.314 229.858C342.095 229.077 343.361 229.077 344.142 229.858C344.923 230.639 344.923 231.905 344.142 232.686L332.828 244L344.142 255.314C344.923 256.095 344.923 257.361 344.142 258.142C343.361 258.923 342.095 258.923 341.314 258.142L328.586 245.414ZM371 246L330 246L330 242L371 242L371 246Z" fill="#263CFF"/>
<g filter="url(#filter1_d)">
<rect x="257" y="40" width="343" height="117" rx="6" fill="white"/>
</g>
<path d="M288.856 91V76.456H283.288V73.912H297.568V76.456H291.976V91H288.856ZM308.201 85.096H299.849C299.913 86.392 300.233 87.352 300.809 87.976C301.401 88.584 302.273 88.888 303.425 88.888C304.753 88.888 305.985 88.456 307.121 87.592L307.985 89.656C307.409 90.12 306.697 90.496 305.849 90.784C305.017 91.056 304.169 91.192 303.305 91.192C301.321 91.192 299.761 90.632 298.625 89.512C297.489 88.392 296.921 86.856 296.921 84.904C296.921 83.672 297.169 82.576 297.665 81.616C298.161 80.656 298.857 79.912 299.753 79.384C300.649 78.84 301.665 78.568 302.801 78.568C304.465 78.568 305.777 79.112 306.737 80.2C307.713 81.272 308.201 82.752 308.201 84.64V85.096ZM302.873 80.728C302.073 80.728 301.417 80.968 300.905 81.448C300.409 81.912 300.089 82.592 299.945 83.488H305.585C305.489 82.576 305.209 81.888 304.745 81.424C304.297 80.96 303.673 80.728 302.873 80.728ZM322.823 91.192C321.559 91.192 320.463 90.936 319.535 90.424C318.607 89.912 317.895 89.192 317.399 88.264C316.903 87.32 316.655 86.216 316.655 84.952C316.655 83.688 316.911 82.576 317.423 81.616C317.951 80.656 318.687 79.912 319.631 79.384C320.591 78.84 321.695 78.568 322.943 78.568C323.807 78.568 324.639 78.704 325.439 78.976C326.255 79.248 326.903 79.624 327.383 80.104L326.543 82.216C326.031 81.8 325.487 81.488 324.911 81.28C324.335 81.056 323.767 80.944 323.207 80.944C322.119 80.944 321.271 81.288 320.663 81.976C320.055 82.648 319.751 83.624 319.751 84.904C319.751 86.184 320.047 87.16 320.639 87.832C321.247 88.504 322.103 88.84 323.207 88.84C323.767 88.84 324.335 88.728 324.911 88.504C325.487 88.28 326.031 87.96 326.543 87.544L327.383 89.656C326.871 90.136 326.207 90.512 325.391 90.784C324.575 91.056 323.719 91.192 322.823 91.192ZM334.894 91.192C333.662 91.192 332.574 90.936 331.63 90.424C330.702 89.912 329.982 89.184 329.47 88.24C328.974 87.28 328.726 86.16 328.726 84.88C328.726 83.6 328.974 82.488 329.47 81.544C329.982 80.584 330.702 79.848 331.63 79.336C332.574 78.824 333.662 78.568 334.894 78.568C336.11 78.568 337.182 78.824 338.11 79.336C339.038 79.848 339.75 80.584 340.246 81.544C340.758 82.488 341.014 83.6 341.014 84.88C341.014 86.16 340.758 87.28 340.246 88.24C339.75 89.184 339.038 89.912 338.11 90.424C337.182 90.936 336.11 91.192 334.894 91.192ZM334.87 88.84C335.894 88.84 336.67 88.512 337.198 87.856C337.742 87.184 338.014 86.192 338.014 84.88C338.014 83.584 337.742 82.6 337.198 81.928C336.654 81.24 335.886 80.896 334.894 80.896C333.886 80.896 333.11 81.24 332.566 81.928C332.022 82.6 331.75 83.584 331.75 84.88C331.75 86.192 332.014 87.184 332.542 87.856C333.086 88.512 333.862 88.84 334.87 88.84ZM350.537 78.568C353.433 78.568 354.881 80.232 354.881 83.56V91H351.881V83.704C351.881 82.744 351.697 82.048 351.329 81.616C350.961 81.168 350.393 80.944 349.625 80.944C348.713 80.944 347.977 81.24 347.417 81.832C346.857 82.408 346.577 83.176 346.577 84.136V91H343.601V82.312C343.601 81.032 343.537 79.888 343.409 78.88H346.217L346.433 80.872C346.849 80.136 347.409 79.568 348.113 79.168C348.833 78.768 349.641 78.568 350.537 78.568ZM366.558 78.904H369.534L364.23 91H361.614L356.382 78.904H359.526L363.006 87.592L366.558 78.904ZM371.093 91V78.88H374.069V91H371.093ZM370.901 73.384H374.237V76.336H370.901V73.384ZM387.959 85.096H379.607C379.671 86.392 379.991 87.352 380.567 87.976C381.159 88.584 382.031 88.888 383.183 88.888C384.511 88.888 385.743 88.456 386.879 87.592L387.743 89.656C387.167 90.12 386.455 90.496 385.607 90.784C384.775 91.056 383.927 91.192 383.063 91.192C381.079 91.192 379.519 90.632 378.383 89.512C377.247 88.392 376.679 86.856 376.679 84.904C376.679 83.672 376.927 82.576 377.423 81.616C377.919 80.656 378.615 79.912 379.511 79.384C380.407 78.84 381.423 78.568 382.559 78.568C384.223 78.568 385.535 79.112 386.495 80.2C387.471 81.272 387.959 82.752 387.959 84.64V85.096ZM382.631 80.728C381.831 80.728 381.175 80.968 380.663 81.448C380.167 81.912 379.847 82.592 379.703 83.488H385.343C385.247 82.576 384.967 81.888 384.503 81.424C384.055 80.96 383.431 80.728 382.631 80.728ZM397.435 78.568C400.331 78.568 401.779 80.232 401.779 83.56V91H398.779V83.704C398.779 82.744 398.595 82.048 398.227 81.616C397.859 81.168 397.291 80.944 396.523 80.944C395.611 80.944 394.875 81.24 394.315 81.832C393.755 82.408 393.475 83.176 393.475 84.136V91H390.499V82.312C390.499 81.032 390.435 79.888 390.307 78.88H393.115L393.331 80.872C393.747 80.136 394.307 79.568 395.011 79.168C395.731 78.768 396.539 78.568 397.435 78.568ZM415.568 85.096H407.216C407.28 86.392 407.6 87.352 408.176 87.976C408.768 88.584 409.64 88.888 410.792 88.888C412.12 88.888 413.352 88.456 414.488 87.592L415.352 89.656C414.776 90.12 414.064 90.496 413.216 90.784C412.384 91.056 411.536 91.192 410.672 91.192C408.688 91.192 407.128 90.632 405.992 89.512C404.856 88.392 404.288 86.856 404.288 84.904C404.288 83.672 404.536 82.576 405.032 81.616C405.528 80.656 406.224 79.912 407.12 79.384C408.016 78.84 409.032 78.568 410.168 78.568C411.832 78.568 413.144 79.112 414.104 80.2C415.08 81.272 415.568 82.752 415.568 84.64V85.096ZM410.24 80.728C409.44 80.728 408.784 80.968 408.272 81.448C407.776 81.912 407.456 82.592 407.312 83.488H412.952C412.856 82.576 412.576 81.888 412.112 81.424C411.664 80.96 411.04 80.728 410.24 80.728ZM435.734 78.88V91H432.807V89.128C432.423 89.8 431.911 90.312 431.271 90.664C430.631 91.016 429.895 91.192 429.062 91.192C426.103 91.192 424.623 89.528 424.623 86.2V78.88H427.599V86.224C427.599 87.104 427.775 87.752 428.127 88.168C428.495 88.584 429.055 88.792 429.807 88.792C430.687 88.792 431.391 88.504 431.919 87.928C432.447 87.352 432.711 86.584 432.711 85.624V78.88H435.734ZM445.927 78.568C448.823 78.568 450.271 80.232 450.271 83.56V91H447.271V83.704C447.271 82.744 447.087 82.048 446.719 81.616C446.351 81.168 445.783 80.944 445.015 80.944C444.103 80.944 443.367 81.24 442.807 81.832C442.247 82.408 441.967 83.176 441.967 84.136V91H438.991V82.312C438.991 81.032 438.927 79.888 438.799 78.88H441.607L441.823 80.872C442.239 80.136 442.799 79.568 443.503 79.168C444.223 78.768 445.031 78.568 445.927 78.568ZM296.224 108.88V121H293.272V119.056C292.904 119.728 292.376 120.256 291.688 120.64C291 121.008 290.216 121.192 289.336 121.192C288.28 121.192 287.344 120.936 286.528 120.424C285.712 119.912 285.08 119.184 284.632 118.24C284.184 117.296 283.96 116.2 283.96 114.952C283.96 113.704 284.184 112.6 284.632 111.64C285.096 110.664 285.736 109.912 286.552 109.384C287.368 108.84 288.296 108.568 289.336 108.568C290.216 108.568 291 108.76 291.688 109.144C292.376 109.512 292.904 110.032 293.272 110.704V108.88H296.224ZM290.152 118.84C291.144 118.84 291.912 118.496 292.456 117.808C293 117.12 293.272 116.152 293.272 114.904C293.272 113.624 293 112.64 292.456 111.952C291.912 111.264 291.136 110.92 290.128 110.92C289.136 110.92 288.36 111.28 287.8 112C287.256 112.704 286.984 113.688 286.984 114.952C286.984 116.2 287.256 117.16 287.8 117.832C288.36 118.504 289.144 118.84 290.152 118.84ZM307.987 108.904H310.963L305.659 121H303.043L297.811 108.904H300.955L304.435 117.592L307.987 108.904ZM323.904 108.88V121H320.952V119.056C320.584 119.728 320.056 120.256 319.368 120.64C318.68 121.008 317.896 121.192 317.016 121.192C315.96 121.192 315.024 120.936 314.208 120.424C313.392 119.912 312.76 119.184 312.312 118.24C311.864 117.296 311.64 116.2 311.64 114.952C311.64 113.704 311.864 112.6 312.312 111.64C312.776 110.664 313.416 109.912 314.232 109.384C315.048 108.84 315.976 108.568 317.016 108.568C317.896 108.568 318.68 108.76 319.368 109.144C320.056 109.512 320.584 110.032 320.952 110.704V108.88H323.904ZM317.832 118.84C318.824 118.84 319.592 118.496 320.136 117.808C320.68 117.12 320.952 116.152 320.952 114.904C320.952 113.624 320.68 112.64 320.136 111.952C319.592 111.264 318.816 110.92 317.808 110.92C316.816 110.92 316.04 111.28 315.48 112C314.936 112.704 314.664 113.688 314.664 114.952C314.664 116.2 314.936 117.16 315.48 117.832C316.04 118.504 316.824 118.84 317.832 118.84ZM334.107 108.568C337.003 108.568 338.451 110.232 338.451 113.56V121H335.451V113.704C335.451 112.744 335.267 112.048 334.899 111.616C334.531 111.168 333.963 110.944 333.195 110.944C332.283 110.944 331.547 111.24 330.987 111.832C330.427 112.408 330.147 113.176 330.147 114.136V121H327.171V112.312C327.171 111.032 327.107 109.888 326.979 108.88H329.787L330.003 110.872C330.419 110.136 330.979 109.568 331.683 109.168C332.403 108.768 333.211 108.568 334.107 108.568ZM347.128 121.192C345.864 121.192 344.768 120.936 343.84 120.424C342.912 119.912 342.2 119.192 341.704 118.264C341.208 117.32 340.96 116.216 340.96 114.952C340.96 113.688 341.216 112.576 341.728 111.616C342.256 110.656 342.992 109.912 343.936 109.384C344.896 108.84 346 108.568 347.248 108.568C348.112 108.568 348.944 108.704 349.744 108.976C350.56 109.248 351.208 109.624 351.688 110.104L350.848 112.216C350.336 111.8 349.792 111.488 349.216 111.28C348.64 111.056 348.072 110.944 347.512 110.944C346.424 110.944 345.576 111.288 344.968 111.976C344.36 112.648 344.056 113.624 344.056 114.904C344.056 116.184 344.352 117.16 344.944 117.832C345.552 118.504 346.408 118.84 347.512 118.84C348.072 118.84 348.64 118.728 349.216 118.504C349.792 118.28 350.336 117.96 350.848 117.544L351.688 119.656C351.176 120.136 350.512 120.512 349.696 120.784C348.88 121.056 348.024 121.192 347.128 121.192ZM364.31 115.096H355.958C356.022 116.392 356.342 117.352 356.918 117.976C357.51 118.584 358.382 118.888 359.534 118.888C360.862 118.888 362.094 118.456 363.23 117.592L364.094 119.656C363.518 120.12 362.806 120.496 361.958 120.784C361.126 121.056 360.278 121.192 359.414 121.192C357.43 121.192 355.87 120.632 354.734 119.512C353.598 118.392 353.03 116.856 353.03 114.904C353.03 113.672 353.278 112.576 353.774 111.616C354.27 110.656 354.966 109.912 355.862 109.384C356.758 108.84 357.774 108.568 358.91 108.568C360.574 108.568 361.886 109.112 362.846 110.2C363.822 111.272 364.31 112.752 364.31 114.64V115.096ZM358.982 110.728C358.182 110.728 357.526 110.968 357.014 111.448C356.518 111.912 356.198 112.592 356.054 113.488H361.694C361.598 112.576 361.318 111.888 360.854 111.424C360.406 110.96 359.782 110.728 358.982 110.728ZM384.045 115.096H375.693C375.757 116.392 376.077 117.352 376.653 117.976C377.245 118.584 378.117 118.888 379.269 118.888C380.597 118.888 381.829 118.456 382.965 117.592L383.829 119.656C383.253 120.12 382.541 120.496 381.693 120.784C380.861 121.056 380.013 121.192 379.149 121.192C377.165 121.192 375.605 120.632 374.469 119.512C373.333 118.392 372.765 116.856 372.765 114.904C372.765 113.672 373.013 112.576 373.509 111.616C374.005 110.656 374.701 109.912 375.597 109.384C376.493 108.84 377.509 108.568 378.645 108.568C380.309 108.568 381.621 109.112 382.581 110.2C383.557 111.272 384.045 112.752 384.045 114.64V115.096ZM378.717 110.728C377.917 110.728 377.261 110.968 376.749 111.448C376.253 111.912 375.933 112.592 375.789 113.488H381.429C381.333 112.576 381.053 111.888 380.589 111.424C380.141 110.96 379.517 110.728 378.717 110.728ZM393.521 108.568C396.417 108.568 397.865 110.232 397.865 113.56V121H394.865V113.704C394.865 112.744 394.681 112.048 394.313 111.616C393.945 111.168 393.377 110.944 392.609 110.944C391.697 110.944 390.961 111.24 390.401 111.832C389.841 112.408 389.561 113.176 389.561 114.136V121H386.585V112.312C386.585 111.032 386.521 109.888 386.393 108.88H389.201L389.417 110.872C389.833 110.136 390.393 109.568 391.097 109.168C391.817 108.768 392.625 108.568 393.521 108.568ZM418.24 115.096H409.888C409.952 116.392 410.272 117.352 410.848 117.976C411.44 118.584 412.312 118.888 413.464 118.888C414.792 118.888 416.024 118.456 417.16 117.592L418.024 119.656C417.448 120.12 416.736 120.496 415.888 120.784C415.056 121.056 414.208 121.192 413.344 121.192C411.36 121.192 409.8 120.632 408.664 119.512C407.528 118.392 406.96 116.856 406.96 114.904C406.96 113.672 407.208 112.576 407.704 111.616C408.2 110.656 408.896 109.912 409.792 109.384C410.688 108.84 411.704 108.568 412.84 108.568C414.504 108.568 415.816 109.112 416.776 110.2C417.752 111.272 418.24 112.752 418.24 114.64V115.096ZM412.912 110.728C412.112 110.728 411.456 110.968 410.944 111.448C410.448 111.912 410.128 112.592 409.984 113.488H415.624C415.528 112.576 415.248 111.888 414.784 111.424C414.336 110.96 413.712 110.728 412.912 110.728ZM426.446 105.712C425.15 105.712 424.502 106.424 424.502 107.848V108.88H427.214V111.136H424.502V121H421.502V111.136H419.198V108.88H421.502V107.704C421.502 106.264 421.862 105.16 422.582 104.392C423.318 103.608 424.366 103.216 425.726 103.216C426.478 103.216 427.11 103.312 427.622 103.504V105.88C427.174 105.768 426.782 105.712 426.446 105.712ZM440.013 115.096H431.661C431.725 116.392 432.045 117.352 432.621 117.976C433.213 118.584 434.085 118.888 435.237 118.888C436.565 118.888 437.797 118.456 438.933 117.592L439.797 119.656C439.221 120.12 438.509 120.496 437.661 120.784C436.829 121.056 435.981 121.192 435.117 121.192C433.133 121.192 431.573 120.632 430.437 119.512C429.301 118.392 428.733 116.856 428.733 114.904C428.733 113.672 428.981 112.576 429.477 111.616C429.973 110.656 430.669 109.912 431.565 109.384C432.461 108.84 433.477 108.568 434.613 108.568C436.277 108.568 437.589 109.112 438.549 110.2C439.525 111.272 440.013 112.752 440.013 114.64V115.096ZM434.685 110.728C433.885 110.728 433.229 110.968 432.717 111.448C432.221 111.912 431.901 112.592 431.757 113.488H437.397C437.301 112.576 437.021 111.888 436.557 111.424C436.109 110.96 435.485 110.728 434.685 110.728ZM448.05 121.192C446.786 121.192 445.69 120.936 444.762 120.424C443.834 119.912 443.122 119.192 442.626 118.264C442.13 117.32 441.882 116.216 441.882 114.952C441.882 113.688 442.138 112.576 442.65 111.616C443.178 110.656 443.914 109.912 444.858 109.384C445.818 108.84 446.922 108.568 448.17 108.568C449.034 108.568 449.866 108.704 450.666 108.976C451.482 109.248 452.13 109.624 452.61 110.104L451.77 112.216C451.258 111.8 450.714 111.488 450.138 111.28C449.562 111.056 448.994 110.944 448.434 110.944C447.346 110.944 446.498 111.288 445.89 111.976C445.282 112.648 444.978 113.624 444.978 114.904C444.978 116.184 445.274 117.16 445.866 117.832C446.474 118.504 447.33 118.84 448.434 118.84C448.994 118.84 449.562 118.728 450.138 118.504C450.714 118.28 451.258 117.96 451.77 117.544L452.61 119.656C452.098 120.136 451.434 120.512 450.618 120.784C449.802 121.056 448.946 121.192 448.05 121.192ZM458.511 111.136V116.56C458.511 117.984 459.175 118.696 460.503 118.696C460.871 118.696 461.271 118.632 461.703 118.504V120.88C461.175 121.072 460.535 121.168 459.783 121.168C458.407 121.168 457.351 120.784 456.615 120.016C455.879 119.248 455.511 118.144 455.511 116.704V111.136H453.183V108.88H455.511V105.928L458.511 104.92V108.88H461.727V111.136H458.511ZM463.788 121V108.88H466.764V121H463.788ZM463.596 103.384H466.932V106.336H463.596V103.384ZM478.542 108.904H481.518L476.214 121H473.598L468.366 108.904H471.51L474.99 117.592L478.542 108.904ZM488.362 121.192C487.13 121.192 486.042 120.936 485.098 120.424C484.17 119.912 483.45 119.184 482.938 118.24C482.442 117.28 482.194 116.16 482.194 114.88C482.194 113.6 482.442 112.488 482.938 111.544C483.45 110.584 484.17 109.848 485.098 109.336C486.042 108.824 487.13 108.568 488.362 108.568C489.578 108.568 490.65 108.824 491.578 109.336C492.506 109.848 493.218 110.584 493.714 111.544C494.226 112.488 494.482 113.6 494.482 114.88C494.482 116.16 494.226 117.28 493.714 118.24C493.218 119.184 492.506 119.912 491.578 120.424C490.65 120.936 489.578 121.192 488.362 121.192ZM488.338 118.84C489.362 118.84 490.138 118.512 490.666 117.856C491.21 117.184 491.482 116.192 491.482 114.88C491.482 113.584 491.21 112.6 490.666 111.928C490.122 111.24 489.354 110.896 488.362 110.896C487.354 110.896 486.578 111.24 486.034 111.928C485.49 112.6 485.218 113.584 485.218 114.88C485.218 116.192 485.482 117.184 486.01 117.856C486.554 118.512 487.33 118.84 488.338 118.84ZM497.315 104.656C498.339 104.032 499.531 103.72 500.891 103.72C501.883 103.72 502.763 103.888 503.531 104.224C504.299 104.56 504.891 105.024 505.307 105.616C505.739 106.208 505.955 106.896 505.955 107.68C505.955 108.528 505.755 109.256 505.355 109.864C504.971 110.472 504.387 111.176 503.603 111.976C502.947 112.648 502.451 113.224 502.115 113.704C501.779 114.168 501.571 114.696 501.491 115.288L501.395 115.96H499.619V114.976C499.619 114.08 499.779 113.328 500.099 112.72C500.419 112.096 500.883 111.424 501.491 110.704C501.955 110.16 502.299 109.688 502.523 109.288C502.763 108.888 502.883 108.44 502.883 107.944C502.883 107.384 502.683 106.952 502.283 106.648C501.899 106.328 501.363 106.168 500.675 106.168C499.555 106.168 498.435 106.512 497.315 107.2V104.656ZM498.851 121V117.64H502.235V121H498.851Z" fill="#36384C"/>
<path d="M582.414 101.414C583.195 100.633 583.195 99.3668 582.414 98.5858L569.686 85.8579C568.905 85.0768 567.639 85.0768 566.858 85.8579C566.077 86.6389 566.077 87.9052 566.858 88.6863L578.172 100L566.858 111.314C566.077 112.095 566.077 113.361 566.858 114.142C567.639 114.923 568.905 114.923 569.686 114.142L582.414 101.414ZM540 102L581 102L581 98L540 98L540 102Z" fill="#263CFF"/>
<g filter="url(#filter2_d)">
<rect x="382" y="137" width="343" height="117" rx="6" fill="white"/>
</g>
<path d="M417.6 188.216C415.92 188.216 414.448 187.856 413.184 187.136C411.936 186.416 410.976 185.4 410.304 184.088C409.632 182.76 409.296 181.208 409.296 179.432C409.296 177.672 409.632 176.136 410.304 174.824C410.976 173.496 411.936 172.48 413.184 171.776C414.448 171.056 415.92 170.696 417.6 170.696C418.752 170.696 419.832 170.88 420.84 171.248C421.864 171.6 422.712 172.096 423.384 172.736L422.376 174.992C421.608 174.368 420.84 173.92 420.072 173.648C419.32 173.36 418.512 173.216 417.648 173.216C416 173.216 414.72 173.752 413.808 174.824C412.912 175.896 412.464 177.432 412.464 179.432C412.464 181.448 412.912 183 413.808 184.088C414.704 185.16 415.984 185.696 417.648 185.696C418.512 185.696 419.32 185.56 420.072 185.288C420.84 185 421.608 184.544 422.376 183.92L423.384 186.176C422.712 186.816 421.864 187.32 420.84 187.688C419.832 188.04 418.752 188.216 417.6 188.216ZM431.323 188.192C430.091 188.192 429.003 187.936 428.059 187.424C427.131 186.912 426.411 186.184 425.899 185.24C425.403 184.28 425.155 183.16 425.155 181.88C425.155 180.6 425.403 179.488 425.899 178.544C426.411 177.584 427.131 176.848 428.059 176.336C429.003 175.824 430.091 175.568 431.323 175.568C432.539 175.568 433.611 175.824 434.539 176.336C435.467 176.848 436.179 177.584 436.675 178.544C437.187 179.488 437.443 180.6 437.443 181.88C437.443 183.16 437.187 184.28 436.675 185.24C436.179 186.184 435.467 186.912 434.539 187.424C433.611 187.936 432.539 188.192 431.323 188.192ZM431.299 185.84C432.323 185.84 433.099 185.512 433.627 184.856C434.171 184.184 434.443 183.192 434.443 181.88C434.443 180.584 434.171 179.6 433.627 178.928C433.083 178.24 432.315 177.896 431.323 177.896C430.315 177.896 429.539 178.24 428.995 178.928C428.451 179.6 428.179 180.584 428.179 181.88C428.179 183.192 428.443 184.184 428.971 184.856C429.515 185.512 430.291 185.84 431.299 185.84ZM432.283 174.32H430.339L432.739 169.376H435.811L432.283 174.32ZM454.334 175.568C455.71 175.568 456.734 175.984 457.406 176.816C458.078 177.632 458.414 178.88 458.414 180.56V188H455.414V180.656C455.414 179.696 455.254 179.008 454.934 178.592C454.63 178.16 454.118 177.944 453.398 177.944C452.566 177.944 451.91 178.24 451.43 178.832C450.966 179.408 450.734 180.208 450.734 181.232V188H447.734V180.656C447.734 179.712 447.566 179.024 447.23 178.592C446.91 178.16 446.398 177.944 445.694 177.944C444.862 177.944 444.206 178.24 443.726 178.832C443.246 179.408 443.006 180.208 443.006 181.232V188H440.03V179.312C440.03 178.032 439.966 176.888 439.838 175.88H442.646L442.862 177.8C443.214 177.08 443.718 176.528 444.374 176.144C445.046 175.76 445.814 175.568 446.678 175.568C448.534 175.568 449.742 176.336 450.302 177.872C450.686 177.152 451.23 176.592 451.934 176.192C452.654 175.776 453.454 175.568 454.334 175.568ZM467.112 188.192C465.88 188.192 464.792 187.936 463.848 187.424C462.92 186.912 462.2 186.184 461.688 185.24C461.192 184.28 460.944 183.16 460.944 181.88C460.944 180.6 461.192 179.488 461.688 178.544C462.2 177.584 462.92 176.848 463.848 176.336C464.792 175.824 465.88 175.568 467.112 175.568C468.328 175.568 469.4 175.824 470.328 176.336C471.256 176.848 471.968 177.584 472.464 178.544C472.976 179.488 473.232 180.6 473.232 181.88C473.232 183.16 472.976 184.28 472.464 185.24C471.968 186.184 471.256 186.912 470.328 187.424C469.4 187.936 468.328 188.192 467.112 188.192ZM467.088 185.84C468.112 185.84 468.888 185.512 469.416 184.856C469.96 184.184 470.232 183.192 470.232 181.88C470.232 180.584 469.96 179.6 469.416 178.928C468.872 178.24 468.104 177.896 467.112 177.896C466.104 177.896 465.328 178.24 464.784 178.928C464.24 179.6 463.968 180.584 463.968 181.88C463.968 183.192 464.232 184.184 464.76 184.856C465.304 185.512 466.08 185.84 467.088 185.84ZM493.997 170.336V188H491.045V186.056C490.677 186.728 490.149 187.256 489.461 187.64C488.773 188.008 487.989 188.192 487.109 188.192C486.069 188.192 485.141 187.928 484.325 187.4C483.509 186.872 482.869 186.128 482.405 185.168C481.957 184.192 481.733 183.08 481.733 181.832C481.733 180.584 481.957 179.488 482.405 178.544C482.853 177.6 483.485 176.872 484.301 176.36C485.117 175.832 486.053 175.568 487.109 175.568C487.973 175.568 488.741 175.752 489.413 176.12C490.101 176.472 490.629 176.976 490.997 177.632V170.336H493.997ZM487.901 185.84C488.893 185.84 489.661 185.496 490.205 184.808C490.765 184.12 491.045 183.144 491.045 181.88C491.045 180.616 490.773 179.64 490.229 178.952C489.685 178.264 488.917 177.92 487.925 177.92C486.917 177.92 486.133 178.264 485.573 178.952C485.029 179.624 484.757 180.584 484.757 181.832C484.757 183.096 485.029 184.08 485.573 184.784C486.133 185.488 486.909 185.84 487.901 185.84ZM507.873 182.096H499.521C499.585 183.392 499.905 184.352 500.481 184.976C501.073 185.584 501.945 185.888 503.097 185.888C504.425 185.888 505.657 185.456 506.793 184.592L507.657 186.656C507.081 187.12 506.369 187.496 505.521 187.784C504.689 188.056 503.841 188.192 502.977 188.192C500.993 188.192 499.433 187.632 498.297 186.512C497.161 185.392 496.593 183.856 496.593 181.904C496.593 180.672 496.841 179.576 497.337 178.616C497.833 177.656 498.529 176.912 499.425 176.384C500.321 175.84 501.337 175.568 502.473 175.568C504.137 175.568 505.449 176.112 506.409 177.2C507.385 178.272 507.873 179.752 507.873 181.64V182.096ZM502.545 177.728C501.745 177.728 501.089 177.968 500.577 178.448C500.081 178.912 499.761 179.592 499.617 180.488H505.257C505.161 179.576 504.881 178.888 504.417 178.424C503.969 177.96 503.345 177.728 502.545 177.728ZM515.909 188.192C514.645 188.192 513.549 187.936 512.621 187.424C511.693 186.912 510.981 186.192 510.485 185.264C509.989 184.32 509.741 183.216 509.741 181.952C509.741 180.688 509.997 179.576 510.509 178.616C511.037 177.656 511.773 176.912 512.717 176.384C513.677 175.84 514.781 175.568 516.029 175.568C516.893 175.568 517.725 175.704 518.525 175.976C519.341 176.248 519.989 176.624 520.469 177.104L519.629 179.216C519.117 178.8 518.573 178.488 517.997 178.28C517.421 178.056 516.853 177.944 516.293 177.944C515.205 177.944 514.357 178.288 513.749 178.976C513.141 179.648 512.837 180.624 512.837 181.904C512.837 183.184 513.133 184.16 513.725 184.832C514.333 185.504 515.189 185.84 516.293 185.84C516.853 185.84 517.421 185.728 517.997 185.504C518.573 185.28 519.117 184.96 519.629 184.544L520.469 186.656C519.957 187.136 519.293 187.512 518.477 187.784C517.661 188.056 516.805 188.192 515.909 188.192ZM522.484 188V175.88H525.46V188H522.484ZM522.292 170.384H525.628V173.336H522.292V170.384ZM540.333 170.336V188H537.381V186.056C537.013 186.728 536.485 187.256 535.797 187.64C535.109 188.008 534.325 188.192 533.445 188.192C532.405 188.192 531.477 187.928 530.661 187.4C529.845 186.872 529.205 186.128 528.741 185.168C528.293 184.192 528.069 183.08 528.069 181.832C528.069 180.584 528.293 179.488 528.741 178.544C529.189 177.6 529.821 176.872 530.637 176.36C531.453 175.832 532.389 175.568 533.445 175.568C534.309 175.568 535.077 175.752 535.749 176.12C536.437 176.472 536.965 176.976 537.333 177.632V170.336H540.333ZM534.237 185.84C535.229 185.84 535.997 185.496 536.541 184.808C537.101 184.12 537.381 183.144 537.381 181.88C537.381 180.616 537.109 179.64 536.565 178.952C536.021 178.264 535.253 177.92 534.261 177.92C533.253 177.92 532.469 178.264 531.909 178.952C531.365 179.624 531.093 180.584 531.093 181.832C531.093 183.096 531.365 184.08 531.909 184.784C532.469 185.488 533.245 185.84 534.237 185.84ZM543.601 188V175.88H546.577V188H543.601ZM543.409 170.384H546.745V173.336H543.409V170.384ZM556.387 175.592C556.851 175.592 557.251 175.656 557.587 175.784L557.563 178.52C557.051 178.312 556.523 178.208 555.979 178.208C554.955 178.208 554.171 178.504 553.627 179.096C553.099 179.688 552.835 180.472 552.835 181.448V188H549.859V179.312C549.859 178.032 549.795 176.888 549.667 175.88H552.475L552.715 178.016C553.019 177.232 553.499 176.632 554.155 176.216C554.811 175.8 555.555 175.592 556.387 175.592ZM572.755 175.568C573.795 175.568 574.715 175.84 575.515 176.384C576.331 176.912 576.963 177.664 577.411 178.64C577.875 179.6 578.107 180.704 578.107 181.952C578.107 183.2 577.883 184.296 577.435 185.24C576.987 186.184 576.355 186.912 575.539 187.424C574.739 187.936 573.811 188.192 572.755 188.192C571.875 188.192 571.091 188.008 570.403 187.64C569.715 187.256 569.187 186.728 568.819 186.056V193.184H565.843V179.312C565.843 178.032 565.779 176.888 565.651 175.88H568.459L568.699 177.968C569.019 177.216 569.539 176.632 570.259 176.216C570.979 175.784 571.811 175.568 572.755 175.568ZM571.939 185.84C572.947 185.84 573.723 185.504 574.267 184.832C574.811 184.16 575.083 183.2 575.083 181.952C575.083 180.688 574.811 179.704 574.267 179C573.723 178.28 572.955 177.92 571.963 177.92C570.939 177.92 570.155 178.264 569.611 178.952C569.067 179.64 568.795 180.624 568.795 181.904C568.795 183.168 569.067 184.144 569.611 184.832C570.155 185.504 570.931 185.84 571.939 185.84ZM586.222 188.192C584.99 188.192 583.902 187.936 582.958 187.424C582.03 186.912 581.31 186.184 580.798 185.24C580.302 184.28 580.054 183.16 580.054 181.88C580.054 180.6 580.302 179.488 580.798 178.544C581.31 177.584 582.03 176.848 582.958 176.336C583.902 175.824 584.99 175.568 586.222 175.568C587.438 175.568 588.51 175.824 589.438 176.336C590.366 176.848 591.078 177.584 591.574 178.544C592.086 179.488 592.342 180.6 592.342 181.88C592.342 183.16 592.086 184.28 591.574 185.24C591.078 186.184 590.366 186.912 589.438 187.424C588.51 187.936 587.438 188.192 586.222 188.192ZM586.198 185.84C587.222 185.84 587.998 185.512 588.526 184.856C589.07 184.184 589.342 183.192 589.342 181.88C589.342 180.584 589.07 179.6 588.526 178.928C587.982 178.24 587.214 177.896 586.222 177.896C585.214 177.896 584.438 178.24 583.894 178.928C583.35 179.6 583.078 180.584 583.078 181.88C583.078 183.192 583.342 184.184 583.87 184.856C584.414 185.512 585.19 185.84 586.198 185.84ZM601.457 175.592C601.921 175.592 602.321 175.656 602.657 175.784L602.633 178.52C602.121 178.312 601.593 178.208 601.049 178.208C600.025 178.208 599.241 178.504 598.697 179.096C598.169 179.688 597.905 180.472 597.905 181.448V188H594.929V179.312C594.929 178.032 594.865 176.888 594.737 175.88H597.545L597.785 178.016C598.089 177.232 598.569 176.632 599.225 176.216C599.881 175.8 600.625 175.592 601.457 175.592ZM621.953 175.88V188H619.025V186.128C618.641 186.8 618.129 187.312 617.489 187.664C616.849 188.016 616.113 188.192 615.281 188.192C612.321 188.192 610.841 186.528 610.841 183.2V175.88H613.817V183.224C613.817 184.104 613.993 184.752 614.345 185.168C614.713 185.584 615.273 185.792 616.025 185.792C616.905 185.792 617.609 185.504 618.137 184.928C618.665 184.352 618.929 183.584 618.929 182.624V175.88H621.953ZM632.146 175.568C635.042 175.568 636.49 177.232 636.49 180.56V188H633.49V180.704C633.49 179.744 633.306 179.048 632.938 178.616C632.57 178.168 632.002 177.944 631.234 177.944C630.322 177.944 629.586 178.24 629.026 178.832C628.466 179.408 628.186 180.176 628.186 181.136V188H625.21V179.312C625.21 178.032 625.146 176.888 625.018 175.88H627.826L628.042 177.872C628.458 177.136 629.018 176.568 629.722 176.168C630.442 175.768 631.25 175.568 632.146 175.568ZM415.128 218.192C413.864 218.192 412.768 217.936 411.84 217.424C410.912 216.912 410.2 216.192 409.704 215.264C409.208 214.32 408.96 213.216 408.96 211.952C408.96 210.688 409.216 209.576 409.728 208.616C410.256 207.656 410.992 206.912 411.936 206.384C412.896 205.84 414 205.568 415.248 205.568C416.112 205.568 416.944 205.704 417.744 205.976C418.56 206.248 419.208 206.624 419.688 207.104L418.848 209.216C418.336 208.8 417.792 208.488 417.216 208.28C416.64 208.056 416.072 207.944 415.512 207.944C414.424 207.944 413.576 208.288 412.968 208.976C412.36 209.648 412.056 210.624 412.056 211.904C412.056 213.184 412.352 214.16 412.944 214.832C413.552 215.504 414.408 215.84 415.512 215.84C416.072 215.84 416.64 215.728 417.216 215.504C417.792 215.28 418.336 214.96 418.848 214.544L419.688 216.656C419.176 217.136 418.512 217.512 417.696 217.784C416.88 218.056 416.024 218.192 415.128 218.192ZM428.23 205.592C428.694 205.592 429.094 205.656 429.43 205.784L429.406 208.52C428.894 208.312 428.366 208.208 427.822 208.208C426.798 208.208 426.014 208.504 425.47 209.096C424.942 209.688 424.678 210.472 424.678 211.448V218H421.702V209.312C421.702 208.032 421.638 206.888 421.51 205.88H424.318L424.558 208.016C424.862 207.232 425.342 206.632 425.998 206.216C426.654 205.8 427.398 205.592 428.23 205.592ZM441.474 212.096H433.122C433.186 213.392 433.506 214.352 434.082 214.976C434.674 215.584 435.546 215.888 436.698 215.888C438.026 215.888 439.258 215.456 440.394 214.592L441.258 216.656C440.682 217.12 439.97 217.496 439.122 217.784C438.29 218.056 437.442 218.192 436.578 218.192C434.594 218.192 433.034 217.632 431.898 216.512C430.762 215.392 430.194 213.856 430.194 211.904C430.194 210.672 430.442 209.576 430.938 208.616C431.434 207.656 432.13 206.912 433.026 206.384C433.922 205.84 434.938 205.568 436.074 205.568C437.738 205.568 439.05 206.112 440.01 207.2C440.986 208.272 441.474 209.752 441.474 211.64V212.096ZM436.146 207.728C435.346 207.728 434.69 207.968 434.178 208.448C433.682 208.912 433.362 209.592 433.218 210.488H438.858C438.762 209.576 438.482 208.888 438.018 208.424C437.57 207.96 436.946 207.728 436.146 207.728ZM437.034 204.32H435.09L437.49 199.376H440.562L437.034 204.32ZM455.607 200.336V218H452.655V216.056C452.287 216.728 451.759 217.256 451.071 217.64C450.383 218.008 449.599 218.192 448.719 218.192C447.679 218.192 446.751 217.928 445.935 217.4C445.119 216.872 444.479 216.128 444.015 215.168C443.567 214.192 443.343 213.08 443.343 211.832C443.343 210.584 443.567 209.488 444.015 208.544C444.463 207.6 445.095 206.872 445.911 206.36C446.727 205.832 447.663 205.568 448.719 205.568C449.583 205.568 450.351 205.752 451.023 206.12C451.711 206.472 452.239 206.976 452.607 207.632V200.336H455.607ZM449.511 215.84C450.503 215.84 451.271 215.496 451.815 214.808C452.375 214.12 452.655 213.144 452.655 211.88C452.655 210.616 452.383 209.64 451.839 208.952C451.295 208.264 450.527 207.92 449.535 207.92C448.527 207.92 447.743 208.264 447.183 208.952C446.639 209.624 446.367 210.584 446.367 211.832C446.367 213.096 446.639 214.08 447.183 214.784C447.743 215.488 448.519 215.84 449.511 215.84ZM458.874 218V205.88H461.85V218H458.874ZM458.682 200.384H462.018V203.336H458.682V200.384ZM468.948 208.136V213.56C468.948 214.984 469.612 215.696 470.94 215.696C471.308 215.696 471.708 215.632 472.14 215.504V217.88C471.612 218.072 470.972 218.168 470.22 218.168C468.844 218.168 467.788 217.784 467.052 217.016C466.316 216.248 465.948 215.144 465.948 213.704V208.136H463.62V205.88H465.948V202.928L468.948 201.92V205.88H472.164V208.136H468.948ZM479.722 218.192C478.49 218.192 477.402 217.936 476.458 217.424C475.53 216.912 474.81 216.184 474.298 215.24C473.802 214.28 473.554 213.16 473.554 211.88C473.554 210.6 473.802 209.488 474.298 208.544C474.81 207.584 475.53 206.848 476.458 206.336C477.402 205.824 478.49 205.568 479.722 205.568C480.938 205.568 482.01 205.824 482.938 206.336C483.866 206.848 484.578 207.584 485.074 208.544C485.586 209.488 485.842 210.6 485.842 211.88C485.842 213.16 485.586 214.28 485.074 215.24C484.578 216.184 483.866 216.912 482.938 217.424C482.01 217.936 480.938 218.192 479.722 218.192ZM479.698 215.84C480.722 215.84 481.498 215.512 482.026 214.856C482.57 214.184 482.842 213.192 482.842 211.88C482.842 210.584 482.57 209.6 482.026 208.928C481.482 208.24 480.714 207.896 479.722 207.896C478.714 207.896 477.938 208.24 477.394 208.928C476.85 209.6 476.578 210.584 476.578 211.88C476.578 213.192 476.842 214.184 477.37 214.856C477.914 215.512 478.69 215.84 479.698 215.84Z" fill="#36384C"/>
<path d="M707.414 198.414C708.195 197.633 708.195 196.367 707.414 195.586L694.686 182.858C693.905 182.077 692.639 182.077 691.858 182.858C691.077 183.639 691.077 184.905 691.858 185.686L703.172 197L691.858 208.314C691.077 209.095 691.077 210.361 691.858 211.142C692.639 211.923 693.905 211.923 694.686 211.142L707.414 198.414ZM665 199L706 199L706 195L665 195L665 199Z" fill="#263CFF"/>
<defs>
<filter id="filter0_d" x="17" y="158" width="403" height="177" filterUnits="userSpaceOnUse" color-interpolation-filters="sRGB">
<feFlood flood-opacity="0" result="BackgroundImageFix"/>
<feColorMatrix in="SourceAlpha" type="matrix" values="0 0 0 0 0 0 0 0 0 0 0 0 0 0 0 0 0 0 127 0"/>
<feOffset dy="4"/>
<feGaussianBlur stdDeviation="15"/>
<feColorMatrix type="matrix" values="0 0 0 0 0.55 0 0 0 0 0.55 0 0 0 0 0.55 0 0 0 0.31 0"/>
<feBlend mode="normal" in2="BackgroundImageFix" result="effect1_dropShadow"/>
<feBlend mode="normal" in="SourceGraphic" in2="effect1_dropShadow" result="shape"/>
</filter>
<filter id="filter1_d" x="227" y="14" width="403" height="177" filterUnits="userSpaceOnUse" color-interpolation-filters="sRGB">
<feFlood flood-opacity="0" result="BackgroundImageFix"/>
<feColorMatrix in="SourceAlpha" type="matrix" values="0 0 0 0 0 0 0 0 0 0 0 0 0 0 0 0 0 0 127 0"/>
<feOffset dy="4"/>
<feGaussianBlur stdDeviation="15"/>
<feColorMatrix type="matrix" values="0 0 0 0 0.55 0 0 0 0 0.55 0 0 0 0 0.55 0 0 0 0.31 0"/>
<feBlend mode="normal" in2="BackgroundImageFix" result="effect1_dropShadow"/>
<feBlend mode="normal" in="SourceGraphic" in2="effect1_dropShadow" result="shape"/>
</filter>
<filter id="filter2_d" x="352" y="111" width="403" height="177" filterUnits="userSpaceOnUse" color-interpolation-filters="sRGB">
<feFlood flood-opacity="0" result="BackgroundImageFix"/>
<feColorMatrix in="SourceAlpha" type="matrix" values="0 0 0 0 0 0 0 0 0 0 0 0 0 0 0 0 0 0 127 0"/>
<feOffset dy="4"/>
<feGaussianBlur stdDeviation="15"/>
<feColorMatrix type="matrix" values="0 0 0 0 0.55 0 0 0 0 0.55 0 0 0 0 0.55 0 0 0 0.31 0"/>
<feBlend mode="normal" in2="BackgroundImageFix" result="effect1_dropShadow"/>
<feBlend mode="normal" in="SourceGraphic" in2="effect1_dropShadow" result="shape"/>
</filter>
<clipPath id="clip0">
<rect x="217" y="229" width="391" height="279" fill="white"/>
</clipPath>
</defs>
</svg>
