<svg width="399" height="334" viewBox="0 0 399 334" fill="none" xmlns="http://www.w3.org/2000/svg">
<g filter="url(#filter0_d)">
<rect x="30" y="26" width="339" height="274" rx="6" fill="white"/>
</g>
<rect opacity="0.1" x="172" y="39" width="68" height="22" rx="6" fill="#263CFF"/>
<path d="M288.919 162.185C289.47 162.21 289.938 161.782 289.956 161.23C290.428 146.639 287.111 132.169 280.322 119.232C273.377 106 263.048 94.8464 250.387 86.9082C237.727 78.9701 223.187 74.5314 208.252 74.0448C193.649 73.5691 179.179 76.8876 166.251 83.6685C165.762 83.925 165.581 84.5323 165.843 85.0183L176.933 105.567C177.195 106.053 177.801 106.233 178.292 105.979C187.274 101.326 197.305 99.0516 207.426 99.3814C217.881 99.722 228.059 102.829 236.921 108.386C245.784 113.942 253.014 121.75 257.875 131.012C262.581 139.979 264.904 149.999 264.628 160.111C264.613 160.663 265.04 161.13 265.591 161.155L288.919 162.185Z" fill="#6B4FFF"/>
<path d="M288.919 162.185C289.47 162.21 289.938 161.782 289.956 161.23C290.428 146.639 287.111 132.169 280.322 119.232C273.377 106 263.048 94.8464 250.387 86.9082C237.727 78.9701 223.187 74.5314 208.252 74.0448C193.649 73.5691 179.179 76.8876 166.251 83.6685C165.762 83.925 165.581 84.5323 165.843 85.0183L176.933 105.567C177.195 106.053 177.801 106.233 178.292 105.979C187.274 101.326 197.305 99.0516 207.426 99.3814C217.881 99.722 228.059 102.829 236.921 108.386C245.784 113.942 253.014 121.75 257.875 131.012C262.581 139.979 264.904 149.999 264.628 160.111C264.613 160.663 265.04 161.13 265.591 161.155L288.919 162.185Z" fill="#4287FF"/>
<path d="M162.648 86.8342C162.365 86.3602 161.75 86.2053 161.28 86.4943C150.71 92.9853 141.699 101.724 134.886 112.089C134.583 112.551 134.719 113.17 135.184 113.467L154.847 126.06C155.312 126.358 155.93 126.222 156.236 125.762C160.929 118.699 167.087 112.728 174.291 108.254C174.76 107.962 174.915 107.349 174.631 106.875L162.648 86.8342Z" fill="#6B4FFF"/>
<path d="M162.648 86.8342C162.365 86.3602 161.75 86.2053 161.28 86.4943C150.71 92.9853 141.699 101.724 134.886 112.089C134.583 112.551 134.719 113.17 135.184 113.467L154.847 126.06C155.312 126.358 155.93 126.222 156.236 125.762C160.929 118.699 167.087 112.728 174.291 108.254C174.76 107.962 174.915 107.349 174.631 106.875L162.648 86.8342Z" fill="#4287FF"/>
<path d="M123.375 173.589C122.831 173.688 122.471 174.21 122.578 174.752C126.01 192.263 134.899 208.248 147.984 220.405C161.07 232.562 177.664 240.255 195.379 242.392C195.927 242.458 196.421 242.061 196.481 241.511L199.003 218.298C199.063 217.749 198.666 217.256 198.118 217.188C185.829 215.642 174.325 210.275 165.239 201.833C156.153 193.391 149.956 182.313 147.513 170.171C147.404 169.629 146.883 169.269 146.34 169.369L123.375 173.589Z" fill="#6B4FFF"/>
<path d="M123.375 173.589C122.831 173.688 122.471 174.21 122.578 174.752C126.01 192.263 134.899 208.248 147.984 220.405C161.07 232.562 177.664 240.255 195.379 242.392C195.927 242.458 196.421 242.061 196.481 241.511L199.003 218.298C199.063 217.749 198.666 217.256 198.118 217.188C185.829 215.642 174.325 210.275 165.239 201.833C156.153 193.391 149.956 182.313 147.513 170.171C147.404 169.629 146.883 169.269 146.34 169.369L123.375 173.589Z" fill="#4287FF"/>
<path d="M134.395 116.662C133.443 116.102 132.215 116.419 131.678 117.384C123.051 132.873 119.514 150.686 121.57 168.296C121.698 169.393 122.712 170.155 123.806 170.001L144.947 167.025C146.041 166.871 146.799 165.859 146.682 164.761C145.412 152.827 147.802 140.787 153.535 130.244C154.063 129.274 153.748 128.049 152.796 127.489L134.395 116.662Z" fill="#6B4FFF"/>
<path d="M134.395 116.662C133.443 116.102 132.215 116.419 131.678 117.384C123.051 132.873 119.514 150.686 121.57 168.296C121.698 169.393 122.712 170.155 123.806 170.001L144.947 167.025C146.041 166.871 146.799 165.859 146.682 164.761C145.412 152.827 147.802 140.787 153.535 130.244C154.063 129.274 153.748 128.049 152.796 127.489L134.395 116.662Z" fill="#4287FF"/>
<path d="M200.216 241.833C200.181 242.384 200.6 242.86 201.152 242.888C222.822 244.005 244.108 236.741 260.582 222.579C277.057 208.418 287.435 188.465 289.584 166.872C289.639 166.323 289.231 165.837 288.681 165.789L265.42 163.75C264.87 163.702 264.386 164.11 264.328 164.659C262.758 179.659 255.514 193.508 244.058 203.356C232.601 213.203 217.822 218.286 202.756 217.586C202.204 217.561 201.729 217.978 201.694 218.529L200.216 241.833Z" fill="#6B4FFF"/>
<path d="M200.216 241.833C200.181 242.384 200.6 242.86 201.152 242.888C222.822 244.005 244.108 236.741 260.582 222.579C277.057 208.418 287.435 188.465 289.584 166.872C289.639 166.323 289.231 165.837 288.681 165.789L265.42 163.75C264.87 163.702 264.386 164.11 264.328 164.659C262.758 179.659 255.514 193.508 244.058 203.356C232.601 213.203 217.822 218.286 202.756 217.586C202.204 217.561 201.729 217.978 201.694 218.529L200.216 241.833Z" fill="#4287FF"/>
<path d="M175.174 155V147.938H172.446V147.168H178.815V147.938H176.087V155H175.174ZM181.24 155.077C180.719 155.077 180.261 154.96 179.865 154.725C179.469 154.49 179.161 154.157 178.941 153.724C178.728 153.291 178.622 152.785 178.622 152.206C178.622 151.627 178.728 151.121 178.941 150.688C179.161 150.255 179.469 149.922 179.865 149.687C180.261 149.452 180.719 149.335 181.24 149.335C181.76 149.335 182.219 149.452 182.615 149.687C183.011 149.922 183.315 150.255 183.528 150.688C183.748 151.121 183.858 151.627 183.858 152.206C183.858 152.785 183.748 153.291 183.528 153.724C183.315 154.157 183.011 154.49 182.615 154.725C182.219 154.96 181.76 155.077 181.24 155.077ZM181.24 154.34C181.79 154.34 182.211 154.16 182.505 153.801C182.798 153.434 182.945 152.903 182.945 152.206C182.945 151.531 182.794 151.011 182.494 150.644C182.193 150.27 181.775 150.083 181.24 150.083C180.697 150.083 180.275 150.27 179.975 150.644C179.674 151.011 179.524 151.531 179.524 152.206C179.524 152.903 179.67 153.434 179.964 153.801C180.264 154.16 180.69 154.34 181.24 154.34ZM186.424 150.171V153.196C186.424 153.607 186.508 153.896 186.677 154.065C186.846 154.226 187.084 154.307 187.392 154.307C187.597 154.307 187.795 154.274 187.986 154.208V154.967C187.759 155.04 187.502 155.077 187.216 155.077C186.688 155.077 186.274 154.93 185.973 154.637C185.68 154.336 185.533 153.896 185.533 153.317V150.171H184.455V149.467H185.533V148.048L186.424 147.729V149.467H188.008V150.171H186.424ZM193.955 149.467V155H193.075V153.999C192.913 154.344 192.668 154.611 192.338 154.802C192.015 154.985 191.637 155.077 191.205 155.077C190.713 155.077 190.281 154.96 189.907 154.725C189.54 154.49 189.254 154.16 189.049 153.735C188.851 153.302 188.752 152.8 188.752 152.228C188.752 151.656 188.854 151.154 189.06 150.721C189.265 150.281 189.551 149.94 189.918 149.698C190.292 149.456 190.721 149.335 191.205 149.335C191.637 149.335 192.015 149.43 192.338 149.621C192.66 149.812 192.906 150.079 193.075 150.424V149.467H193.955ZM191.381 154.34C191.923 154.34 192.341 154.157 192.635 153.79C192.928 153.416 193.075 152.888 193.075 152.206C193.075 151.524 192.928 151 192.635 150.633C192.341 150.266 191.923 150.083 191.381 150.083C190.838 150.083 190.413 150.274 190.105 150.655C189.804 151.029 189.654 151.553 189.654 152.228C189.654 152.903 189.804 153.423 190.105 153.79C190.405 154.157 190.831 154.34 191.381 154.34ZM195.677 155V146.904H196.568V155H195.677ZM207.47 150.919V154.549C207.162 154.71 206.758 154.842 206.26 154.945C205.761 155.04 205.255 155.088 204.742 155.088C203.964 155.088 203.293 154.93 202.729 154.615C202.164 154.292 201.731 153.83 201.431 153.229C201.137 152.628 200.991 151.909 200.991 151.073C200.991 150.244 201.137 149.533 201.431 148.939C201.731 148.338 202.157 147.879 202.707 147.564C203.264 147.241 203.92 147.08 204.676 147.08C205.226 147.08 205.728 147.164 206.183 147.333C206.645 147.494 207.041 147.74 207.371 148.07L207.019 148.763C206.637 148.44 206.263 148.209 205.897 148.07C205.537 147.923 205.13 147.85 204.676 147.85C203.788 147.85 203.106 148.129 202.63 148.686C202.16 149.236 201.926 150.032 201.926 151.073C201.926 152.136 202.168 152.947 202.652 153.504C203.136 154.054 203.84 154.329 204.764 154.329C205.416 154.329 206.043 154.226 206.645 154.021V151.634H204.698V150.919H207.47ZM214.085 149.467V155H213.205V153.999C213.044 154.344 212.798 154.611 212.468 154.802C212.146 154.985 211.768 155.077 211.335 155.077C210.844 155.077 210.411 154.96 210.037 154.725C209.671 154.49 209.385 154.16 209.179 153.735C208.981 153.302 208.882 152.8 208.882 152.228C208.882 151.656 208.985 151.154 209.19 150.721C209.396 150.281 209.682 149.94 210.048 149.698C210.422 149.456 210.851 149.335 211.335 149.335C211.768 149.335 212.146 149.43 212.468 149.621C212.791 149.812 213.037 150.079 213.205 150.424V149.467H214.085ZM211.511 154.34C212.054 154.34 212.472 154.157 212.765 153.79C213.059 153.416 213.205 152.888 213.205 152.206C213.205 151.524 213.059 151 212.765 150.633C212.472 150.266 212.054 150.083 211.511 150.083C210.969 150.083 210.543 150.274 210.235 150.655C209.935 151.029 209.784 151.553 209.784 152.228C209.784 152.903 209.935 153.423 210.235 153.79C210.536 154.157 210.961 154.34 211.511 154.34ZM217.678 155.077C216.747 155.077 216.01 154.839 215.467 154.362L215.764 153.702C216.065 153.937 216.369 154.105 216.677 154.208C216.985 154.311 217.33 154.362 217.711 154.362C218.129 154.362 218.445 154.292 218.657 154.153C218.877 154.006 218.987 153.797 218.987 153.526C218.987 153.306 218.914 153.13 218.767 152.998C218.621 152.866 218.379 152.763 218.041 152.69L217.106 152.47C216.644 152.367 216.285 152.184 216.028 151.92C215.779 151.656 215.654 151.341 215.654 150.974C215.654 150.49 215.849 150.098 216.237 149.797C216.626 149.489 217.139 149.335 217.777 149.335C218.166 149.335 218.533 149.397 218.877 149.522C219.222 149.647 219.512 149.826 219.746 150.061L219.449 150.71C218.929 150.277 218.371 150.061 217.777 150.061C217.381 150.061 217.073 150.138 216.853 150.292C216.641 150.439 216.534 150.648 216.534 150.919C216.534 151.146 216.6 151.326 216.732 151.458C216.872 151.59 217.092 151.693 217.392 151.766L218.327 151.997C218.841 152.114 219.222 152.298 219.471 152.547C219.721 152.789 219.845 153.108 219.845 153.504C219.845 153.981 219.651 154.362 219.262 154.648C218.874 154.934 218.346 155.077 217.678 155.077ZM222.4 150.171V153.196C222.4 153.607 222.484 153.896 222.653 154.065C222.821 154.226 223.06 154.307 223.368 154.307C223.573 154.307 223.771 154.274 223.962 154.208V154.967C223.734 155.04 223.478 155.077 223.192 155.077C222.664 155.077 222.249 154.93 221.949 154.637C221.655 154.336 221.509 153.896 221.509 153.317V150.171H220.431V149.467H221.509V148.048L222.4 147.729V149.467H223.984V150.171H222.4ZM229.93 149.467V155H229.05V153.999C228.889 154.344 228.643 154.611 228.313 154.802C227.991 154.985 227.613 155.077 227.18 155.077C226.689 155.077 226.256 154.96 225.882 154.725C225.516 154.49 225.23 154.16 225.024 153.735C224.826 153.302 224.727 152.8 224.727 152.228C224.727 151.656 224.83 151.154 225.035 150.721C225.241 150.281 225.527 149.94 225.893 149.698C226.267 149.456 226.696 149.335 227.18 149.335C227.613 149.335 227.991 149.43 228.313 149.621C228.636 149.812 228.882 150.079 229.05 150.424V149.467H229.93ZM227.356 154.34C227.899 154.34 228.317 154.157 228.61 153.79C228.904 153.416 229.05 152.888 229.05 152.206C229.05 151.524 228.904 151 228.61 150.633C228.317 150.266 227.899 150.083 227.356 150.083C226.814 150.083 226.388 150.274 226.08 150.655C225.78 151.029 225.629 151.553 225.629 152.228C225.629 152.903 225.78 153.423 226.08 153.79C226.381 154.157 226.806 154.34 227.356 154.34ZM236.526 146.904V155H235.646V153.999C235.485 154.344 235.239 154.611 234.909 154.802C234.586 154.985 234.209 155.077 233.776 155.077C233.292 155.077 232.863 154.956 232.489 154.714C232.122 154.472 231.836 154.135 231.631 153.702C231.426 153.262 231.323 152.756 231.323 152.184C231.323 151.612 231.422 151.113 231.62 150.688C231.825 150.255 232.115 149.922 232.489 149.687C232.863 149.452 233.292 149.335 233.776 149.335C234.209 149.335 234.586 149.43 234.909 149.621C235.232 149.804 235.474 150.065 235.635 150.402V146.904H236.526ZM233.952 154.34C234.495 154.34 234.913 154.157 235.206 153.79C235.499 153.416 235.646 152.888 235.646 152.206C235.646 151.531 235.499 151.011 235.206 150.644C234.913 150.27 234.495 150.083 233.952 150.083C233.409 150.083 232.984 150.266 232.676 150.633C232.375 151 232.225 151.517 232.225 152.184C232.225 152.866 232.375 153.398 232.676 153.779C232.984 154.153 233.409 154.34 233.952 154.34ZM240.537 155.077C240.016 155.077 239.558 154.96 239.162 154.725C238.766 154.49 238.458 154.157 238.238 153.724C238.025 153.291 237.919 152.785 237.919 152.206C237.919 151.627 238.025 151.121 238.238 150.688C238.458 150.255 238.766 149.922 239.162 149.687C239.558 149.452 240.016 149.335 240.537 149.335C241.057 149.335 241.516 149.452 241.912 149.687C242.308 149.922 242.612 150.255 242.825 150.688C243.045 151.121 243.155 151.627 243.155 152.206C243.155 152.785 243.045 153.291 242.825 153.724C242.612 154.157 242.308 154.49 241.912 154.725C241.516 154.96 241.057 155.077 240.537 155.077ZM240.537 154.34C241.087 154.34 241.508 154.16 241.802 153.801C242.095 153.434 242.242 152.903 242.242 152.206C242.242 151.531 242.091 151.011 241.791 150.644C241.49 150.27 241.072 150.083 240.537 150.083C239.994 150.083 239.572 150.27 239.272 150.644C238.971 151.011 238.821 151.531 238.821 152.206C238.821 152.903 238.967 153.434 239.261 153.801C239.561 154.16 239.987 154.34 240.537 154.34Z" fill="#36384C"/>
<path d="M172.406 170.454C172.406 171.426 172.064 172.242 171.38 172.902C170.696 173.55 169.79 173.946 168.662 174.09V176.088H167.15V174.126C165.47 174.018 164.102 173.496 163.046 172.56L163.712 171.174C164.276 171.63 164.84 171.972 165.404 172.2C165.968 172.428 166.58 172.566 167.24 172.614V168.42C166.412 168.204 165.722 167.976 165.17 167.736C164.63 167.496 164.174 167.142 163.802 166.674C163.442 166.194 163.262 165.57 163.262 164.802C163.262 164.154 163.424 163.566 163.748 163.038C164.084 162.498 164.546 162.06 165.134 161.724C165.722 161.376 166.394 161.16 167.15 161.076V159.096H168.662V161.076C169.37 161.16 170.03 161.334 170.642 161.598C171.266 161.862 171.794 162.198 172.226 162.606L171.56 163.992C170.672 163.2 169.682 162.738 168.59 162.606V167.034C169.382 167.226 170.036 167.442 170.552 167.682C171.08 167.91 171.518 168.246 171.866 168.69C172.226 169.134 172.406 169.722 172.406 170.454ZM165.134 164.712C165.134 165.24 165.314 165.654 165.674 165.954C166.046 166.242 166.568 166.482 167.24 166.674V162.588C166.58 162.684 166.064 162.918 165.692 163.29C165.32 163.662 165.134 164.136 165.134 164.712ZM168.59 172.56C169.214 172.452 169.694 172.224 170.03 171.876C170.366 171.516 170.534 171.06 170.534 170.508C170.534 170.064 170.366 169.71 170.03 169.446C169.706 169.182 169.226 168.954 168.59 168.762V172.56ZM184.776 172.47H187.584V174H180.096V172.47H182.904V163.398L180.294 165.018V163.308L183.696 161.184H184.776V172.47ZM198.989 169.842V171.336H197.099V174H195.263V171.336H189.521V169.95L195.605 161.184H197.099V169.842H198.989ZM191.339 169.842H195.263V164.19L191.339 169.842ZM205.516 165.882C206.32 165.882 207.022 166.056 207.622 166.404C208.234 166.74 208.702 167.22 209.026 167.844C209.362 168.456 209.53 169.164 209.53 169.968C209.53 170.796 209.344 171.522 208.972 172.146C208.612 172.77 208.09 173.256 207.406 173.604C206.722 173.952 205.924 174.126 205.012 174.126C204.22 174.126 203.44 173.988 202.672 173.712C201.904 173.436 201.268 173.058 200.764 172.578L201.412 171.21C202.6 172.146 203.806 172.614 205.03 172.614C205.882 172.614 206.542 172.386 207.01 171.93C207.49 171.462 207.73 170.82 207.73 170.004C207.73 169.224 207.49 168.594 207.01 168.114C206.542 167.634 205.912 167.394 205.12 167.394C203.968 167.394 203.044 167.832 202.348 168.708H201.142V161.184H208.99V162.678H202.978V166.746C203.662 166.17 204.508 165.882 205.516 165.882ZM211.377 171.84H213.537V174H211.377V171.84ZM224.899 169.842V171.336H223.009V174H221.173V171.336H215.431V169.95L221.515 161.184H223.009V169.842H224.899ZM217.249 169.842H221.173V164.19L217.249 169.842ZM230.418 161.04C232.002 161.04 233.22 161.58 234.072 162.66C234.924 163.74 235.35 165.288 235.35 167.304C235.35 168.732 235.146 169.962 234.738 170.994C234.342 172.014 233.76 172.794 232.992 173.334C232.236 173.874 231.33 174.144 230.274 174.144C229.518 174.144 228.786 174.012 228.078 173.748C227.37 173.472 226.752 173.088 226.224 172.596L226.872 171.228C227.472 171.72 228.042 172.08 228.582 172.308C229.134 172.524 229.68 172.632 230.22 172.632C231.264 172.632 232.068 172.176 232.632 171.264C233.208 170.34 233.496 169.032 233.496 167.34V167.286C233.232 167.91 232.8 168.402 232.2 168.762C231.612 169.122 230.934 169.302 230.166 169.302C229.398 169.302 228.714 169.134 228.114 168.798C227.514 168.45 227.046 167.97 226.71 167.358C226.374 166.734 226.206 166.02 226.206 165.216C226.206 164.412 226.386 163.698 226.746 163.074C227.106 162.438 227.604 161.94 228.24 161.58C228.888 161.22 229.614 161.04 230.418 161.04ZM230.508 167.79C231.276 167.79 231.9 167.55 232.38 167.07C232.86 166.578 233.1 165.948 233.1 165.18C233.1 164.4 232.86 163.77 232.38 163.29C231.9 162.798 231.276 162.552 230.508 162.552C229.752 162.552 229.146 162.792 228.69 163.272C228.234 163.752 228.006 164.388 228.006 165.18C228.006 165.96 228.234 166.59 228.69 167.07C229.158 167.55 229.764 167.79 230.508 167.79ZM241.607 174.144C240.119 174.144 238.985 173.586 238.205 172.47C237.425 171.354 237.035 169.728 237.035 167.592C237.035 165.456 237.425 163.83 238.205 162.714C238.985 161.598 240.119 161.04 241.607 161.04C243.095 161.04 244.229 161.598 245.009 162.714C245.789 163.818 246.179 165.438 246.179 167.574C246.179 169.722 245.789 171.354 245.009 172.47C244.229 173.586 243.095 174.144 241.607 174.144ZM241.607 172.65C242.531 172.65 243.209 172.242 243.641 171.426C244.085 170.598 244.307 169.314 244.307 167.574C244.307 165.834 244.091 164.562 243.659 163.758C243.227 162.954 242.543 162.552 241.607 162.552C240.683 162.552 239.999 162.96 239.555 163.776C239.123 164.58 238.907 165.846 238.907 167.574C238.907 169.314 239.123 170.598 239.555 171.426C239.999 172.242 240.683 172.65 241.607 172.65Z" fill="#36384C"/>
<path fill-rule="evenodd" clip-rule="evenodd" d="M148.875 108.375H150.125V102.75H158.875V103.375L157 103.375C156.31 103.375 155.75 103.935 155.75 104.625L155.75 108.375H147.625V110.25C147.625 110.94 148.185 111.5 148.875 111.5L157 111.5H160.125C160.815 111.5 161.375 110.94 161.375 110.25V104.625C161.375 103.935 160.815 103.375 160.125 103.375V102.75C160.125 102.06 159.565 101.5 158.875 101.5H150.125C149.435 101.5 148.875 102.06 148.875 102.75V108.375ZM148.875 109.625H155.75L155.75 110.25L148.875 110.25V109.625ZM160.125 110.25H157V104.625H160.125V110.25Z" fill="white"/>
<path fill-rule="evenodd" clip-rule="evenodd" d="M132.795 138.502C132.684 138.501 132.577 138.514 132.475 138.538C132.335 138.231 132.151 137.955 131.942 137.746C131.587 137.39 131.026 137.25 130.25 137.25V138.5C130.724 138.5 130.997 138.568 131.058 138.629C131.294 138.866 131.5 139.346 131.5 139.75L131.506 139.838L132.119 144.125C131.094 144.178 130.3 144.974 130.251 145.969L130.25 146.625C130.311 147.652 131.102 148.443 132.09 148.499L132.231 148.499C132.489 149.228 133.183 149.75 134 149.75C134.816 149.75 135.511 149.228 135.768 148.5H137.232C137.489 149.228 138.184 149.75 139 149.75C140.036 149.75 140.875 148.911 140.875 147.875C140.875 146.839 140.036 146 139 146C138.184 146 137.489 146.522 137.232 147.25H135.768C135.511 146.522 134.816 146 134 146C133.184 146 132.489 146.522 132.232 147.25H132.125C131.806 147.231 131.52 146.945 131.499 146.588L131.5 146C131.517 145.676 131.801 145.392 132.156 145.374L133.39 145.375L133.399 145.375H139.698L139.79 145.346C140.264 145.195 140.644 144.839 140.823 144.377L140.889 144.246L141.103 143.822C141.324 143.384 141.546 142.944 141.761 142.515C142.29 141.463 142.622 140.795 142.695 140.631C143.073 139.788 142.308 139.139 141.525 139.125L132.795 138.502ZM139.481 144.125H133.446C133.405 144.114 133.375 144.08 133.369 144.038L132.756 139.75L141.433 140.372C141.282 140.681 141.006 141.234 140.644 141.954L140.635 141.972C140.429 142.382 140.208 142.821 139.987 143.259L139.773 143.683L139.692 143.843L139.662 143.914C139.629 144.005 139.564 144.08 139.481 144.125ZM139 148.5C139.345 148.5 139.625 148.22 139.625 147.875C139.625 147.53 139.345 147.25 139 147.25C138.655 147.25 138.375 147.53 138.375 147.875C138.375 148.22 138.655 148.5 139 148.5ZM134.625 147.875C134.625 148.22 134.345 148.5 134 148.5C133.655 148.5 133.375 148.22 133.375 147.875C133.375 147.53 133.655 147.25 134 147.25C134.345 147.25 134.625 147.53 134.625 147.875Z" fill="white"/>
<path fill-rule="evenodd" clip-rule="evenodd" d="M160.091 202.25L160.712 213.431C160.751 214.12 160.223 214.71 159.534 214.748C159.499 214.75 159.499 214.75 159.464 214.75H149.536C148.845 214.75 148.286 214.19 148.286 213.5C148.286 213.465 148.286 213.465 148.288 213.431L148.909 202.25H160.091ZM150.091 203.5L149.536 213.5H159.464L158.909 203.5H150.091ZM152.625 204.75H151.375V206.312C151.375 207.813 152.827 209.125 154.5 209.125C156.173 209.125 157.625 207.813 157.625 206.312V204.75H156.375V206.312C156.375 207.093 155.509 207.875 154.5 207.875C153.491 207.875 152.625 207.093 152.625 206.312V204.75Z" fill="white"/>
<path fill-rule="evenodd" clip-rule="evenodd" d="M253.333 96.3333V103.667C254.07 103.667 254.667 103.07 254.667 102.333V95.6667C254.667 94.9303 254.07 94.3333 253.333 94.3333H246.667C245.93 94.3333 245.333 94.9303 245.333 95.6667H252.667C253.035 95.6667 253.333 95.9651 253.333 96.3333ZM251.333 105.667V98.3333C251.333 97.9651 251.035 97.6667 250.667 97.6667H243.333C243.333 96.9303 243.93 96.3333 244.667 96.3333H251.333C252.07 96.3333 252.667 96.9303 252.667 97.6667V104.333C252.667 105.07 252.07 105.667 251.333 105.667ZM249.333 98.3333H242.667C241.93 98.3333 241.333 98.9303 241.333 99.6667V106.333C241.333 107.07 241.93 107.667 242.667 107.667H249.333C250.07 107.667 250.667 107.07 250.667 106.333V99.6667C250.667 98.9303 250.07 98.3333 249.333 98.3333ZM242.667 106.333V99.6667H249.333V106.333H242.667Z" fill="white"/>
<path fill-rule="evenodd" clip-rule="evenodd" d="M250.142 206.6L254 202.399L257.858 206.6H257.857V213.6H250.143V206.6H250.142ZM248.858 207.999L247.908 209.033L247 208.044L253.092 201.41C253.593 200.863 254.407 200.863 254.908 201.41L261 208.044L260.092 209.033L259.142 207.999V213.6C259.142 214.373 258.567 215 257.857 215H250.143C249.433 215 248.858 214.373 248.858 213.6V207.999Z" fill="white"/>
<mask id="path-19-inside-1" fill="white">
<rect x="252.142" y="208.7" width="3.85675" height="5.6" rx="1"/>
</mask>
<rect x="252.142" y="208.7" width="3.85675" height="5.6" rx="1" stroke="white" stroke-width="3" stroke-linecap="round" stroke-linejoin="round" mask="url(#path-19-inside-1)"/>
<path d="M196.198 45.456H197.422V54H196.054V48.696L193.786 54H192.766L190.486 48.756V54H189.118V45.456H190.342L193.282 52.14L196.198 45.456ZM204.977 47.94V54H203.501V53.028C203.317 53.364 203.053 53.628 202.709 53.82C202.365 54.004 201.973 54.096 201.533 54.096C201.005 54.096 200.537 53.968 200.129 53.712C199.721 53.456 199.405 53.092 199.181 52.62C198.957 52.148 198.845 51.6 198.845 50.976C198.845 50.352 198.957 49.8 199.181 49.32C199.413 48.832 199.733 48.456 200.141 48.192C200.549 47.92 201.013 47.784 201.533 47.784C201.973 47.784 202.365 47.88 202.709 48.072C203.053 48.256 203.317 48.516 203.501 48.852V47.94H204.977ZM201.941 52.92C202.437 52.92 202.821 52.748 203.093 52.404C203.365 52.06 203.501 51.576 203.501 50.952C203.501 50.312 203.365 49.82 203.093 49.476C202.821 49.132 202.433 48.96 201.929 48.96C201.433 48.96 201.045 49.14 200.765 49.5C200.493 49.852 200.357 50.344 200.357 50.976C200.357 51.6 200.493 52.08 200.765 52.416C201.045 52.752 201.437 52.92 201.941 52.92ZM209.875 47.796C210.107 47.796 210.307 47.828 210.475 47.892L210.463 49.26C210.207 49.156 209.943 49.104 209.671 49.104C209.159 49.104 208.767 49.252 208.495 49.548C208.231 49.844 208.099 50.236 208.099 50.724V54H206.611V49.656C206.611 49.016 206.579 48.444 206.515 47.94H207.919L208.039 49.008C208.191 48.616 208.431 48.316 208.759 48.108C209.087 47.9 209.459 47.796 209.875 47.796ZM212.94 52.86H216.432V54H211.164V52.956L214.512 49.068H211.236V47.94H216.3V48.96L212.94 52.86ZM220.293 54.096C219.677 54.096 219.133 53.968 218.661 53.712C218.197 53.456 217.837 53.092 217.581 52.62C217.333 52.14 217.209 51.58 217.209 50.94C217.209 50.3 217.333 49.744 217.581 49.272C217.837 48.792 218.197 48.424 218.661 48.168C219.133 47.912 219.677 47.784 220.293 47.784C220.901 47.784 221.437 47.912 221.901 48.168C222.365 48.424 222.721 48.792 222.969 49.272C223.225 49.744 223.353 50.3 223.353 50.94C223.353 51.58 223.225 52.14 222.969 52.62C222.721 53.092 222.365 53.456 221.901 53.712C221.437 53.968 220.901 54.096 220.293 54.096ZM220.281 52.92C220.793 52.92 221.181 52.756 221.445 52.428C221.717 52.092 221.853 51.596 221.853 50.94C221.853 50.292 221.717 49.8 221.445 49.464C221.173 49.12 220.789 48.948 220.293 48.948C219.789 48.948 219.401 49.12 219.129 49.464C218.857 49.8 218.721 50.292 218.721 50.94C218.721 51.596 218.853 52.092 219.117 52.428C219.389 52.756 219.777 52.92 220.281 52.92Z" fill="#263CFF"/>
<path d="M42.4447 54V45.456H47.7247V46.284H43.4167V49.248H47.4847V50.076H43.4167V54H42.4447ZM54.0212 50.952H49.5932C49.6012 51.72 49.7772 52.3 50.1212 52.692C50.4732 53.084 50.9812 53.28 51.6452 53.28C52.3492 53.28 52.9972 53.044 53.5892 52.572L53.9132 53.28C53.6492 53.528 53.3092 53.724 52.8932 53.868C52.4852 54.012 52.0652 54.084 51.6332 54.084C50.6892 54.084 49.9492 53.808 49.4132 53.256C48.8772 52.696 48.6092 51.932 48.6092 50.964C48.6092 50.348 48.7292 49.804 48.9692 49.332C49.2092 48.852 49.5452 48.48 49.9772 48.216C50.4092 47.952 50.9012 47.82 51.4532 47.82C52.2532 47.82 52.8812 48.084 53.3372 48.612C53.7932 49.132 54.0212 49.852 54.0212 50.772V50.952ZM51.4652 48.576C50.9612 48.576 50.5492 48.728 50.2292 49.032C49.9172 49.336 49.7172 49.764 49.6292 50.316H53.1452C53.0972 49.748 52.9292 49.316 52.6412 49.02C52.3612 48.724 51.9692 48.576 51.4652 48.576ZM58.5085 47.82C59.0365 47.82 59.5045 47.948 59.9125 48.204C60.3205 48.46 60.6365 48.824 60.8605 49.296C61.0845 49.76 61.1965 50.304 61.1965 50.928C61.1965 51.552 61.0845 52.104 60.8605 52.584C60.6365 53.056 60.3205 53.424 59.9125 53.688C59.5045 53.952 59.0365 54.084 58.5085 54.084C58.0365 54.084 57.6245 53.98 57.2725 53.772C56.9205 53.564 56.6525 53.268 56.4685 52.884V54H55.4965V45.168H56.4685V49.032C56.6445 48.64 56.9085 48.34 57.2605 48.132C57.6205 47.924 58.0365 47.82 58.5085 47.82ZM58.3285 53.28C58.9125 53.28 59.3685 53.076 59.6965 52.668C60.0245 52.252 60.1885 51.672 60.1885 50.928C60.1885 50.2 60.0245 49.636 59.6965 49.236C59.3765 48.836 58.9205 48.636 58.3285 48.636C57.7285 48.636 57.2685 48.836 56.9485 49.236C56.6285 49.636 56.4685 50.208 56.4685 50.952C56.4685 51.696 56.6285 52.272 56.9485 52.68C57.2685 53.08 57.7285 53.28 58.3285 53.28ZM65.4999 47.82C65.6999 47.82 65.8839 47.844 66.0519 47.892L66.0279 48.78C65.8439 48.716 65.6319 48.684 65.3919 48.684C64.8079 48.684 64.3719 48.868 64.0839 49.236C63.8039 49.596 63.6639 50.036 63.6639 50.556V54H62.6919V49.656C62.6919 49.032 62.6599 48.468 62.5959 47.964H63.5199L63.6159 49.08C63.7679 48.672 64.0119 48.36 64.3479 48.144C64.6839 47.928 65.0679 47.82 65.4999 47.82ZM71.9743 50.952H67.5463C67.5543 51.72 67.7303 52.3 68.0743 52.692C68.4263 53.084 68.9343 53.28 69.5983 53.28C70.3023 53.28 70.9503 53.044 71.5423 52.572L71.8663 53.28C71.6023 53.528 71.2623 53.724 70.8463 53.868C70.4383 54.012 70.0183 54.084 69.5863 54.084C68.6423 54.084 67.9023 53.808 67.3663 53.256C66.8303 52.696 66.5623 51.932 66.5623 50.964C66.5623 50.348 66.6823 49.804 66.9223 49.332C67.1623 48.852 67.4983 48.48 67.9303 48.216C68.3623 47.952 68.8543 47.82 69.4063 47.82C70.2063 47.82 70.8343 48.084 71.2903 48.612C71.7463 49.132 71.9743 49.852 71.9743 50.772V50.952ZM69.4183 48.576C68.9143 48.576 68.5023 48.728 68.1823 49.032C67.8703 49.336 67.6703 49.764 67.5823 50.316H71.0983C71.0503 49.748 70.8823 49.316 70.5943 49.02C70.3143 48.724 69.9223 48.576 69.4183 48.576ZM76.2577 47.82C76.4577 47.82 76.6417 47.844 76.8097 47.892L76.7857 48.78C76.6017 48.716 76.3897 48.684 76.1497 48.684C75.5657 48.684 75.1297 48.868 74.8417 49.236C74.5617 49.596 74.4217 50.036 74.4217 50.556V54H73.4497V49.656C73.4497 49.032 73.4177 48.468 73.3537 47.964H74.2777L74.3737 49.08C74.5257 48.672 74.7697 48.36 75.1057 48.144C75.4417 47.928 75.8257 47.82 76.2577 47.82ZM80.1761 54.084C79.6081 54.084 79.1081 53.956 78.6761 53.7C78.2441 53.444 77.9081 53.08 77.6681 52.608C77.4361 52.136 77.3201 51.584 77.3201 50.952C77.3201 50.32 77.4361 49.768 77.6681 49.296C77.9081 48.824 78.2441 48.46 78.6761 48.204C79.1081 47.948 79.6081 47.82 80.1761 47.82C80.7441 47.82 81.2441 47.948 81.6761 48.204C82.1081 48.46 82.4401 48.824 82.6721 49.296C82.9121 49.768 83.0321 50.32 83.0321 50.952C83.0321 51.584 82.9121 52.136 82.6721 52.608C82.4401 53.08 82.1081 53.444 81.6761 53.7C81.2441 53.956 80.7441 54.084 80.1761 54.084ZM80.1761 53.28C80.7761 53.28 81.2361 53.084 81.5561 52.692C81.8761 52.292 82.0361 51.712 82.0361 50.952C82.0361 50.216 81.8721 49.648 81.5441 49.248C81.2161 48.84 80.7601 48.636 80.1761 48.636C79.5841 48.636 79.1241 48.84 78.7961 49.248C78.4681 49.648 78.3041 50.216 78.3041 50.952C78.3041 51.712 78.4641 52.292 78.7841 52.692C79.1121 53.084 79.5761 53.28 80.1761 53.28Z" fill="#757F8C"/>
<path d="M101.924 271V262.456H103.472V269.728H107.468V271H101.924ZM108.531 271V264.94H110.019V271H108.531ZM109.755 264.16H108.783L109.983 261.688H111.519L109.755 264.16ZM118.812 264.784C119.5 264.784 120.012 264.992 120.348 265.408C120.684 265.816 120.852 266.44 120.852 267.28V271H119.352V267.328C119.352 266.848 119.272 266.504 119.112 266.296C118.96 266.08 118.704 265.972 118.344 265.972C117.928 265.972 117.6 266.12 117.36 266.416C117.128 266.704 117.012 267.104 117.012 267.616V271H115.512V267.328C115.512 266.856 115.428 266.512 115.26 266.296C115.1 266.08 114.844 265.972 114.492 265.972C114.076 265.972 113.748 266.12 113.508 266.416C113.268 266.704 113.148 267.104 113.148 267.616V271H111.66V266.656C111.66 266.016 111.628 265.444 111.564 264.94H112.968L113.076 265.9C113.252 265.54 113.504 265.264 113.832 265.072C114.168 264.88 114.552 264.784 114.984 264.784C115.912 264.784 116.516 265.168 116.796 265.936C116.988 265.576 117.26 265.296 117.612 265.096C117.972 264.888 118.372 264.784 118.812 264.784ZM122.453 271V264.94H123.941V271H122.453ZM122.357 262.192H124.025V263.668H122.357V262.192ZM127.49 266.068V268.78C127.49 269.492 127.822 269.848 128.486 269.848C128.67 269.848 128.87 269.816 129.086 269.752V270.94C128.822 271.036 128.502 271.084 128.126 271.084C127.438 271.084 126.91 270.892 126.542 270.508C126.174 270.124 125.99 269.572 125.99 268.852V266.068H124.826V264.94H125.99V263.464L127.49 262.96V264.94H129.098V266.068H127.49ZM135.433 268.048H131.257C131.289 268.696 131.449 269.176 131.737 269.488C132.033 269.792 132.469 269.944 133.045 269.944C133.709 269.944 134.325 269.728 134.893 269.296L135.325 270.328C135.037 270.56 134.681 270.748 134.257 270.892C133.841 271.028 133.417 271.096 132.985 271.096C131.993 271.096 131.213 270.816 130.645 270.256C130.077 269.696 129.793 268.928 129.793 267.952C129.793 267.336 129.917 266.788 130.165 266.308C130.413 265.828 130.761 265.456 131.209 265.192C131.657 264.92 132.165 264.784 132.733 264.784C133.565 264.784 134.221 265.056 134.701 265.6C135.189 266.136 135.433 266.876 135.433 267.82V268.048ZM132.769 265.864C132.369 265.864 132.041 265.984 131.785 266.224C131.537 266.456 131.377 266.796 131.305 267.244H134.125C134.077 266.788 133.937 266.444 133.705 266.212C133.481 265.98 133.169 265.864 132.769 265.864ZM147.148 264.784C147.836 264.784 148.348 264.992 148.684 265.408C149.02 265.816 149.188 266.44 149.188 267.28V271H147.688V267.328C147.688 266.848 147.608 266.504 147.448 266.296C147.296 266.08 147.04 265.972 146.68 265.972C146.264 265.972 145.936 266.12 145.696 266.416C145.464 266.704 145.348 267.104 145.348 267.616V271H143.848V267.328C143.848 266.856 143.764 266.512 143.596 266.296C143.436 266.08 143.18 265.972 142.828 265.972C142.412 265.972 142.084 266.12 141.844 266.416C141.604 266.704 141.484 267.104 141.484 267.616V271H139.996V266.656C139.996 266.016 139.964 265.444 139.9 264.94H141.304L141.412 265.9C141.588 265.54 141.84 265.264 142.168 265.072C142.504 264.88 142.888 264.784 143.32 264.784C144.248 264.784 144.852 265.168 145.132 265.936C145.324 265.576 145.596 265.296 145.948 265.096C146.308 264.888 146.708 264.784 147.148 264.784ZM156.093 268.048H151.917C151.949 268.696 152.109 269.176 152.397 269.488C152.693 269.792 153.129 269.944 153.705 269.944C154.369 269.944 154.985 269.728 155.553 269.296L155.985 270.328C155.697 270.56 155.341 270.748 154.917 270.892C154.501 271.028 154.077 271.096 153.645 271.096C152.653 271.096 151.873 270.816 151.305 270.256C150.737 269.696 150.453 268.928 150.453 267.952C150.453 267.336 150.577 266.788 150.825 266.308C151.073 265.828 151.421 265.456 151.869 265.192C152.317 264.92 152.825 264.784 153.393 264.784C154.225 264.784 154.881 265.056 155.361 265.6C155.849 266.136 156.093 266.876 156.093 267.82V268.048ZM153.429 265.864C153.029 265.864 152.701 265.984 152.445 266.224C152.197 266.456 152.037 266.796 151.965 267.244H154.785C154.737 266.788 154.597 266.444 154.365 266.212C154.141 265.98 153.829 265.864 153.429 265.864ZM160.831 264.784C162.279 264.784 163.003 265.616 163.003 267.28V271H161.503V267.352C161.503 266.872 161.411 266.524 161.227 266.308C161.043 266.084 160.759 265.972 160.375 265.972C159.919 265.972 159.551 266.12 159.271 266.416C158.991 266.704 158.851 267.088 158.851 267.568V271H157.363V266.656C157.363 266.016 157.331 265.444 157.267 264.94H158.671L158.779 265.936C158.987 265.568 159.267 265.284 159.619 265.084C159.979 264.884 160.383 264.784 160.831 264.784ZM166.813 271.096C165.717 271.096 164.845 270.84 164.197 270.328L164.617 269.272C165.265 269.752 166.005 269.992 166.837 269.992C167.197 269.992 167.473 269.932 167.665 269.812C167.865 269.692 167.965 269.524 167.965 269.308C167.965 269.124 167.897 268.98 167.761 268.876C167.625 268.764 167.393 268.668 167.065 268.588L166.057 268.36C164.953 268.12 164.401 267.556 164.401 266.668C164.401 266.3 164.505 265.976 164.713 265.696C164.921 265.408 165.213 265.184 165.589 265.024C165.965 264.864 166.401 264.784 166.897 264.784C167.329 264.784 167.745 264.852 168.145 264.988C168.545 265.116 168.897 265.304 169.201 265.552L168.757 266.572C168.149 266.124 167.525 265.9 166.885 265.9C166.541 265.9 166.273 265.964 166.081 266.092C165.889 266.22 165.793 266.396 165.793 266.62C165.793 266.796 165.849 266.936 165.961 267.04C166.081 267.144 166.281 267.232 166.561 267.304L167.593 267.532C168.193 267.668 168.629 267.88 168.901 268.168C169.181 268.448 169.321 268.816 169.321 269.272C169.321 269.832 169.097 270.276 168.649 270.604C168.201 270.932 167.589 271.096 166.813 271.096ZM176.125 264.94V271H174.661V270.064C174.469 270.4 174.213 270.656 173.893 270.832C173.573 271.008 173.205 271.096 172.789 271.096C171.309 271.096 170.569 270.264 170.569 268.6V264.94H172.057V268.612C172.057 269.052 172.145 269.376 172.321 269.584C172.505 269.792 172.785 269.896 173.161 269.896C173.601 269.896 173.953 269.752 174.217 269.464C174.481 269.176 174.613 268.792 174.613 268.312V264.94H176.125ZM183.549 264.94V271H182.074V270.028C181.89 270.364 181.626 270.628 181.282 270.82C180.938 271.004 180.546 271.096 180.105 271.096C179.578 271.096 179.11 270.968 178.701 270.712C178.294 270.456 177.978 270.092 177.754 269.62C177.53 269.148 177.418 268.6 177.418 267.976C177.418 267.352 177.53 266.8 177.754 266.32C177.986 265.832 178.306 265.456 178.714 265.192C179.122 264.92 179.586 264.784 180.105 264.784C180.546 264.784 180.938 264.88 181.282 265.072C181.626 265.256 181.89 265.516 182.074 265.852V264.94H183.549ZM180.514 269.92C181.01 269.92 181.394 269.748 181.666 269.404C181.938 269.06 182.074 268.576 182.074 267.952C182.074 267.312 181.938 266.82 181.666 266.476C181.394 266.132 181.006 265.96 180.502 265.96C180.006 265.96 179.618 266.14 179.338 266.5C179.066 266.852 178.93 267.344 178.93 267.976C178.93 268.6 179.066 269.08 179.338 269.416C179.618 269.752 180.01 269.92 180.514 269.92ZM185.183 271V262.168H186.671V271H185.183Z" fill="#3D4043"/>
<path d="M286.188 266.608C286.74 266.744 287.172 266.996 287.484 267.364C287.796 267.732 287.952 268.176 287.952 268.696C287.952 269.184 287.816 269.612 287.544 269.98C287.28 270.34 286.904 270.616 286.416 270.808C285.936 271 285.38 271.096 284.748 271.096C284.116 271.096 283.556 271 283.068 270.808C282.588 270.616 282.212 270.34 281.94 269.98C281.676 269.612 281.544 269.184 281.544 268.696C281.544 268.176 281.7 267.732 282.012 267.364C282.324 266.996 282.756 266.744 283.308 266.608C282.828 266.448 282.448 266.196 282.168 265.852C281.896 265.508 281.76 265.108 281.76 264.652C281.76 264.188 281.888 263.784 282.144 263.44C282.4 263.088 282.752 262.82 283.2 262.636C283.656 262.444 284.172 262.348 284.748 262.348C285.324 262.348 285.836 262.444 286.284 262.636C286.74 262.82 287.096 263.088 287.352 263.44C287.608 263.784 287.736 264.188 287.736 264.652C287.736 265.116 287.596 265.524 287.316 265.876C287.044 266.22 286.668 266.464 286.188 266.608ZM284.748 263.56C284.276 263.56 283.904 263.668 283.632 263.884C283.36 264.1 283.224 264.408 283.224 264.808C283.224 265.184 283.36 265.492 283.632 265.732C283.912 265.964 284.284 266.116 284.748 266.188C285.212 266.116 285.58 265.964 285.852 265.732C286.132 265.492 286.272 265.184 286.272 264.808C286.272 264.408 286.136 264.1 285.864 263.884C285.592 263.668 285.22 263.56 284.748 263.56ZM284.748 269.884C285.292 269.884 285.716 269.772 286.02 269.548C286.332 269.324 286.488 269.004 286.488 268.588C286.488 268.196 286.328 267.88 286.008 267.64C285.696 267.4 285.276 267.244 284.748 267.172C284.22 267.244 283.796 267.4 283.476 267.64C283.164 267.88 283.008 268.196 283.008 268.588C283.008 269.004 283.16 269.324 283.464 269.548C283.776 269.772 284.204 269.884 284.748 269.884ZM291.944 271.108C290.928 271.108 290.152 270.736 289.616 269.992C289.088 269.24 288.824 268.148 288.824 266.716C288.824 265.308 289.088 264.232 289.616 263.488C290.152 262.744 290.928 262.372 291.944 262.372C292.96 262.372 293.732 262.744 294.26 263.488C294.796 264.224 295.064 265.3 295.064 266.716C295.064 268.14 294.796 269.228 294.26 269.98C293.732 270.732 292.96 271.108 291.944 271.108ZM291.944 269.896C292.496 269.896 292.896 269.644 293.144 269.14C293.4 268.628 293.528 267.82 293.528 266.716C293.528 265.628 293.4 264.836 293.144 264.34C292.896 263.836 292.496 263.584 291.944 263.584C291.392 263.584 290.988 263.836 290.732 264.34C290.484 264.836 290.36 265.628 290.36 266.716C290.36 267.82 290.484 268.628 290.732 269.14C290.988 269.644 291.392 269.896 291.944 269.896ZM298.215 267.556C297.543 267.556 297.015 267.336 296.631 266.896C296.255 266.448 296.067 265.796 296.067 264.94C296.067 264.092 296.255 263.448 296.631 263.008C297.015 262.56 297.543 262.336 298.215 262.336C298.895 262.336 299.427 262.56 299.811 263.008C300.195 263.448 300.387 264.092 300.387 264.94C300.387 265.796 300.195 266.448 299.811 266.896C299.427 267.336 298.895 267.556 298.215 267.556ZM299.451 271H298.131L303.075 262.456H304.407L299.451 271ZM298.215 266.584C298.527 266.584 298.755 266.456 298.899 266.2C299.043 265.944 299.115 265.524 299.115 264.94C299.115 264.372 299.039 263.96 298.887 263.704C298.743 263.44 298.519 263.308 298.215 263.308C297.919 263.308 297.699 263.44 297.555 263.704C297.411 263.96 297.339 264.372 297.339 264.94C297.339 265.516 297.411 265.936 297.555 266.2C297.699 266.456 297.919 266.584 298.215 266.584ZM304.311 271.084C303.631 271.084 303.099 270.864 302.715 270.424C302.339 269.976 302.151 269.32 302.151 268.456C302.151 267.608 302.339 266.964 302.715 266.524C303.099 266.084 303.631 265.864 304.311 265.864C304.991 265.864 305.519 266.084 305.895 266.524C306.279 266.964 306.471 267.612 306.471 268.468C306.471 269.324 306.279 269.976 305.895 270.424C305.519 270.864 304.991 271.084 304.311 271.084ZM304.311 270.112C304.615 270.112 304.839 269.984 304.983 269.728C305.127 269.464 305.199 269.044 305.199 268.468C305.199 267.9 305.123 267.488 304.971 267.232C304.827 266.968 304.607 266.836 304.311 266.836C304.007 266.836 303.783 266.968 303.639 267.232C303.495 267.488 303.423 267.9 303.423 268.468C303.423 269.044 303.495 269.464 303.639 269.728C303.783 269.984 304.007 270.112 304.311 270.112Z" fill="#3D4043"/>
<rect x="101" y="279" width="208" height="5" rx="2.5" fill="#FFEE75"/>
<path d="M242 279H306.5C307.881 279 309 280.119 309 281.5V281.5C309 282.881 307.881 284 306.5 284H242V279Z" fill="#DADADA"/>
<defs>
<filter id="filter0_d" x="0" y="0" width="399" height="334" filterUnits="userSpaceOnUse" color-interpolation-filters="sRGB">
<feFlood flood-opacity="0" result="BackgroundImageFix"/>
<feColorMatrix in="SourceAlpha" type="matrix" values="0 0 0 0 0 0 0 0 0 0 0 0 0 0 0 0 0 0 127 0"/>
<feOffset dy="4"/>
<feGaussianBlur stdDeviation="15"/>
<feColorMatrix type="matrix" values="0 0 0 0 0.55 0 0 0 0 0.55 0 0 0 0 0.55 0 0 0 0.31 0"/>
<feBlend mode="normal" in2="BackgroundImageFix" result="effect1_dropShadow"/>
<feBlend mode="normal" in="SourceGraphic" in2="effect1_dropShadow" result="shape"/>
</filter>
</defs>
</svg>
