<svg width="650" height="650" viewBox="0 0 650 650" fill="none" xmlns="http://www.w3.org/2000/svg">
<path d="M317.078 548.899C426.474 548.899 515.157 537.826 515.157 524.166C515.157 510.507 426.474 499.434 317.078 499.434C207.683 499.434 119 510.507 119 524.166C119 537.826 207.683 548.899 317.078 548.899Z" fill="#212552"/>
<path d="M273.151 506.704V498.677C273.151 495.097 270.222 492.168 266.642 492.168H195.048C191.468 492.168 188.539 495.097 188.539 498.677V522.541C188.539 526.121 191.468 529.05 195.048 529.05H242.669C247.876 529.05 252.866 526.989 256.554 523.301L273.151 506.704Z" fill="#FEA82F"/>
<path opacity="0.3" d="M266.642 492.168H195.048C191.468 492.168 188.539 495.097 188.539 498.677V520.806H259.049L273.151 506.704V498.677C273.151 495.097 270.222 492.168 266.642 492.168Z" fill="#0A1E2B" stroke="#0A1E2B" stroke-width="6.5086" stroke-miterlimit="10" stroke-linecap="round" stroke-linejoin="round"/>
<path d="M361.016 506.704V498.677C361.016 495.097 363.944 492.168 367.524 492.168H439.119C442.699 492.168 445.627 495.097 445.627 498.677V522.541C445.627 526.121 442.699 529.05 439.119 529.05H391.498C386.291 529.05 381.301 526.989 377.613 523.301L361.016 506.704Z" fill="#FEA82F"/>
<path opacity="0.3" d="M439.119 492.168H367.524C363.944 492.168 361.016 495.097 361.016 498.677V506.704L375.118 520.806H445.627V498.677C445.627 495.097 442.699 492.168 439.119 492.168Z" fill="#0A1E2B" stroke="#0A1E2B" stroke-width="6.5086" stroke-miterlimit="10" stroke-linecap="round" stroke-linejoin="round"/>
<path d="M273.151 506.704V498.677C273.151 495.097 270.222 492.168 266.642 492.168H195.048C191.468 492.168 188.539 495.097 188.539 498.677V522.541C188.539 526.121 191.468 529.05 195.048 529.05H242.669C247.876 529.05 252.866 526.989 256.554 523.301L273.151 506.704Z" stroke="#212552" stroke-width="6.5086" stroke-miterlimit="10" stroke-linecap="round" stroke-linejoin="round"/>
<path d="M361.016 506.704V498.677C361.016 495.097 363.944 492.168 367.524 492.168H439.119C442.699 492.168 445.627 495.097 445.627 498.677V522.541C445.627 526.121 442.699 529.05 439.119 529.05H391.498C386.291 529.05 381.301 526.989 377.613 523.301L361.016 506.704Z" stroke="#212552" stroke-width="6.5086" stroke-miterlimit="10" stroke-linecap="round" stroke-linejoin="round"/>
<path d="M458.102 506.813H176.063C152.089 506.813 132.672 487.395 132.672 463.422V181.383C132.672 157.41 152.089 137.992 176.063 137.992H458.102C482.075 137.992 501.492 157.41 501.492 181.383V463.422C501.492 487.395 482.075 506.813 458.102 506.813Z" fill="#FFC288"/>
<path d="M458.102 137.992H176.063C152.089 137.992 132.672 157.41 132.672 181.383V206.332C132.672 182.359 152.089 162.942 176.063 162.942H458.102C482.075 162.942 501.492 182.359 501.492 206.332V181.383C501.492 157.41 482.075 137.992 458.102 137.992Z" fill="#FCECDD"/>
<path opacity="0.23" d="M391.605 137.557H419.375L400.609 177.042L391.605 137.557Z" fill="#0A1E2B" stroke="#0A1E2B" stroke-width="6.5086" stroke-miterlimit="10" stroke-linecap="round" stroke-linejoin="round"/>
<path d="M458.102 481.863H176.063C152.089 481.863 132.672 462.446 132.672 438.473V463.422C132.672 487.396 152.089 506.813 176.063 506.813H458.102C482.075 506.813 501.492 487.396 501.492 463.422V438.473C501.492 462.446 482.075 481.863 458.102 481.863Z" fill="#FEA82F"/>
<path d="M458.102 506.813H176.063C152.089 506.813 132.672 487.395 132.672 463.422V181.383C132.672 157.41 152.089 137.992 176.063 137.992H458.102C482.075 137.992 501.492 157.41 501.492 181.383V463.422C501.492 487.395 482.075 506.813 458.102 506.813Z" stroke="#212552" stroke-width="6.5086" stroke-miterlimit="10" stroke-linecap="round" stroke-linejoin="round"/>
<path d="M445.084 177.043H189.079C179.533 177.043 171.723 184.853 171.723 194.399V203.077C171.723 193.531 179.533 188.975 189.079 188.975H445.084C454.63 188.975 462.44 193.531 462.44 203.077V194.399C462.44 184.745 454.63 177.043 445.084 177.043Z" fill="#FCECDD"/>
<path d="M445.084 453.659H189.079C179.533 453.659 171.723 445.849 171.723 436.303V450.405C171.723 459.951 179.533 467.761 189.079 467.761H445.084C454.63 467.761 462.44 459.951 462.44 450.405V436.303C462.44 445.849 454.63 453.659 445.084 453.659Z" fill="#FEA82F"/>
<path d="M189.079 467.76C179.533 467.76 171.723 459.95 171.723 450.404V194.399C171.723 184.853 179.533 177.043 189.079 177.043H445.084C454.63 177.043 462.44 184.853 462.44 194.399V450.404C462.44 459.95 454.63 467.76 445.084 467.76H189.079Z" stroke="#212552" stroke-width="6.5086" stroke-miterlimit="10" stroke-linecap="round" stroke-linejoin="round"/>
<path opacity="0.23" d="M431.309 425.563H429.14C426.753 425.563 424.801 423.61 424.801 421.224V256.339C424.801 253.953 426.753 252 429.14 252H431.309C433.696 252 435.648 253.953 435.648 256.339V421.224C435.648 423.61 433.696 425.563 431.309 425.563Z" fill="#0A1E2B" stroke="#0A1E2B" stroke-width="6.5086" stroke-miterlimit="10" stroke-linecap="round" stroke-linejoin="round"/>
<path d="M431.309 403.867H429.14C426.753 403.867 424.801 401.915 424.801 399.528V234.644C424.801 232.257 426.753 230.305 429.14 230.305H431.309C433.696 230.305 435.648 232.257 435.648 234.644V399.528C435.648 401.915 433.696 403.867 431.309 403.867Z" fill="#FEA82F"/>
<path d="M431.309 403.867H429.14C426.753 403.867 424.801 401.915 424.801 399.528V234.644C424.801 232.257 426.753 230.305 429.14 230.305H431.309C433.696 230.305 435.648 232.257 435.648 234.644V399.528C435.648 401.915 433.696 403.867 431.309 403.867Z" stroke="#212552" stroke-width="6.5086" stroke-miterlimit="10" stroke-linecap="round" stroke-linejoin="round"/>
<path opacity="0.23" d="M317.084 401.59C356.026 401.59 387.594 370.022 387.594 331.08C387.594 292.139 356.026 260.57 317.084 260.57C278.143 260.57 246.574 292.139 246.574 331.08C246.574 370.022 278.143 401.59 317.084 401.59Z" fill="#0A1E2B" stroke="#0A1E2B" stroke-width="6.5086" stroke-miterlimit="10" stroke-linecap="round" stroke-linejoin="round"/>
<path d="M317.084 392.912C356.026 392.912 387.594 361.344 387.594 322.402C387.594 283.461 356.026 251.893 317.084 251.893C278.143 251.893 246.574 283.461 246.574 322.402C246.574 361.344 278.143 392.912 317.084 392.912Z" fill="#FFC288"/>
<path d="M317.084 392.912C356.026 392.912 387.594 361.344 387.594 322.402C387.594 283.461 356.026 251.893 317.084 251.893C278.143 251.893 246.574 283.461 246.574 322.402C246.574 361.344 278.143 392.912 317.084 392.912Z" stroke="#212552" stroke-width="6.5086" stroke-miterlimit="10" stroke-linecap="round" stroke-linejoin="round"/>
<path d="M317.081 380.979C349.433 380.979 375.659 354.753 375.659 322.402C375.659 290.05 349.433 263.824 317.081 263.824C284.73 263.824 258.504 290.05 258.504 322.402C258.504 354.753 284.73 380.979 317.081 380.979Z" fill="#FEA82F"/>
<path d="M317.082 277.926V366.877" stroke="#212552" stroke-width="10.8477" stroke-miterlimit="10" stroke-linecap="round" stroke-linejoin="round"/>
<path d="M361.556 322.402H272.605" stroke="#212552" stroke-width="10.8477" stroke-miterlimit="10" stroke-linecap="round" stroke-linejoin="round"/>
<path d="M348.541 290.943L285.625 353.86" stroke="#212552" stroke-width="10.8477" stroke-miterlimit="10" stroke-linecap="round" stroke-linejoin="round"/>
<path d="M348.541 353.86L285.625 290.943" stroke="#212552" stroke-width="10.8477" stroke-miterlimit="10" stroke-linecap="round" stroke-linejoin="round"/>
<path opacity="0.3" d="M317.084 374.145C302.114 374.145 289.965 361.995 289.965 347.025V319.906H344.203V347.025C344.203 361.995 332.054 374.145 317.084 374.145Z" fill="#0A1E2B" stroke="#0A1E2B" stroke-width="6.5086" stroke-miterlimit="10" stroke-linecap="round" stroke-linejoin="round"/>
<path opacity="0.23" d="M171.725 281.723C166.952 281.723 163.047 277.818 163.047 273.045V247.01C163.047 242.237 166.952 238.332 171.725 238.332C176.498 238.332 180.403 242.237 180.403 247.01V273.045C180.403 277.818 176.498 281.723 171.725 281.723Z" fill="#0A1E2B" stroke="#0A1E2B" stroke-width="6.5086" stroke-miterlimit="10" stroke-linecap="round" stroke-linejoin="round"/>
<path opacity="0.23" d="M171.725 423.285C166.952 423.285 163.047 419.38 163.047 414.607V388.573C163.047 383.8 166.952 379.895 171.725 379.895C176.498 379.895 180.403 383.8 180.403 388.573V414.607C180.403 419.38 176.498 423.285 171.725 423.285Z" fill="#0A1E2B" stroke="#0A1E2B" stroke-width="6.5086" stroke-miterlimit="10" stroke-linecap="round" stroke-linejoin="round"/>
<path d="M171.725 273.045C166.952 273.045 163.047 269.14 163.047 264.367V238.332C163.047 233.559 166.952 229.654 171.725 229.654C176.498 229.654 180.403 233.559 180.403 238.332V264.367C180.403 269.14 176.498 273.045 171.725 273.045Z" fill="#FEA82F"/>
<path d="M171.725 415.148C166.952 415.148 163.047 411.243 163.047 406.47V380.436C163.047 375.663 166.952 371.758 171.725 371.758C176.498 371.758 180.403 375.663 180.403 380.436V406.47C180.403 411.243 176.498 415.148 171.725 415.148Z" fill="#FEA82F"/>
<path d="M171.725 273.045C166.952 273.045 163.047 269.14 163.047 264.367V238.332C163.047 233.559 166.952 229.654 171.725 229.654C176.498 229.654 180.403 233.559 180.403 238.332V264.367C180.403 269.14 176.498 273.045 171.725 273.045Z" stroke="#212552" stroke-width="6.5086" stroke-miterlimit="10" stroke-linecap="round" stroke-linejoin="round"/>
<path d="M171.725 415.148C166.952 415.148 163.047 411.243 163.047 406.47V380.436C163.047 375.663 166.952 371.758 171.725 371.758C176.498 371.758 180.403 375.663 180.403 380.436V406.47C180.403 411.243 176.498 415.148 171.725 415.148Z" stroke="#212552" stroke-width="6.5086" stroke-miterlimit="10" stroke-linecap="round" stroke-linejoin="round"/>
<path d="M317.084 349.522C332.062 349.522 344.203 337.38 344.203 322.402C344.203 307.425 332.062 295.283 317.084 295.283C302.107 295.283 289.965 307.425 289.965 322.402C289.965 337.38 302.107 349.522 317.084 349.522Z" fill="#FFEA9E"/>
<path d="M317.083 334.551C323.793 334.551 329.232 329.111 329.232 322.401C329.232 315.691 323.793 310.252 317.083 310.252C310.373 310.252 304.934 315.691 304.934 322.401C304.934 329.111 310.373 334.551 317.083 334.551Z" fill="#EDC75D"/>
<path d="M317.082 347.35C330.862 347.35 342.032 336.18 342.032 322.401C342.032 308.622 330.862 297.451 317.082 297.451C303.303 297.451 292.133 308.622 292.133 322.401C292.133 336.18 303.303 347.35 317.082 347.35Z" stroke="#212552" stroke-width="8.67813" stroke-miterlimit="10" stroke-linecap="round" stroke-linejoin="round"/>
<path d="M402.779 177.043H328.473V120.418C328.473 116.079 331.944 112.607 336.283 112.607H394.86C399.199 112.607 402.671 116.079 402.671 120.418L402.779 177.043Z" fill="#5F9E71" stroke="#212552" stroke-width="6.5086" stroke-miterlimit="10" stroke-linecap="round" stroke-linejoin="round"/>
<path d="M388.134 126.059H372.296C372.296 129.747 369.367 132.676 365.679 132.676C361.991 132.676 359.062 129.747 359.062 126.059H343.116C341.272 126.059 339.645 127.577 339.645 129.53V177.043H391.496V129.53C391.605 127.577 389.978 126.059 388.134 126.059Z" fill="#90C49E"/>
<path d="M365.682 180.948C374.668 180.948 381.953 174.003 381.953 165.436C381.953 156.869 374.668 149.924 365.682 149.924C356.695 149.924 349.41 156.869 349.41 165.436C349.41 174.003 356.695 180.948 365.682 180.948Z" fill="white"/>
<path d="M402.779 177.043H328.473V120.418C328.473 116.079 331.944 112.607 336.283 112.607H394.86C399.199 112.607 402.671 116.079 402.671 120.418L402.779 177.043Z" stroke="#212552" stroke-width="6.5086" stroke-miterlimit="10" stroke-linecap="round" stroke-linejoin="round"/>
<path d="M531.862 157.299L509.949 154.262" stroke="#212552" stroke-width="6.5086" stroke-miterlimit="10" stroke-linecap="round" stroke-linejoin="round"/>
<path d="M479.684 122.912L476.43 101" stroke="#212552" stroke-width="6.5086" stroke-miterlimit="10" stroke-linecap="round" stroke-linejoin="round"/>
<path d="M501.379 130.831L517.108 115.102" stroke="#212552" stroke-width="6.5086" stroke-miterlimit="10" stroke-linecap="round" stroke-linejoin="round"/>
</svg>
