<svg width="453" height="492" viewBox="0 0 453 492" fill="none" xmlns="http://www.w3.org/2000/svg">
<path d="M215.899 491.195C335.136 491.195 431.797 479.125 431.797 464.237C431.797 449.349 335.136 437.279 215.899 437.279C96.6611 437.279 0 449.349 0 464.237C0 479.125 96.6611 491.195 215.899 491.195Z" fill="#212552"/>
<path d="M168.013 445.201V436.452C168.013 432.55 164.821 429.357 160.919 429.357H82.8832C78.9814 429.357 75.7891 432.55 75.7891 436.452V462.463C75.7891 466.365 78.9814 469.558 82.8832 469.558H134.789C140.464 469.558 145.903 467.311 149.923 463.291L168.013 445.201Z" fill="#FEA82F"/>
<path opacity="0.3" d="M160.919 429.357H82.8832C78.9814 429.357 75.7891 432.55 75.7891 436.452V460.572H152.642L168.013 445.201V436.452C168.013 432.55 164.821 429.357 160.919 429.357Z" fill="#0A1E2B" stroke="#0A1E2B" stroke-width="6" stroke-miterlimit="10" stroke-linecap="round" stroke-linejoin="round"/>
<path d="M263.785 445.201V436.452C263.785 432.55 266.978 429.357 270.879 429.357H348.915C352.817 429.357 356.009 432.55 356.009 436.452V462.463C356.009 466.365 352.817 469.558 348.915 469.558H297.009C291.334 469.558 285.895 467.311 281.875 463.291L263.785 445.201Z" fill="#FEA82F"/>
<path opacity="0.3" d="M348.915 429.357H270.879C266.978 429.357 263.785 432.55 263.785 436.452V445.201L279.156 460.572H356.009V436.452C356.009 432.55 352.817 429.357 348.915 429.357Z" fill="#0A1E2B" stroke="#0A1E2B" stroke-width="6" stroke-miterlimit="10" stroke-linecap="round" stroke-linejoin="round"/>
<path d="M168.013 445.201V436.452C168.013 432.55 164.821 429.357 160.919 429.357H82.8832C78.9814 429.357 75.7891 432.55 75.7891 436.452V462.463C75.7891 466.365 78.9814 469.558 82.8832 469.558H134.789C140.464 469.558 145.903 467.311 149.923 463.291L168.013 445.201Z" stroke="#212552" stroke-width="6" stroke-miterlimit="10" stroke-linecap="round" stroke-linejoin="round"/>
<path d="M263.785 445.201V436.452C263.785 432.55 266.978 429.357 270.879 429.357H348.915C352.817 429.357 356.009 432.55 356.009 436.452V462.463C356.009 466.365 352.817 469.558 348.915 469.558H297.009C291.334 469.558 285.895 467.311 281.875 463.291L263.785 445.201Z" stroke="#212552" stroke-width="6" stroke-miterlimit="10" stroke-linecap="round" stroke-linejoin="round"/>
<path d="M369.606 445.32H62.1928C36.0626 445.32 14.8984 424.156 14.8984 398.026V90.6127C14.8984 64.4826 36.0626 43.3184 62.1928 43.3184H369.606C395.736 43.3184 416.9 64.4826 416.9 90.6127V398.026C416.9 424.156 395.736 445.32 369.606 445.32Z" fill="#FFC288"/>
<path d="M369.606 43.3184H62.1928C36.0626 43.3184 14.8984 64.4826 14.8984 90.6127V117.807C14.8984 91.6768 36.0626 70.5126 62.1928 70.5126H369.606C395.736 70.5126 416.9 91.6768 416.9 117.807V90.6127C416.9 64.4826 395.736 43.3184 369.606 43.3184Z" fill="#FCECDD"/>
<path d="M369.606 418.124H62.1928C36.0626 418.124 14.8984 396.96 14.8984 370.83V398.024C14.8984 424.154 36.0626 445.319 62.1928 445.319H369.606C395.736 445.319 416.9 424.154 416.9 398.024V370.83C416.9 396.96 395.736 418.124 369.606 418.124Z" fill="#FEA82F"/>
<path opacity="0.23" d="M60.6484 396.96L103.686 445.318H184.087L235.992 444.964L225.706 367.992L60.6484 396.96Z" fill="#0A1E2B" stroke="#0A1E2B" stroke-width="6" stroke-miterlimit="10" stroke-linecap="round" stroke-linejoin="round"/>
<path d="M76.3826 402.753C65.9778 402.753 57.4648 394.24 57.4648 383.835V104.799C57.4648 94.3938 65.9778 85.8809 76.3826 85.8809H355.419C365.824 85.8809 374.337 94.3938 374.337 104.799V383.835C374.337 394.24 365.824 402.753 355.419 402.753H76.3826Z" fill="#FEA82F"/>
<path d="M374.337 104.799V383.835C374.337 394.24 365.824 402.753 355.419 402.753H76.3826C65.9778 402.753 57.4648 394.24 57.4648 383.835V104.799C57.4648 94.3938 65.9778 85.8809 76.3826 85.8809H227.015C232.336 88.3638 236.001 93.9209 236.001 99.9509V112.129H333.664C336.738 112.129 339.575 113.43 341.585 115.44L366.06 89.1914C371.026 92.502 374.337 98.2956 374.337 104.799Z" stroke="#212552" stroke-width="6" stroke-miterlimit="10" stroke-linecap="round" stroke-linejoin="round"/>
<path opacity="0.23" d="M323.375 353.57L387.932 389.75L400.938 349.313L366.058 325.43L323.375 353.57Z" fill="#0A1E2B" stroke="#0A1E2B" stroke-width="6" stroke-miterlimit="10" stroke-linecap="round" stroke-linejoin="round"/>
<path d="M366.057 89.1914L341.582 115.44C339.572 113.43 336.734 112.129 333.66 112.129H235.998V99.9509C235.998 93.9209 232.214 88.3638 227.012 85.8809H355.416C359.318 85.8809 363.101 87.0632 366.057 89.1914Z" fill="#FF6701"/>
<path d="M366.057 89.1914L341.582 115.44C339.572 113.43 336.734 112.129 333.66 112.129H235.998V99.9509C235.998 93.9209 232.214 88.3638 227.012 85.8809H355.416C359.318 85.8809 363.101 87.0632 366.057 89.1914Z" stroke="#212552" stroke-width="6" stroke-miterlimit="10" stroke-linecap="round" stroke-linejoin="round"/>
<path d="M341.588 115.322C343.598 117.332 344.899 120.17 344.899 123.244V358.415C344.899 365.273 339.342 370.712 332.603 370.712H236.004" stroke="#212552" stroke-width="6" stroke-miterlimit="10" stroke-linecap="round" stroke-linejoin="round"/>
<path d="M407.439 319.045L386.038 263.593C384.856 260.4 381.19 258.863 377.998 260.046L325.62 280.382L273.241 300.601C270.049 301.783 268.512 305.448 269.694 308.641L291.095 364.093C292.277 367.286 295.942 368.823 299.135 367.64L351.513 347.422L403.892 327.204C407.084 325.785 408.739 322.238 407.439 319.045Z" fill="#5F9E71" stroke="#212552" stroke-width="6" stroke-miterlimit="10" stroke-linecap="round" stroke-linejoin="round"/>
<path d="M407.439 319.045L386.038 263.593C384.856 260.4 381.19 258.863 377.998 260.046L325.62 280.382L273.241 300.601C270.049 301.783 268.512 305.448 269.694 308.641L291.095 364.093C292.277 367.286 295.942 368.823 299.135 367.64L351.513 347.422L403.892 327.204C407.084 325.785 408.739 322.238 407.439 319.045Z" stroke="#212552" stroke-width="6" stroke-miterlimit="10" stroke-linecap="round" stroke-linejoin="round"/>
<path d="M392.429 316.326L386.872 302.019C383.561 303.32 379.896 301.664 378.595 298.354C377.295 295.043 378.95 291.378 382.261 290.077L376.704 275.771C375.994 274.115 374.102 273.17 372.447 273.879L330.592 290.077L329.646 290.432L287.79 306.63C286.135 307.34 285.189 309.231 285.898 310.887L291.456 325.193C294.766 323.893 298.431 325.548 299.732 328.859C301.033 332.169 299.377 335.834 296.067 337.135L301.624 351.442C302.333 353.097 304.225 354.043 305.88 353.333L347.736 337.135L348.682 336.78L390.537 320.582C392.192 319.991 393.02 318.099 392.429 316.326Z" fill="#90C49E"/>
<path d="M344.151 328.499C351.886 325.509 355.618 316.518 352.486 308.418C349.354 300.317 340.545 296.175 332.81 299.165C325.075 302.156 321.343 311.147 324.475 319.247C327.607 327.347 336.416 331.49 344.151 328.499Z" fill="white"/>
<path opacity="0.23" d="M312.734 325.428L354.708 269.148L353.053 214.168L312.734 325.428Z" fill="#0A1E2B" stroke="#0A1E2B" stroke-width="6" stroke-miterlimit="10" stroke-linecap="round" stroke-linejoin="round"/>
<path d="M286.604 330.041H267.805L275.135 356.526L278.564 365.394L286.604 330.041Z" fill="#A78B75"/>
<path d="M261.895 370.831H222.523C215.192 370.831 210.699 364.801 212.473 357.943L218.266 334.769C219.212 330.749 224.06 327.793 229.026 327.793H255.629C260.595 327.793 265.324 330.749 266.388 334.769L272.182 357.943C273.719 364.683 269.226 370.831 261.895 370.831Z" fill="#FCECDD"/>
<path d="M272.057 357.943L266.264 334.769C265.318 330.749 260.47 327.793 255.504 327.793H228.901C223.935 327.793 219.206 330.749 218.142 334.769L218.023 335.36C219.088 335.124 220.152 335.005 221.216 335.005H247.819C252.785 335.005 257.514 337.961 258.578 341.981L264.372 365.156C264.845 367.047 264.845 368.939 264.372 370.594C270.165 369.412 273.476 363.973 272.057 357.943Z" fill="#FFE8A6"/>
<path d="M261.895 370.831H222.523C215.192 370.831 210.699 364.801 212.473 357.943L218.266 334.769C219.212 330.749 224.06 327.793 229.026 327.793H255.629C260.595 327.793 265.324 330.749 266.388 334.769L272.182 357.943C273.719 364.683 269.226 370.831 261.895 370.831Z" stroke="#212552" stroke-width="6" stroke-miterlimit="10" stroke-linecap="round" stroke-linejoin="round"/>
<path d="M231.743 327.794H192.37C185.04 327.794 180.547 321.764 182.32 314.906L188.114 291.732C189.06 287.712 193.907 284.756 198.873 284.756H225.358C230.324 284.756 235.054 287.712 236.118 291.732L241.911 314.906C243.567 321.645 239.074 327.794 231.743 327.794Z" fill="#FCECDD"/>
<path d="M231.743 327.794H192.37C185.04 327.794 180.547 321.764 182.32 314.906L188.114 291.732C189.06 287.712 193.907 284.756 198.873 284.756H225.358C230.324 284.756 235.054 287.712 236.118 291.732L241.911 314.906C243.567 321.645 239.074 327.794 231.743 327.794Z" stroke="#212552" stroke-width="6" stroke-miterlimit="10" stroke-linecap="round" stroke-linejoin="round"/>
<path d="M349.384 210.502L293.695 189.693C290.503 188.51 286.955 190.166 285.773 193.358L266.146 245.973L246.519 298.588C245.337 301.78 246.992 305.327 250.184 306.51L305.873 327.319C309.066 328.502 312.613 326.846 313.795 323.654L333.422 271.039L353.049 218.424C354.232 215.232 352.576 211.685 349.384 210.502Z" fill="#5F9E71" stroke="#212552" stroke-width="6" stroke-miterlimit="10" stroke-linecap="round" stroke-linejoin="round"/>
<path d="M337.328 219.963L323.021 214.643C321.839 217.953 318.055 219.609 314.745 218.426C311.434 217.244 309.779 213.46 310.961 210.15L296.655 204.829C294.881 204.238 292.989 205.066 292.398 206.721L276.673 248.813L276.318 249.759L260.593 291.851C260.002 293.624 260.829 295.516 262.485 296.107L276.791 301.428C277.973 298.117 281.757 296.462 285.068 297.644C288.378 298.827 290.034 302.61 288.851 305.921L303.158 311.241C304.931 311.832 306.823 311.005 307.414 309.35L323.14 267.258L323.494 266.312L339.22 224.22C339.929 222.565 339.101 220.673 337.328 219.963Z" fill="#90C49E"/>
<path d="M314.405 263.942C317.305 256.172 313.06 247.411 304.923 244.374C296.786 241.337 287.839 245.173 284.939 252.943C282.038 260.713 286.284 269.474 294.421 272.511C302.557 275.548 311.505 271.711 314.405 263.942Z" fill="white"/>
<path d="M349.384 210.502L293.695 189.693C290.503 188.51 286.955 190.166 285.773 193.358L266.146 245.973L246.519 298.588C245.337 301.78 246.992 305.327 250.184 306.51L305.873 327.319C309.066 328.502 312.613 326.846 313.795 323.654L333.422 271.039L353.049 218.424C354.232 215.232 352.576 211.685 349.384 210.502Z" stroke="#212552" stroke-width="6" stroke-miterlimit="10" stroke-linecap="round" stroke-linejoin="round"/>
<path d="M260.595 288.183L237.539 287.119L244.279 310.53L252.555 323.536L260.595 288.183Z" fill="#A78B75"/>
<path d="M296.184 327.794H256.812C249.481 327.794 244.988 321.764 246.762 314.906L252.555 291.732C253.501 287.712 258.349 284.756 263.315 284.756H289.918C294.884 284.756 299.613 287.712 300.677 291.732L306.471 314.906C308.008 321.645 303.515 327.794 296.184 327.794Z" fill="#FCECDD"/>
<path d="M306.226 314.906L300.433 291.732C299.487 287.712 294.639 284.756 289.673 284.756H263.188C258.223 284.756 253.493 287.712 252.429 291.732L252.074 293.151C253.493 292.678 254.912 292.323 256.449 292.323H283.052C288.018 292.323 292.747 295.279 293.812 299.299L299.605 322.473C299.96 324.128 300.078 325.665 299.842 327.202C304.926 325.547 307.645 320.463 306.226 314.906Z" fill="#FFE8A6"/>
<path d="M296.184 327.794H256.812C249.481 327.794 244.988 321.764 246.762 314.906L252.555 291.732C253.501 287.712 258.349 284.756 263.315 284.756H289.918C294.884 284.756 299.613 287.712 300.677 291.732L306.471 314.906C308.008 321.645 303.515 327.794 296.184 327.794Z" stroke="#212552" stroke-width="6" stroke-miterlimit="10" stroke-linecap="round" stroke-linejoin="round"/>
<path d="M265.794 284.757H226.421C219.091 284.757 214.598 278.727 216.371 271.869L222.165 248.695C223.111 244.675 227.958 241.719 232.924 241.719H259.527C264.493 241.719 269.223 244.675 270.287 248.695L276.08 271.869C277.499 278.608 273.124 284.757 265.794 284.757Z" fill="#FCECDD"/>
<path d="M275.841 271.869L270.048 248.695C269.102 244.675 264.254 241.719 259.288 241.719H232.685C227.719 241.719 222.99 244.675 221.926 248.695V248.931C223.108 248.576 224.409 248.34 225.709 248.34H252.312C257.278 248.34 262.008 251.296 263.072 255.316L268.865 278.49C269.338 280.5 269.338 282.51 268.747 284.284C274.304 282.865 277.26 277.662 275.841 271.869Z" fill="#FFE8A6"/>
<path d="M265.794 284.757H226.421C219.091 284.757 214.598 278.727 216.371 271.869L222.165 248.695C223.111 244.675 227.958 241.719 232.924 241.719H259.527C264.493 241.719 269.223 244.675 270.287 248.695L276.08 271.869C277.499 278.608 273.124 284.757 265.794 284.757Z" stroke="#212552" stroke-width="6" stroke-miterlimit="10" stroke-linecap="round" stroke-linejoin="round"/>
<path opacity="0.23" d="M355.415 85.8809H163.637L169.194 258.032H273.123L353.05 214.167L374.333 135.185V104.799C374.333 94.2756 365.82 85.8809 355.415 85.8809Z" fill="#0A1E2B" stroke="#0A1E2B" stroke-width="6" stroke-miterlimit="10" stroke-linecap="round" stroke-linejoin="round"/>
<path d="M328.106 370.831H288.734C281.403 370.831 276.91 364.801 278.684 357.943L284.477 334.769C285.423 330.749 290.271 327.793 295.237 327.793H321.84C326.806 327.793 331.535 330.749 332.599 334.769L338.393 357.943C339.93 364.683 335.437 370.831 328.106 370.831Z" fill="#FCECDD"/>
<path d="M338.153 357.943L332.359 334.769C331.414 330.749 326.566 327.793 321.6 327.793H295.115C290.149 327.793 285.42 330.749 284.356 334.769L283.883 336.779C285.183 336.306 286.602 336.069 288.021 336.069H314.624C319.59 336.069 324.319 339.025 325.384 343.045L331.177 366.22C331.532 367.638 331.65 369.057 331.414 370.358C336.734 368.821 339.572 363.618 338.153 357.943Z" fill="#FFE8A6"/>
<path d="M328.106 370.831H288.734C281.403 370.831 276.91 364.801 278.684 357.943L284.477 334.769C285.423 330.749 290.271 327.793 295.237 327.793H321.84C326.806 327.793 331.535 330.749 332.599 334.769L338.393 357.943C339.93 364.683 335.437 370.831 328.106 370.831Z" stroke="#212552" stroke-width="6" stroke-miterlimit="10" stroke-linecap="round" stroke-linejoin="round"/>
<path d="M72.7188 387.385V101.018C72.7188 90.2582 78.7488 80.4447 86.1976 78.9076L181.85 59.7534C191.428 57.8616 199.231 66.3746 199.231 78.6711V409.731C199.231 422.146 191.309 430.541 181.85 428.649L86.1976 409.495C78.7488 408.076 72.7188 398.144 72.7188 387.385Z" fill="#FEA82F"/>
<path d="M72.7188 387.385V101.018C72.7188 90.2582 78.7488 80.4447 86.1976 78.9076L181.85 59.7534C191.428 57.8616 199.231 66.3746 199.231 78.6711V409.731C199.231 422.146 191.309 430.541 181.85 428.649L86.1976 409.495C78.7488 408.076 72.7188 398.144 72.7188 387.385Z" stroke="#212552" stroke-width="6" stroke-miterlimit="10" stroke-linecap="round" stroke-linejoin="round"/>
<path d="M57.4648 383.837V104.8C57.4648 94.3954 63.2584 84.4636 70.589 82.8083L166.242 60.4618C175.937 58.2153 184.095 66.3735 184.095 78.7883V409.849C184.095 422.263 176.055 430.422 166.242 428.175L70.7073 405.828C63.2584 404.055 57.4648 394.241 57.4648 383.837Z" fill="#FFC288"/>
<path d="M166.237 409.141L70.7023 386.795C63.3717 385.021 57.5781 375.207 57.5781 364.803V383.72C57.5781 394.125 63.3717 404.057 70.7023 405.712L166.237 428.059C175.932 430.305 184.09 422.147 184.09 409.732V390.815C184.09 403.348 175.932 411.506 166.237 409.141Z" fill="#FEA82F"/>
<path d="M166.237 60.4618L70.7023 82.8083C63.3717 84.5818 57.5781 94.3954 57.5781 104.8V118.988C57.5781 108.584 63.3717 98.6519 70.7023 96.9966L166.237 74.65C175.932 72.4036 184.09 80.5618 184.09 92.9766V78.7883C184.09 66.3735 175.932 58.2153 166.237 60.4618Z" fill="#FCECDD"/>
<path d="M169.194 160.252C172.263 160.252 174.751 154.64 174.751 147.719C174.751 140.797 172.263 135.186 169.194 135.186C166.125 135.186 163.637 140.797 163.637 147.719C163.637 154.64 166.125 160.252 169.194 160.252Z" fill="#212552"/>
<path d="M57.4648 383.837V104.8C57.4648 94.3954 63.2584 84.4636 70.589 82.8083L166.242 60.4618C175.937 58.2153 184.095 66.3735 184.095 78.7883V409.849C184.095 422.263 176.055 430.422 166.242 428.175L70.7073 405.828C63.2584 404.055 57.4648 394.241 57.4648 383.837Z" stroke="#212552" stroke-width="6" stroke-miterlimit="10" stroke-linecap="round" stroke-linejoin="round"/>
<path d="M116.101 317.27C134.32 317.27 149.089 288.367 149.089 252.713C149.089 217.059 134.32 188.156 116.101 188.156C97.8824 188.156 83.1133 217.059 83.1133 252.713C83.1133 288.367 97.8824 317.27 116.101 317.27Z" fill="#FEA82F" stroke="#FEA82F" stroke-width="6" stroke-miterlimit="10" stroke-linecap="round" stroke-linejoin="round"/>
<path d="M114.926 323.066C120.542 323.066 125.094 318.937 125.094 313.843C125.094 308.75 120.542 304.621 114.926 304.621C109.31 304.621 104.758 308.75 104.758 313.843C104.758 318.937 109.31 323.066 114.926 323.066Z" fill="#FEA82F" stroke="#FEA82F" stroke-width="6" stroke-miterlimit="10" stroke-linecap="round" stroke-linejoin="round"/>
<path d="M117.527 310.529C136.987 310.529 152.762 281.149 152.762 244.908C152.762 208.667 136.987 179.287 117.527 179.287C98.0679 179.287 82.293 208.667 82.293 244.908C82.293 281.149 98.0679 310.529 117.527 310.529Z" fill="#FFC288"/>
<path d="M114.925 299.298C130.205 299.298 142.592 274.948 142.592 244.91C142.592 214.872 130.205 190.521 114.925 190.521C99.6448 190.521 87.2578 214.872 87.2578 244.91C87.2578 274.948 99.6448 299.298 114.925 299.298Z" fill="#FEA82F"/>
<g opacity="0.23">
<path d="M84.303 244.91L136.09 246.92L120.72 310.295L103.694 305.329L82.293 244.91" fill="#0A1E2B"/>
<path d="M84.303 244.91L136.09 246.92L120.72 310.295L103.694 305.329L82.293 244.91" stroke="#0A1E2B" stroke-width="6" stroke-miterlimit="10" stroke-linecap="round" stroke-linejoin="round"/>
</g>
<path d="M117.527 310.529C136.987 310.529 152.762 281.149 152.762 244.908C152.762 208.667 136.987 179.287 117.527 179.287C98.0679 179.287 82.293 208.667 82.293 244.908C82.293 281.149 98.0679 310.529 117.527 310.529Z" stroke="#212552" stroke-width="6" stroke-miterlimit="10" stroke-linecap="round" stroke-linejoin="round"/>
<path opacity="0.23" d="M57.4628 199.982C52.2604 199.982 48.0039 195.725 48.0039 190.523V162.146C48.0039 156.944 52.2604 152.688 57.4628 152.688C62.6651 152.688 66.9216 156.944 66.9216 162.146V190.523C66.9216 195.725 62.6651 199.982 57.4628 199.982Z" fill="#0A1E2B" stroke="#0A1E2B" stroke-width="6" stroke-miterlimit="10" stroke-linecap="round" stroke-linejoin="round"/>
<path opacity="0.23" d="M57.4628 354.279C52.2604 354.279 48.0039 350.022 48.0039 344.82V316.443C48.0039 311.241 52.2604 306.984 57.4628 306.984C62.6651 306.984 66.9216 311.241 66.9216 316.443V344.82C66.9216 350.022 62.6651 354.279 57.4628 354.279Z" fill="#0A1E2B" stroke="#0A1E2B" stroke-width="6" stroke-miterlimit="10" stroke-linecap="round" stroke-linejoin="round"/>
<path d="M57.4628 190.521C52.2604 190.521 48.0039 186.264 48.0039 181.062V152.685C48.0039 147.483 52.2604 143.227 57.4628 143.227C62.6651 143.227 66.9216 147.483 66.9216 152.685V181.062C66.9216 186.264 62.6651 190.521 57.4628 190.521Z" fill="#FEA82F"/>
<path d="M57.4628 345.411C52.2604 345.411 48.0039 341.155 48.0039 335.953V307.576C48.0039 302.374 52.2604 298.117 57.4628 298.117C62.6651 298.117 66.9216 302.374 66.9216 307.576V335.953C66.9216 341.155 62.6651 345.411 57.4628 345.411Z" fill="#FEA82F"/>
<path d="M57.4628 190.521C52.2604 190.521 48.0039 186.264 48.0039 181.062V152.685C48.0039 147.483 52.2604 143.227 57.4628 143.227C62.6651 143.227 66.9216 147.483 66.9216 152.685V181.062C66.9216 186.264 62.6651 190.521 57.4628 190.521Z" stroke="#212552" stroke-width="6" stroke-miterlimit="10" stroke-linecap="round" stroke-linejoin="round"/>
<path d="M57.4628 345.411C52.2604 345.411 48.0039 341.155 48.0039 335.953V307.576C48.0039 302.374 52.2604 298.117 57.4628 298.117C62.6651 298.117 66.9216 302.374 66.9216 307.576V335.953C66.9216 341.155 62.6651 345.411 57.4628 345.411Z" stroke="#212552" stroke-width="6" stroke-miterlimit="10" stroke-linecap="round" stroke-linejoin="round"/>
<path d="M449.997 64.3633L426.113 61.0527" stroke="#212552" stroke-width="6" stroke-miterlimit="10" stroke-linecap="round" stroke-linejoin="round"/>
<path d="M393.129 26.8836L389.582 3" stroke="#212552" stroke-width="6" stroke-miterlimit="10" stroke-linecap="round" stroke-linejoin="round"/>
<path d="M416.777 35.5153L433.922 18.3711" stroke="#212552" stroke-width="6" stroke-miterlimit="10" stroke-linecap="round" stroke-linejoin="round"/>
<path d="M111.141 220.672H92.5781V269.267H111.141C119.299 269.267 125.802 258.389 125.802 245.028C125.802 231.668 119.181 220.672 111.141 220.672Z" fill="#FF6701"/>
<path d="M111.141 220.672H92.5781V269.267H111.141C119.299 269.267 125.802 258.389 125.802 245.028C125.802 231.668 119.181 220.672 111.141 220.672Z" stroke="#212552" stroke-width="6" stroke-miterlimit="10" stroke-linecap="round" stroke-linejoin="round"/>
<path d="M111.146 269.149C119.243 269.149 125.807 258.297 125.807 244.91C125.807 231.524 119.243 220.672 111.146 220.672C103.048 220.672 96.4844 231.524 96.4844 244.91C96.4844 258.297 103.048 269.149 111.146 269.149Z" stroke="#212552" stroke-width="10" stroke-miterlimit="10" stroke-linecap="round" stroke-linejoin="round"/>
<path d="M134.316 244.91H110.078" stroke="#212552" stroke-width="9" stroke-miterlimit="10" stroke-linecap="round" stroke-linejoin="round"/>
<path d="M96.3594 220.673H111.139V201.637L96.3594 220.673Z" stroke="#212552" stroke-width="6" stroke-miterlimit="10" stroke-linecap="round" stroke-linejoin="round"/>
<path d="M96.3594 220.673H111.139V201.637L96.3594 220.673Z" fill="#212552"/>
<path d="M96.3594 269.148H111.139V288.184L96.3594 269.148Z" fill="#212552"/>
<path d="M96.3594 269.148H111.139V288.184L96.3594 269.148Z" stroke="#212552" stroke-width="6" stroke-miterlimit="10" stroke-linecap="round" stroke-linejoin="round"/>
<path d="M92.5753 269.149C100.673 269.149 107.237 258.297 107.237 244.91C107.237 231.524 100.673 220.672 92.5753 220.672C84.4782 220.672 77.9141 231.524 77.9141 244.91C77.9141 258.297 84.4782 269.149 92.5753 269.149Z" fill="#FFEA9E"/>
<path d="M91.396 256.735C95.3793 256.735 98.6083 251.441 98.6083 244.911C98.6083 238.381 95.3793 233.088 91.396 233.088C87.4127 233.088 84.1836 238.381 84.1836 244.911C84.1836 251.441 87.4127 256.735 91.396 256.735Z" fill="#FCECDD"/>
<path d="M92.5753 269.149C100.673 269.149 107.237 258.297 107.237 244.91C107.237 231.524 100.673 220.672 92.5753 220.672C84.4782 220.672 77.9141 231.524 77.9141 244.91C77.9141 258.297 84.4782 269.149 92.5753 269.149Z" stroke="#212552" stroke-width="6" stroke-miterlimit="10" stroke-linecap="round" stroke-linejoin="round"/>
<path d="M222.17 404.056L198.168 406.42V82.0996L222.17 84.4643C229.855 85.1737 236.003 92.1497 236.003 99.835V388.567C236.003 396.37 229.855 403.346 222.17 404.056Z" fill="#FFC288"/>
<path opacity="0.23" d="M236.706 205.421V171.605H210.34V207.431H210.458C210.458 214.762 216.37 220.673 223.701 220.673C231.031 220.673 236.943 214.762 236.943 207.431C236.943 206.721 236.825 206.13 236.706 205.421Z" fill="#0A1E2B" stroke="#0A1E2B" stroke-width="6" stroke-miterlimit="10" stroke-linecap="round" stroke-linejoin="round"/>
<path d="M235.997 99.835V388.567C235.997 394.597 232.332 400.154 227.247 402.637C225.829 403.346 224.173 403.819 222.518 403.937L199.344 406.302V82.0996L222.518 84.4643C224.173 84.5826 225.71 85.0555 227.247 85.7649C232.332 88.3661 235.997 93.805 235.997 99.835Z" stroke="#212552" stroke-width="6" stroke-miterlimit="10" stroke-linecap="round" stroke-linejoin="round"/>
<path d="M340.398 367.992L369.012 396.96" stroke="#212552" stroke-width="6" stroke-miterlimit="10" stroke-linecap="round" stroke-linejoin="round"/>
<path d="M224.055 155.996C216.724 155.996 210.812 161.908 210.812 169.239C210.812 176.569 216.724 182.481 224.055 182.481H236.943V156.114H224.055V155.996Z" fill="#FEA82F"/>
<path d="M224.055 155.996C216.724 155.996 210.812 161.908 210.812 169.239C210.812 176.569 216.724 182.481 224.055 182.481H236.943V156.114H224.055V155.996Z" stroke="#212552" stroke-width="6" stroke-miterlimit="10" stroke-linecap="round" stroke-linejoin="round"/>
<path d="M236.946 182.481C244.259 182.481 250.188 176.552 250.188 169.239C250.188 161.925 244.259 155.996 236.946 155.996C229.632 155.996 223.703 161.925 223.703 169.239C223.703 176.552 229.632 182.481 236.946 182.481Z" fill="#FFC288"/>
<path d="M236.946 182.481C244.259 182.481 250.188 176.552 250.188 169.239C250.188 161.925 244.259 155.996 236.946 155.996C229.632 155.996 223.703 161.925 223.703 169.239C223.703 176.552 229.632 182.481 236.946 182.481Z" stroke="#212552" stroke-width="6" stroke-miterlimit="10" stroke-linecap="round" stroke-linejoin="round"/>
<path d="M236.946 182.481C244.259 182.481 250.188 176.552 250.188 169.239C250.188 161.925 244.259 155.996 236.946 155.996C229.632 155.996 223.703 161.925 223.703 169.239C223.703 176.552 229.632 182.481 236.946 182.481Z" stroke="#212552" stroke-width="6" stroke-miterlimit="10" stroke-linecap="round" stroke-linejoin="round"/>
<path opacity="0.23" d="M236.706 356.403V322.588H210.34V358.413H210.458C210.458 365.744 216.37 371.656 223.701 371.656C231.031 371.656 236.943 365.744 236.943 358.413C236.943 357.704 236.825 356.994 236.706 356.403Z" fill="#0A1E2B" stroke="#0A1E2B" stroke-width="6" stroke-miterlimit="10" stroke-linecap="round" stroke-linejoin="round"/>
<path d="M224.055 306.984C216.724 306.984 210.812 312.896 210.812 320.227C210.812 327.557 216.724 333.469 224.055 333.469H236.943V307.103H224.055V306.984Z" fill="#FEA82F"/>
<path d="M224.055 306.984C216.724 306.984 210.812 312.896 210.812 320.227C210.812 327.557 216.724 333.469 224.055 333.469H236.943V307.103H224.055V306.984Z" stroke="#212552" stroke-width="6" stroke-miterlimit="10" stroke-linecap="round" stroke-linejoin="round"/>
<path d="M236.946 333.35C244.259 333.35 250.188 327.421 250.188 320.108C250.188 312.794 244.259 306.865 236.946 306.865C229.632 306.865 223.703 312.794 223.703 320.108C223.703 327.421 229.632 333.35 236.946 333.35Z" fill="#FFC288"/>
<path d="M236.946 333.35C244.259 333.35 250.188 327.421 250.188 320.108C250.188 312.794 244.259 306.865 236.946 306.865C229.632 306.865 223.703 312.794 223.703 320.108C223.703 327.421 229.632 333.35 236.946 333.35Z" stroke="#212552" stroke-width="6" stroke-miterlimit="10" stroke-linecap="round" stroke-linejoin="round"/>
<path d="M157.964 330.397C155.363 330.397 153.235 328.269 153.235 325.668V157.773C153.235 155.172 155.363 153.044 157.964 153.044H167.66V142.402H156.782C148.978 142.402 142.594 148.787 142.594 156.591V326.85C142.594 334.654 148.978 341.038 156.782 341.038H167.66V330.397H157.964Z" fill="#FEA82F"/>
<path d="M169.194 347.421C172.263 347.421 174.751 341.81 174.751 334.888C174.751 327.967 172.263 322.355 169.194 322.355C166.125 322.355 163.637 327.967 163.637 334.888C163.637 341.81 166.125 347.421 169.194 347.421Z" fill="#212552"/>
<path d="M157.964 330.397C155.363 330.397 153.235 328.269 153.235 325.668V157.773C153.235 155.172 155.363 153.044 157.964 153.044H167.66V142.402H156.782C148.978 142.402 142.594 148.787 142.594 156.591V326.85C142.594 334.654 148.978 341.038 156.782 341.038H167.66V330.397H157.964Z" stroke="#212552" stroke-width="6" stroke-miterlimit="10" stroke-linecap="round" stroke-linejoin="round"/>
<path d="M369.606 445.32H62.1928C36.0626 445.32 14.8984 424.156 14.8984 398.026V90.6127C14.8984 64.4826 36.0626 43.3184 62.1928 43.3184H369.606C395.736 43.3184 416.9 64.4826 416.9 90.6127V398.026C416.9 424.156 395.736 445.32 369.606 445.32Z" stroke="#212552" stroke-width="6" stroke-miterlimit="10" stroke-linecap="round" stroke-linejoin="round"/>
<path opacity="0.23" d="M168.012 158.006L169.194 367.993" stroke="#0A1E2B" stroke-width="8" stroke-miterlimit="10" stroke-linecap="round" stroke-linejoin="round"/>
<path d="M166.945 60.1049L185.272 59.5137" stroke="#212552" stroke-width="6" stroke-miterlimit="10" stroke-linecap="round" stroke-linejoin="round"/>
<path d="M168.605 428.412L185.513 428.885" stroke="#212552" stroke-width="6" stroke-miterlimit="10" stroke-linecap="round" stroke-linejoin="round"/>
</svg>
