<svg id="Layer_1" data-name="Layer 1" xmlns="http://www.w3.org/2000/svg" viewBox="0 0 651.62 121.86"><defs><style>.cls-1{fill:#fc730d;}.cls-2{fill:#302c3a;}</style></defs><title>logo_nuevo_FINAL</title><path class="cls-1" d="M1101.32,489.61a19.15,19.15,0,1,0-16-22.17A19.32,19.32,0,0,0,1101.32,489.61Z" transform="translate(-472.46 -389.63)"/><path class="cls-2" d="M520.7,407.81a27.13,27.13,0,0,0-10,1.8,22.24,22.24,0,0,0-7.92,5.22,25.11,25.11,0,0,0-5.31,8.46,31.87,31.87,0,0,0-2,11.7q0,13.32,7,20.07t18.18,6.75a31.2,31.2,0,0,0,10.89-1.71,61.76,61.76,0,0,0,8.19-3.69,15.58,15.58,0,0,1,4.05,4.14,9.64,9.64,0,0,1,1.53,5.4q0,6.12-7.2,10.08t-19.44,4a60.36,60.36,0,0,1-18.81-2.79,39.11,39.11,0,0,1-14.67-8.46,37.8,37.8,0,0,1-9.45-14.13A53.34,53.34,0,0,1,472.46,435a50.94,50.94,0,0,1,3.6-19.89,39.88,39.88,0,0,1,9.81-14.22,40.31,40.31,0,0,1,14.49-8.46A54.88,54.88,0,0,1,518,389.63q12.06,0,19.26,4.23t7.2,10.35a9.33,9.33,0,0,1-1.53,5.22,14.22,14.22,0,0,1-3.51,3.78,66.56,66.56,0,0,0-8-3.69A29.7,29.7,0,0,0,520.7,407.81Z" transform="translate(-472.46 -389.63)"/><path class="cls-2" d="M641.76,434.81a53.09,53.09,0,0,1-3.15,18.81,41,41,0,0,1-8.91,14.31A38.43,38.43,0,0,1,615.84,477a54,54,0,0,1-36.36,0,39,39,0,0,1-13.86-9,40.09,40.09,0,0,1-8.91-14.22,53.64,53.64,0,0,1-3.15-19A53.09,53.09,0,0,1,556.71,416a39.46,39.46,0,0,1,9-14.22,39.93,39.93,0,0,1,13.95-9,53,53,0,0,1,36,0,39.31,39.31,0,0,1,14,9.09,40.36,40.36,0,0,1,9,14.31A52.54,52.54,0,0,1,641.76,434.81Zm-44.1-27.18q-9.72,0-15.3,7.11t-5.58,20.07q0,13.14,5.49,20.16t15.39,7q9.9,0,15.39-7.11t5.49-20.07q0-13-5.58-20.07T597.66,407.63Z" transform="translate(-472.46 -389.63)"/><path class="cls-2" d="M708.91,411.23q-4.41-3.6-12-3.6a35,35,0,0,0-9.63,1.26,30.9,30.9,0,0,0-7.65,3.24v65.16q-1.62.36-4.32.9a31.37,31.37,0,0,1-6.12.54q-6.3,0-9.36-2.34c-2.05-1.56-3.06-4.32-3.06-8.28V410.33a12.44,12.44,0,0,1,1.8-7,19.58,19.58,0,0,1,5.58-5.22,46.81,46.81,0,0,1,13.86-6,70.35,70.35,0,0,1,19.08-2.43q18.54,0,28.71,8.19t10.17,24v55.44q-1.44.36-4.23.9a31.74,31.74,0,0,1-6,.54q-6.48,0-9.45-2.34t-3-8.28V422.57Q713.32,414.83,708.91,411.23Z" transform="translate(-472.46 -389.63)"/><path class="cls-2" d="M839.41,434.81a53.09,53.09,0,0,1-3.15,18.81,41,41,0,0,1-8.91,14.31A38.43,38.43,0,0,1,813.49,477a54,54,0,0,1-36.36,0,39,39,0,0,1-13.86-9,40.09,40.09,0,0,1-8.91-14.22,53.64,53.64,0,0,1-3.15-19A53.09,53.09,0,0,1,754.36,416a39.46,39.46,0,0,1,9-14.22,39.93,39.93,0,0,1,13.95-9,53,53,0,0,1,36,0,39.31,39.31,0,0,1,14,9.09,40.36,40.36,0,0,1,9,14.31A52.54,52.54,0,0,1,839.41,434.81Zm-44.1-27.18q-9.72,0-15.3,7.11t-5.58,20.07q0,13.14,5.49,20.16t15.39,7q9.9,0,15.39-7.11t5.49-20.07q0-13-5.58-20.07T795.31,407.63Z" transform="translate(-472.46 -389.63)"/><path class="cls-2" d="M981.35,477.29q-1.44.36-4.23.9a31.74,31.74,0,0,1-6,.54q-6.48,0-9.45-2.34t-3-8.28v-46.8q0-7.2-4-10.44t-10.44-3.24a22.34,22.34,0,0,0-8.37,1.62,24.25,24.25,0,0,0-7.11,4.32,24,24,0,0,1,.54,5v58.68q-1.44.36-4.23.9a31.74,31.74,0,0,1-6,.54q-6.48,0-9.45-2.34t-3-8.28v-46.8q0-7.2-4.14-10.44a16.72,16.72,0,0,0-10.62-3.24,23.08,23.08,0,0,0-8.28,1.44,45.55,45.55,0,0,0-6.3,2.88v65.34q-1.62.36-4.32.9a31.37,31.37,0,0,1-6.12.54q-6.3,0-9.36-2.34t-3.06-8.28V410.33a12.53,12.53,0,0,1,1.8-6.93,19.08,19.08,0,0,1,5.58-5.31,50.08,50.08,0,0,1,13.68-6,60.41,60.41,0,0,1,17.1-2.43q16.38,0,26.64,8.82a50.25,50.25,0,0,1,12-6.3,45.52,45.52,0,0,1,15.93-2.52,50.65,50.65,0,0,1,13.32,1.71,28.71,28.71,0,0,1,10.89,5.49,26.8,26.8,0,0,1,7.29,9.63,33.06,33.06,0,0,1,2.7,14Z" transform="translate(-472.46 -389.63)"/><path class="cls-2" d="M1014.31,457q-4.32-9-10.26-24.3a381.24,381.24,0,0,1-11.88-37.08,14.47,14.47,0,0,1,5-3.69,16.23,16.23,0,0,1,7-1.53,12.69,12.69,0,0,1,7.65,2.16q3,2.16,4.77,7.74,8.46,27.18,19.26,55.08h.72q2.34-5.94,4.95-13.5t5-15.84q2.43-8.28,4.59-16.74t3.78-16.38a28.07,28.07,0,0,1,4.59-1.8,18,18,0,0,1,5.13-.72,14.85,14.85,0,0,1,8.1,2.16q3.42,2.16,3.42,7,0,5.4-2.34,15.21t-6.21,21.06q-3.87,11.25-8.73,22.68a204,204,0,0,1-9.72,20.07q-9.36,16.56-17,24.75t-15,8.19a12.91,12.91,0,0,1-9.27-3.33,14.79,14.79,0,0,1-4.41-8.37q2.88-2.52,6.12-5.85t6.48-7.11q3.24-3.78,6.12-7.74a84.43,84.43,0,0,0,5-7.74,20.74,20.74,0,0,1-3.15-1.35,12.07,12.07,0,0,1-3.06-2.43,33.31,33.31,0,0,1-3.24-4.14A44.48,44.48,0,0,1,1014.31,457Z" transform="translate(-472.46 -389.63)"/></svg>