<svg width="143" height="45" viewBox="0 0 143 45" fill="none" xmlns="http://www.w3.org/2000/svg">
<path d="M18.6738 20.918L15.1582 24.4512C14.9824 23.959 14.7422 23.5195 14.4375 23.1328C14.1328 22.7344 13.7871 22.4004 13.4004 22.1309C13.0254 21.8613 12.6152 21.6562 12.1699 21.5156C11.7246 21.375 11.2676 21.3047 10.7988 21.3047C10.1426 21.3047 9.52148 21.4395 8.93555 21.709C8.36133 21.9785 7.85742 22.3594 7.42383 22.8516C7.00195 23.332 6.66797 23.9062 6.42188 24.5742C6.17578 25.2422 6.05273 25.9805 6.05273 26.7891C6.05273 27.4453 6.17578 28.0605 6.42188 28.6348C6.66797 29.209 7.00195 29.7129 7.42383 30.1465C7.85742 30.5801 8.36133 30.9199 8.93555 31.166C9.52148 31.4121 10.1426 31.5352 10.7988 31.5352C11.2676 31.5352 11.7188 31.4707 12.1523 31.3418C12.5859 31.2129 12.9902 31.0312 13.3652 30.7969C13.752 30.5508 14.0918 30.2578 14.3848 29.918C14.6895 29.5664 14.9355 29.1797 15.123 28.7578L18.6387 32.291C18.1934 32.9238 17.6777 33.4922 17.0918 33.9961C16.5176 34.5 15.8906 34.9277 15.2109 35.2793C14.543 35.6309 13.834 35.8945 13.084 36.0703C12.3457 36.2578 11.584 36.3516 10.7988 36.3516C9.47461 36.3516 8.22656 36.1055 7.05469 35.6133C5.89453 35.1094 4.875 34.4238 3.99609 33.5566C3.12891 32.6895 2.44336 31.6758 1.93945 30.5156C1.43555 29.3555 1.18359 28.1133 1.18359 26.7891C1.18359 25.3477 1.43555 24 1.93945 22.7461C2.44336 21.4922 3.12891 20.4023 3.99609 19.4766C4.875 18.5391 5.89453 17.8008 7.05469 17.2617C8.22656 16.7227 9.47461 16.4531 10.7988 16.4531C11.584 16.4531 12.3516 16.5527 13.1016 16.752C13.8633 16.9512 14.584 17.2441 15.2637 17.6309C15.9551 18.0059 16.5879 18.4688 17.1621 19.0195C17.748 19.5703 18.252 20.2031 18.6738 20.918ZM38.9414 26.4199C38.9414 27.8262 38.6895 29.1387 38.1855 30.3574C37.6816 31.5645 36.9961 32.6133 36.1289 33.5039C35.2617 34.3828 34.2422 35.0801 33.0703 35.5957C31.9102 36.0996 30.6621 36.3516 29.3262 36.3516C28.002 36.3516 26.7539 36.0996 25.582 35.5957C24.4219 35.0801 23.4023 34.3828 22.5234 33.5039C21.6562 32.6133 20.9707 31.5645 20.4668 30.3574C19.9629 29.1387 19.7109 27.8262 19.7109 26.4199C19.7109 24.9902 19.9629 23.666 20.4668 22.4473C20.9707 21.2285 21.6562 20.1797 22.5234 19.3008C23.4023 18.4102 24.4219 17.7129 25.582 17.209C26.7539 16.7051 28.002 16.4531 29.3262 16.4531C30.6621 16.4531 31.9102 16.6934 33.0703 17.1738C34.2422 17.6426 35.2617 18.3164 36.1289 19.1953C36.9961 20.0625 37.6816 21.1113 38.1855 22.3418C38.6895 23.5605 38.9414 24.9199 38.9414 26.4199ZM34.1074 26.4199C34.1074 25.6465 33.9785 24.9492 33.7207 24.3281C33.4746 23.6953 33.1348 23.1562 32.7012 22.7109C32.2676 22.2539 31.7578 21.9082 31.1719 21.6738C30.5977 21.4277 29.9824 21.3047 29.3262 21.3047C28.6699 21.3047 28.0488 21.4277 27.4629 21.6738C26.8887 21.9082 26.3848 22.2539 25.9512 22.7109C25.5293 23.1562 25.1953 23.6953 24.9492 24.3281C24.7031 24.9492 24.5801 25.6465 24.5801 26.4199C24.5801 27.1465 24.7031 27.8203 24.9492 28.4414C25.1953 29.0625 25.5293 29.6016 25.9512 30.0586C26.3848 30.5156 26.8887 30.8789 27.4629 31.1484C28.0488 31.4062 28.6699 31.5352 29.3262 31.5352C29.9824 31.5352 30.5977 31.4121 31.1719 31.166C31.7578 30.9199 32.2676 30.5742 32.7012 30.1289C33.1348 29.6836 33.4746 29.1445 33.7207 28.5117C33.9785 27.8789 34.1074 27.1816 34.1074 26.4199ZM46.3945 36H41.5957V17.1738H42.7559L44.3379 19.002C45.1113 18.2988 45.9844 17.7598 46.957 17.3848C47.9414 16.998 48.9668 16.8047 50.0332 16.8047C51.1816 16.8047 52.2656 17.0273 53.2852 17.4727C54.3047 17.9062 55.1953 18.5098 55.957 19.2832C56.7188 20.0449 57.3164 20.9414 57.75 21.9727C58.1953 22.9922 58.418 24.082 58.418 25.2422V36H53.6191V25.2422C53.6191 24.75 53.5254 24.2871 53.3379 23.8535C53.1504 23.4082 52.8926 23.0215 52.5645 22.6934C52.2363 22.3652 51.8555 22.1074 51.4219 21.9199C50.9883 21.7324 50.5254 21.6387 50.0332 21.6387C49.5293 21.6387 49.0547 21.7324 48.6094 21.9199C48.1641 22.1074 47.7773 22.3652 47.4492 22.6934C47.1211 23.0215 46.8633 23.4082 46.6758 23.8535C46.4883 24.2871 46.3945 24.75 46.3945 25.2422V36ZM80.0391 26.4199C80.0391 27.8262 79.7871 29.1387 79.2832 30.3574C78.7793 31.5645 78.0938 32.6133 77.2266 33.5039C76.3594 34.3828 75.3398 35.0801 74.168 35.5957C73.0078 36.0996 71.7598 36.3516 70.4238 36.3516C69.0996 36.3516 67.8516 36.0996 66.6797 35.5957C65.5195 35.0801 64.5 34.3828 63.6211 33.5039C62.7539 32.6133 62.0684 31.5645 61.5645 30.3574C61.0605 29.1387 60.8086 27.8262 60.8086 26.4199C60.8086 24.9902 61.0605 23.666 61.5645 22.4473C62.0684 21.2285 62.7539 20.1797 63.6211 19.3008C64.5 18.4102 65.5195 17.7129 66.6797 17.209C67.8516 16.7051 69.0996 16.4531 70.4238 16.4531C71.7598 16.4531 73.0078 16.6934 74.168 17.1738C75.3398 17.6426 76.3594 18.3164 77.2266 19.1953C78.0938 20.0625 78.7793 21.1113 79.2832 22.3418C79.7871 23.5605 80.0391 24.9199 80.0391 26.4199ZM75.2051 26.4199C75.2051 25.6465 75.0762 24.9492 74.8184 24.3281C74.5723 23.6953 74.2324 23.1562 73.7988 22.7109C73.3652 22.2539 72.8555 21.9082 72.2695 21.6738C71.6953 21.4277 71.0801 21.3047 70.4238 21.3047C69.7676 21.3047 69.1465 21.4277 68.5605 21.6738C67.9863 21.9082 67.4824 22.2539 67.0488 22.7109C66.627 23.1562 66.293 23.6953 66.0469 24.3281C65.8008 24.9492 65.6777 25.6465 65.6777 26.4199C65.6777 27.1465 65.8008 27.8203 66.0469 28.4414C66.293 29.0625 66.627 29.6016 67.0488 30.0586C67.4824 30.5156 67.9863 30.8789 68.5605 31.1484C69.1465 31.4062 69.7676 31.5352 70.4238 31.5352C71.0801 31.5352 71.6953 31.4121 72.2695 31.166C72.8555 30.9199 73.3652 30.5742 73.7988 30.1289C74.2324 29.6836 74.5723 29.1445 74.8184 28.5117C75.0762 27.8789 75.2051 27.1816 75.2051 26.4199ZM106.635 36H101.854V24.0469C101.854 23.7188 101.789 23.4082 101.66 23.1152C101.543 22.8223 101.373 22.5645 101.15 22.3418C100.928 22.1191 100.67 21.9492 100.377 21.832C100.084 21.7031 99.7734 21.6387 99.4453 21.6387C99.1172 21.6387 98.8066 21.7031 98.5137 21.832C98.2324 21.9492 97.9805 22.1191 97.7578 22.3418C97.5469 22.5645 97.377 22.8223 97.248 23.1152C97.1309 23.4082 97.0723 23.7188 97.0723 24.0469V36H92.2734V24.0469C92.2734 23.7188 92.209 23.4082 92.0801 23.1152C91.9629 22.8223 91.793 22.5645 91.5703 22.3418C91.3477 22.1191 91.0898 21.9492 90.7969 21.832C90.5039 21.7031 90.1934 21.6387 89.8652 21.6387C89.5371 21.6387 89.2266 21.7031 88.9336 21.832C88.6523 21.9492 88.4004 22.1191 88.1777 22.3418C87.9668 22.5645 87.7969 22.8223 87.668 23.1152C87.5508 23.4082 87.4922 23.7188 87.4922 24.0469V36H82.6934V17.1738H83.8535L85.1543 18.6152C85.8223 18.0527 86.5547 17.6191 87.3516 17.3145C88.1602 16.998 88.998 16.8398 89.8652 16.8398C90.7441 16.8398 91.5996 17.0039 92.4316 17.332C93.2754 17.6602 94.0137 18.2285 94.6465 19.0371C94.9395 18.6387 95.2734 18.2988 95.6484 18.0176C96.0234 17.7363 96.416 17.5078 96.8262 17.332C97.248 17.1562 97.6816 17.0332 98.127 16.9629C98.5723 16.8809 99.0117 16.8398 99.4453 16.8398C100.441 16.8398 101.373 17.0273 102.24 17.4023C103.119 17.7773 103.881 18.293 104.525 18.9492C105.182 19.5938 105.697 20.3555 106.072 21.2344C106.447 22.1133 106.635 23.0508 106.635 24.0469V36ZM114.686 43.1719V38.3379L117.357 38.373C117.826 38.373 118.277 38.2969 118.711 38.1445C119.145 37.9922 119.543 37.7812 119.906 37.5117C120.281 37.2422 120.609 36.9199 120.891 36.5449C121.172 36.1816 121.4 35.7832 121.576 35.3496C121.049 35.5723 120.51 35.7949 119.959 36.0176C119.42 36.2402 118.875 36.3516 118.324 36.3516C117.164 36.3516 116.074 36.1465 115.055 35.7363C114.035 35.3262 113.139 34.7461 112.365 33.9961C111.604 33.2344 111 32.3145 110.555 31.2363C110.121 30.1465 109.904 28.9277 109.904 27.5801V17.1738H114.686V27.5801C114.686 28.248 114.779 28.834 114.967 29.3379C115.166 29.8301 115.43 30.2461 115.758 30.5859C116.086 30.9141 116.467 31.1602 116.9 31.3242C117.346 31.4883 117.82 31.5703 118.324 31.5703C118.816 31.5703 119.279 31.459 119.713 31.2363C120.158 31.002 120.545 30.6973 120.873 30.3223C121.201 29.9473 121.459 29.5254 121.646 29.0566C121.834 28.5762 121.928 28.084 121.928 27.5801V17.1738H126.762V33.627C126.75 34.9512 126.492 36.1934 125.988 37.3535C125.484 38.5137 124.793 39.5273 123.914 40.3945C123.047 41.2617 122.033 41.9473 120.873 42.4512C119.713 42.9551 118.471 43.207 117.146 43.207L114.686 43.1719Z" fill="#36384C"/>
<circle cx="138" cy="38" r="5" fill="#FF6701"/>
</svg>
