<svg width="392" height="90" viewBox="0 0 392 90" fill="none" xmlns="http://www.w3.org/2000/svg">
<path d="M80.16 42.12C80.16 38.7067 80.8 35.32 82.08 31.96C83.36 28.5467 85.2267 25.5067 87.68 22.84C90.1334 20.1733 93.12 18.0133 96.64 16.36C100.16 14.7067 104.16 13.88 108.64 13.88C113.973 13.88 118.587 15.0267 122.48 17.32C126.427 19.6133 129.36 22.6 131.28 26.28L121.2 33.32C120.56 31.8267 119.733 30.6 118.72 29.64C117.76 28.6267 116.693 27.8267 115.52 27.24C114.347 26.6 113.147 26.1733 111.92 25.96C110.693 25.6933 109.493 25.56 108.32 25.56C105.813 25.56 103.627 26.0667 101.76 27.08C99.8934 28.0933 98.3467 29.4 97.12 31C95.8934 32.6 94.9867 34.4133 94.4 36.44C93.8134 38.4667 93.52 40.52 93.52 42.6C93.52 44.84 93.8667 47 94.56 49.08C95.2534 51.16 96.24 53 97.52 54.6C98.8534 56.2 100.427 57.48 102.24 58.44C104.107 59.3467 106.187 59.8 108.48 59.8C109.653 59.8 110.853 59.6667 112.08 59.4C113.36 59.08 114.56 58.6267 115.68 58.04C116.853 57.4 117.92 56.6 118.88 55.64C119.84 54.6267 120.613 53.4 121.2 51.96L131.92 58.28C131.067 60.36 129.787 62.2267 128.08 63.88C126.427 65.5333 124.507 66.92 122.32 68.04C120.133 69.16 117.813 70.0133 115.36 70.6C112.907 71.1867 110.507 71.48 108.16 71.48C104.053 71.48 100.267 70.6533 96.8 69C93.3867 67.2933 90.4267 65.0533 87.92 62.28C85.4667 59.5067 83.5467 56.36 82.16 52.84C80.8267 49.32 80.16 45.7467 80.16 42.12Z" fill="#36384C"/>
<path d="M156.278 71.8C152.705 71.8 149.505 71.2133 146.678 70.04C143.905 68.8667 141.558 67.2933 139.638 65.32C137.718 63.2933 136.251 60.9733 135.238 58.36C134.278 55.6933 133.798 52.92 133.798 50.04C133.798 47.16 134.278 44.4133 135.238 41.8C136.251 39.1333 137.718 36.8133 139.638 34.84C141.558 32.8133 143.905 31.2133 146.678 30.04C149.505 28.8133 152.705 28.2 156.278 28.2C159.851 28.2 163.025 28.8133 165.798 30.04C168.571 31.2133 170.918 32.8133 172.838 34.84C174.758 36.8133 176.225 39.1333 177.238 41.8C178.251 44.4133 178.758 47.16 178.758 50.04C178.758 52.92 178.251 55.6933 177.238 58.36C176.278 60.9733 174.838 63.2933 172.918 65.32C170.998 67.2933 168.625 68.8667 165.798 70.04C163.025 71.2133 159.851 71.8 156.278 71.8ZM146.918 50.04C146.918 53.3467 147.798 56.0133 149.558 58.04C151.318 60.0133 153.558 61 156.278 61C157.611 61 158.838 60.7333 159.958 60.2C161.078 59.6667 162.038 58.92 162.838 57.96C163.691 57 164.358 55.8533 164.838 54.52C165.318 53.1333 165.558 51.64 165.558 50.04C165.558 46.7333 164.678 44.0933 162.918 42.12C161.158 40.0933 158.945 39.08 156.278 39.08C154.945 39.08 153.691 39.3467 152.518 39.88C151.398 40.4133 150.411 41.16 149.558 42.12C148.758 43.08 148.118 44.2533 147.638 45.64C147.158 46.9733 146.918 48.44 146.918 50.04Z" fill="#36384C"/>
<path d="M224.386 71H211.586V47.4C211.586 44.6267 211.053 42.6267 209.986 41.4C208.973 40.12 207.613 39.48 205.906 39.48C205 39.48 204.093 39.6667 203.186 40.04C202.28 40.4133 201.4 40.9467 200.546 41.64C199.693 42.28 198.92 43.0533 198.226 43.96C197.586 44.8667 197.08 45.8533 196.706 46.92V71H183.906V29H195.426V36.04C196.973 33.5333 199.16 31.6133 201.986 30.28C204.813 28.8933 208.066 28.2 211.746 28.2C214.466 28.2 216.653 28.7067 218.306 29.72C219.96 30.68 221.24 31.96 222.146 33.56C223.053 35.1067 223.64 36.8133 223.906 38.68C224.226 40.5467 224.386 42.36 224.386 44.12V71Z" fill="#36384C"/>
<path d="M251.691 71.8C248.117 71.8 244.917 71.2133 242.091 70.04C239.317 68.8667 236.971 67.2933 235.051 65.32C233.131 63.2933 231.664 60.9733 230.651 58.36C229.691 55.6933 229.211 52.92 229.211 50.04C229.211 47.16 229.691 44.4133 230.651 41.8C231.664 39.1333 233.131 36.8133 235.051 34.84C236.971 32.8133 239.317 31.2133 242.091 30.04C244.917 28.8133 248.117 28.2 251.691 28.2C255.264 28.2 258.437 28.8133 261.211 30.04C263.984 31.2133 266.331 32.8133 268.251 34.84C270.171 36.8133 271.637 39.1333 272.651 41.8C273.664 44.4133 274.171 47.16 274.171 50.04C274.171 52.92 273.664 55.6933 272.651 58.36C271.691 60.9733 270.251 63.2933 268.331 65.32C266.411 67.2933 264.037 68.8667 261.211 70.04C258.437 71.2133 255.264 71.8 251.691 71.8ZM242.331 50.04C242.331 53.3467 243.211 56.0133 244.971 58.04C246.731 60.0133 248.971 61 251.691 61C253.024 61 254.251 60.7333 255.371 60.2C256.491 59.6667 257.451 58.92 258.251 57.96C259.104 57 259.771 55.8533 260.251 54.52C260.731 53.1333 260.971 51.64 260.971 50.04C260.971 46.7333 260.091 44.0933 258.331 42.12C256.571 40.0933 254.357 39.08 251.691 39.08C250.357 39.08 249.104 39.3467 247.931 39.88C246.811 40.4133 245.824 41.16 244.971 42.12C244.171 43.08 243.531 44.2533 243.051 45.64C242.571 46.9733 242.331 48.44 242.331 50.04Z" fill="#36384C"/>
<path d="M345.719 71H332.919V47.4C332.919 44.6267 332.412 42.6267 331.399 41.4C330.385 40.12 329.079 39.48 327.479 39.48C326.625 39.48 325.745 39.6667 324.839 40.04C323.985 40.4133 323.185 40.9467 322.439 41.64C321.692 42.28 320.999 43.0533 320.359 43.96C319.772 44.8667 319.292 45.8533 318.919 46.92V71H306.119V47.4C306.119 44.6267 305.612 42.6267 304.599 41.4C303.585 40.12 302.279 39.48 300.679 39.48C298.972 39.48 297.292 40.1733 295.639 41.56C294.039 42.8933 292.865 44.68 292.119 46.92V71H279.319V29H290.839V36.04C292.385 33.48 294.465 31.5333 297.079 30.2C299.745 28.8667 302.839 28.2 306.359 28.2C308.119 28.2 309.639 28.4133 310.919 28.84C312.252 29.2667 313.399 29.8533 314.359 30.6C315.319 31.3467 316.092 32.2267 316.679 33.24C317.265 34.2 317.692 35.24 317.959 36.36C319.559 33.7467 321.665 31.7467 324.279 30.36C326.892 28.92 329.879 28.2 333.239 28.2C335.905 28.2 338.039 28.7067 339.639 29.72C341.292 30.68 342.572 31.96 343.479 33.56C344.385 35.1067 344.972 36.8133 345.239 38.68C345.559 40.5467 345.719 42.36 345.719 44.12V71Z" fill="#36384C"/>
<path d="M352.267 77.32C353.334 77.6933 354.32 77.96 355.227 78.12C356.187 78.28 357.04 78.36 357.787 78.36C359.334 78.36 360.534 77.8267 361.387 76.76C362.24 75.6933 363.014 73.7733 363.707 71L347.707 29H360.907L370.667 60.04L379.067 29H391.067L375.067 77.8C373.947 81.2667 371.947 84.0667 369.067 86.2C366.187 88.3867 362.774 89.48 358.827 89.48C357.76 89.48 356.667 89.3733 355.547 89.16C354.48 89 353.387 88.7067 352.267 88.28V77.32Z" fill="#36384C"/>
<path fill-rule="evenodd" clip-rule="evenodd" d="M56.7213 23.5516C56.7222 23.5511 56.7232 23.5505 60.5677 29.9902C64.4123 36.4299 64.4131 36.4294 64.4139 36.4289L64.4152 36.4281L64.4028 36.4356L64.3209 36.4853C64.2428 36.5329 64.1188 36.6089 63.9534 36.712C63.6223 36.9182 63.1268 37.2316 62.5028 37.64C61.2518 38.4587 59.501 39.6485 57.5339 41.1121C53.507 44.1084 48.9582 47.9702 45.8241 51.9256C45.1283 52.8039 44.3166 54.6699 43.8156 57.8569C43.3369 60.902 43.2503 64.4299 43.3946 67.9276C43.5375 71.3901 43.8971 74.6156 44.2249 76.9877C44.3879 78.1674 44.5409 79.1204 44.651 79.7676C44.706 80.0908 44.7502 80.3366 44.7793 80.4952C44.7938 80.5744 44.8046 80.6318 44.8111 80.6659L44.8175 80.6996C44.8173 80.6985 44.8171 80.6976 37.4567 82.1376C30.0962 83.5776 30.0959 83.5762 30.0956 83.5747L30.0933 83.5627L30.0886 83.5385L30.0741 83.4626C30.0622 83.3999 30.046 83.3132 30.0259 83.2038C29.9857 82.985 29.9302 82.675 29.8636 82.284C29.7307 81.5028 29.5531 80.3943 29.3661 79.0412C28.9939 76.3478 28.5756 72.6229 28.4074 68.5461C28.2406 64.5044 28.3095 59.9039 28.9976 55.5274C29.6633 51.2929 31.0295 46.4441 34.0673 42.6102C38.4005 37.1414 44.1627 32.3644 48.5799 29.0778C50.8349 27.4 52.8395 26.0374 54.2884 25.0891C55.0144 24.614 55.6049 24.2402 56.0224 23.9801C56.2313 23.85 56.3972 23.7482 56.5155 23.6761C56.5746 23.64 56.6219 23.6114 56.6567 23.5904L56.6995 23.5647L56.7213 23.5516Z" fill="#263CFF"/>
<path fill-rule="evenodd" clip-rule="evenodd" d="M15.9671 37.7236C17.5493 34.6686 17.6898 33.0463 17.6219 32.584C17.4363 31.3199 16.6541 29.3822 14.9749 26.859C13.3586 24.4302 11.2399 21.9444 9.02861 19.6453C6.83647 17.3662 4.67266 15.3935 3.04971 13.9867C2.24242 13.2868 1.57929 12.736 1.12675 12.3669C0.900728 12.1826 0.727962 12.0442 0.616825 11.9558C0.561279 11.9117 0.521198 11.8801 0.497635 11.8616L0.475868 11.8445C0.476723 11.8452 0.477646 11.8459 5.07749 5.92212C9.67734 -0.0016861 9.6784 -0.000859726 9.67953 2.14692e-05L9.68866 0.00712157L9.70668 0.0211749L9.76242 0.0648313C9.80819 0.10078 9.87105 0.150357 9.94991 0.213038C10.1076 0.338365 10.3295 0.516293 10.6071 0.742621C11.1616 1.19488 11.9409 1.84271 12.8749 2.65238C14.7346 4.26446 17.2491 6.55381 19.8395 9.24707C22.4108 11.9204 25.179 15.1174 27.4626 18.5488C29.6833 21.8859 31.8139 25.9862 32.4628 30.4047C33.2294 35.6252 31.2915 40.7511 29.2867 44.622C27.162 48.7244 24.2635 52.7239 21.5042 56.1164C18.7144 59.5464 15.8945 62.5651 13.7874 64.7145C12.7287 65.7944 11.8377 66.6673 11.204 67.277C10.8869 67.5821 10.6335 67.8221 10.4548 67.9899C10.3655 68.0738 10.2948 68.1397 10.2442 68.1867L10.1833 68.2431L10.1645 68.2605L10.1555 68.2688C10.1545 68.2697 10.1535 68.2706 5.07749 62.7494C0.00144196 57.2282 0.000656128 57.2289 -5.34058e-05 57.2296L0.00299835 57.2267L0.0348473 57.1972C0.0659523 57.1683 0.116539 57.1212 0.185249 57.0566C0.322723 56.9275 0.532448 56.729 0.803635 56.4681C1.34654 55.9457 2.1326 55.176 3.07603 54.2136C4.97304 52.2786 7.45733 49.6146 9.86735 46.6515C12.3079 43.6509 14.5049 40.547 15.9671 37.7236Z" fill="#263CFF"/>
</svg>
